<?xml version="1.0" standalone="no"?>
<!DOCTYPE svg PUBLIC "-//W3C//DTD SVG 20010904//EN"
 "http://www.w3.org/TR/2001/REC-SVG-20010904/DTD/svg10.dtd">
<svg version="1.0" xmlns="http://www.w3.org/2000/svg"
 width="2499.000000pt" height="3300.000000pt" viewBox="0 0 2499.000000 3300.000000"
 preserveAspectRatio="xMidYMid meet">

<g transform="translate(0.000000,3300.000000) scale(0.100000,-0.100000)"
fill="#000000" stroke="none">
<path d="M8645 27915 c-14 -20 -60 -61 -101 -92 l-74 -55 0 -51 0 -50 23 19
c129 115 221 176 345 230 l77 34 -121 0 -122 0 -27 -35z"/>
<path d="M8915 27925 c-138 -48 -274 -131 -389 -236 -47 -43 -56 -56 -56 -85
0 -19 2 -34 3 -34 2 0 44 39 93 88 101 99 178 144 289 167 102 21 2798 23
2803 2 5 -25 -26 -42 -51 -28 -17 9 -352 11 -1382 9 l-1360 -3 -69 -27 c-132
-51 -242 -146 -257 -220 -12 -60 -11 -135 2 -199 10 -50 8 -65 -30 -204 l-41
-151 0 -4212 0 -4213 41 -146 c38 -137 40 -150 30 -202 -13 -64 -14 -138 -1
-201 7 -37 19 -55 68 -102 69 -64 180 -123 261 -138 85 -16 2716 -14 2741 2
16 11 23 10 37 -5 22 -22 6 -55 -23 -47 -11 2 -638 7 -1394 10 -1263 5 -1379
6 -1425 22 -99 34 -221 121 -285 203 -19 24 -38 44 -42 45 -5 0 -8 -15 -8 -34
0 -27 9 -42 53 -83 111 -105 236 -182 376 -233 l82 -30 3308 0 3307 0 74 25
c135 46 273 131 388 238 43 41 52 56 52 83 0 19 -3 34 -7 34 -5 0 -21 -19 -38
-41 -57 -78 -190 -173 -290 -207 -46 -16 -162 -17 -1425 -22 -756 -3 -1383 -8
-1394 -10 -29 -8 -45 25 -23 47 14 15 21 16 37 5 26 -16 2657 -18 2741 -2 136
26 310 150 329 235 13 54 12 140 -1 206 -10 50 -8 65 30 201 l41 148 0 4215 0
4216 -41 146 c-38 137 -40 150 -30 202 13 65 14 152 2 205 -17 70 -131 165
-257 214 l-69 27 -1360 3 c-1030 2 -1365 0 -1382 -9 -25 -14 -56 3 -51 28 5
21 2701 19 2803 -2 112 -24 188 -68 293 -171 l92 -91 0 38 c0 32 -7 44 -57 89
-116 107 -262 193 -400 239 l-62 21 -3303 0 -3303 0 -70 -25z"/>
<path d="M15766 27906 c104 -49 184 -102 278 -182 l66 -55 0 50 0 50 -74 55
c-41 30 -86 71 -101 90 l-27 36 -117 0 -116 -1 91 -43z"/>
<path d="M16636 27904 c-21 -24 -65 -63 -97 -86 l-59 -42 0 -55 0 -55 48 45
c88 85 197 156 318 208 l69 30 -120 0 -120 0 -39 -45z"/>
<path d="M16920 27926 c-133 -47 -262 -124 -382 -229 -52 -44 -58 -54 -58 -88
l0 -38 83 82 c95 95 189 150 294 172 57 12 293 15 1433 15 l1365 1 3 -21 c4
-25 -22 -36 -51 -21 -16 9 -364 11 -1377 9 l-1355 -3 -65 -23 c-73 -27 -179
-94 -228 -145 -44 -45 -58 -133 -41 -257 11 -84 11 -87 -25 -216 l-36 -131 0
-4238 0 -4238 36 -131 c36 -129 36 -132 25 -216 -8 -59 -9 -106 -2 -155 10
-68 11 -71 70 -126 33 -31 87 -70 119 -87 121 -64 53 -62 1525 -62 870 0 1345
3 1357 10 40 21 69 -21 35 -50 -11 -9 -19 -10 -28 -1 -10 7 -405 11 -1388 13
l-1374 3 -69 27 c-90 35 -161 85 -241 169 l-65 69 0 -40 c0 -37 5 -44 78 -106
98 -84 197 -145 309 -192 l88 -37 3320 -3 3320 -2 64 21 c136 43 283 132 389
232 52 50 62 66 62 94 l0 33 -82 -83 c-66 -67 -100 -92 -168 -125 -47 -23
-109 -47 -139 -52 -34 -6 -549 -10 -1395 -10 -910 0 -1345 -3 -1352 -10 -13
-13 -41 -3 -49 18 -3 8 1 23 10 31 12 13 19 13 35 3 15 -9 317 -12 1363 -12
1441 0 1388 -2 1501 49 55 25 161 105 188 144 18 25 23 48 26 124 3 51 -1 113
-7 138 -10 40 -7 58 29 190 l40 145 0 4225 0 4226 -40 144 c-37 132 -40 148
-29 189 6 26 10 88 7 142 l-4 97 -65 61 c-78 74 -165 122 -256 141 -93 20
-2722 22 -2753 3 -16 -10 -23 -10 -35 3 -9 8 -13 22 -10 30 4 12 99 14 653 12
356 -2 985 -4 1397 -6 737 -2 751 -3 806 -24 31 -11 69 -28 85 -36 58 -30 155
-110 199 -164 l45 -55 0 40 c0 34 -6 45 -52 89 -117 109 -251 191 -390 237
l-77 26 -3303 -1 -3303 0 -65 -23z"/>
<path d="M23785 27896 c112 -55 202 -115 281 -188 l44 -41 0 55 c0 49 -3 55
-29 71 -52 31 -136 103 -150 131 -14 26 -15 26 -135 26 l-120 0 109 -54z"/>
<path d="M3002 27183 l3 -588 138 -3 139 -3 40 37 c30 26 46 34 62 30 84 -25
133 -36 153 -36 13 0 32 -5 42 -12 11 -7 26 -8 37 -3 11 5 55 17 99 27 44 10
89 21 100 24 15 4 32 -5 60 -30 l39 -36 138 0 138 0 0 60 0 60 1708 0 1708 0
18 31 c30 51 111 143 139 158 l27 14 0 264 0 264 -60 56 c-33 30 -74 77 -92
104 l-31 49 -1709 0 -1708 0 0 60 0 60 -141 0 -142 0 -39 -36 c-27 -24 -45
-33 -56 -29 -38 16 -119 35 -149 35 -17 0 -35 5 -38 10 -3 6 -17 10 -30 10
-13 0 -27 -4 -30 -10 -3 -5 -21 -10 -40 -10 -18 0 -62 -9 -96 -20 l-63 -19
-33 25 c-18 14 -33 29 -33 35 0 5 -62 9 -150 9 l-150 0 2 -587z m733 512 c36
-12 22 -13 -134 -14 -96 -1 -172 2 -168 5 23 23 237 29 302 9z m-451 -24 c10
-11 41 -30 69 -42 48 -22 66 -23 232 -24 99 0 197 4 217 8 20 4 60 23 89 42
68 47 123 48 172 5 56 -49 58 -71 55 -500 -3 -348 -5 -388 -21 -418 -41 -75
-131 -94 -196 -41 -61 49 -113 59 -301 59 -187 0 -240 -10 -310 -61 -37 -27
-49 -31 -87 -26 -28 3 -54 14 -70 28 -53 51 -53 47 -53 479 0 445 1 453 64
491 42 26 117 25 140 0z m4078 -102 c29 -11 57 -25 63 -30 5 -5 -610 -8 -1610
-7 l-1620 3 -3 28 -3 27 1560 0 c1555 0 1560 0 1613 -21z m257 -40 c24 -33 61
-74 82 -91 27 -22 39 -39 39 -57 0 -24 -3 -23 -52 25 -65 63 -100 87 -203 141
l-80 42 85 0 85 0 44 -60z m-3369 -350 l0 -320 -27 3 -28 3 -3 318 -2 317 30
0 30 0 0 -321z m3322 280 c73 -50 130 -107 152 -153 24 -51 22 -205 -3 -254
-24 -45 -88 -107 -161 -156 l-55 -36 -1612 0 -1613 0 0 320 0 320 1616 0 1615
0 61 -41z m168 -481 c0 -14 -14 -34 -35 -51 -20 -16 -59 -57 -86 -93 l-51 -64
-86 0 -86 0 79 40 c95 49 195 119 227 159 28 36 38 38 38 9z m-360 -176 l-55
-27 -1565 0 -1565 0 -3 28 -3 27 1623 -1 1623 -1 -55 -26z m-3640 -134 c-38
-15 -203 -18 -263 -3 -49 12 -41 13 118 13 126 1 164 -2 145 -10z"/>
<path d="M8491 27526 c-19 -31 -21 -48 -21 -222 0 -110 4 -183 9 -174 5 8 19
51 30 95 20 71 21 86 10 145 -6 37 -10 95 -7 128 2 34 3 62 2 62 -1 0 -12 -15
-23 -34z"/>
<path d="M16068 27489 c3 -39 -1 -96 -7 -127 -10 -51 -8 -67 13 -146 14 -48
27 -91 30 -94 3 -3 6 79 6 183 0 173 -2 190 -21 221 -11 19 -22 34 -23 34 -1
0 0 -32 2 -71z"/>
<path d="M16496 27528 c-15 -28 -17 -59 -14 -218 l3 -185 24 89 c22 81 23 94
11 164 -7 42 -9 99 -5 128 3 30 5 54 2 54 -2 0 -12 -15 -21 -32z"/>
<path d="M24070 27470 c0 -47 -4 -102 -9 -123 -7 -30 -4 -58 16 -130 14 -51
27 -94 29 -96 2 -2 4 83 4 190 0 177 -2 196 -20 219 l-20 25 0 -85z"/>
<path d="M3624 26306 c5 -22 3 -24 -51 -31 -32 -4 -87 -16 -123 -28 l-65 -21
85 -7 c129 -9 205 -20 220 -29 27 -17 5 -18 -75 -3 -112 20 -300 12 -379 -16
-77 -27 -134 -61 -171 -102 l-30 -33 35 26 c40 28 103 62 140 73 19 6 8 -10
-47 -68 -79 -84 -152 -217 -172 -315 -16 -76 -14 -228 4 -297 26 -104 88 -216
165 -298 66 -70 69 -75 40 -67 -28 8 -64 28 -140 76 -14 9 -5 -2 19 -25 112
-105 309 -144 536 -107 75 13 95 13 83 1 -11 -12 -127 -27 -218 -28 -54 -1
-96 -5 -93 -9 6 -11 98 -37 175 -50 64 -10 67 -12 62 -34 -11 -44 20 -26 56
33 46 74 154 184 207 212 43 22 152 51 188 50 16 0 11 -8 -25 -40 -52 -46
-184 -115 -238 -125 -20 -4 -45 -14 -56 -23 -20 -18 -50 -70 -43 -77 2 -3 40
3 83 11 89 19 175 56 253 109 l53 36 1752 1 1751 0 50 70 c28 39 69 84 93 101
l42 31 0 304 0 304 -59 55 c-33 30 -74 77 -91 104 l-32 50 -1751 0 -1751 0
-60 39 c-34 22 -87 52 -118 66 -57 26 -205 62 -214 52 -7 -7 21 -60 38 -74 7
-6 49 -23 93 -38 77 -26 192 -93 229 -134 24 -26 15 -27 -87 -2 -124 30 -219
107 -312 254 -32 51 -61 64 -51 23z m47 -177 c62 -14 105 -32 149 -61 80 -52
157 -79 241 -85 l66 -5 32 -49 c66 -102 95 -202 94 -329 -1 -104 -38 -225 -92
-303 -37 -52 -37 -52 -101 -58 -88 -7 -156 -32 -236 -84 -71 -47 -142 -68
-291 -86 l-82 -10 -73 37 c-102 53 -203 156 -252 254 -88 180 -85 354 9 540
38 75 162 196 245 238 61 32 69 33 135 27 39 -3 109 -15 156 -26z m619 -89
c-72 -24 -93 -24 -108 0 -12 19 -10 20 75 19 l88 -1 -55 -18z m3150 -36 c118
-59 210 -125 257 -187 l32 -42 1 -167 0 -167 -56 -60 c-64 -69 -153 -129 -274
-183 l-85 -38 -1438 0 -1437 0 -59 24 c-32 13 -81 29 -108 36 l-50 13 33 56
c57 97 79 189 79 326 0 136 -22 224 -80 319 l-32 53 76 22 c42 12 87 29 101
36 21 12 246 14 1480 12 l1455 -2 105 -51z m180 -5 c25 -34 62 -74 83 -91 26
-21 37 -38 37 -56 0 -25 -2 -24 -52 24 -65 63 -100 87 -203 141 l-80 42 85 0
85 0 45 -60z m57 -711 c-35 -36 -72 -79 -83 -96 l-18 -32 -86 0 -85 0 84 45
c97 52 161 98 211 150 31 32 35 34 38 16 2 -13 -17 -40 -61 -83z m-3387 -108
l55 -18 -88 -1 c-85 -1 -87 0 -77 19 13 24 38 24 110 0z"/>
<path d="M3217 24673 c-4 -3 -7 -16 -7 -28 0 -37 -37 -72 -115 -111 -64 -32
-75 -41 -75 -63 -1 -14 -9 -116 -20 -226 l-19 -200 22 -88 22 -89 -37 -31 -36
-32 14 -65 c7 -36 22 -155 33 -265 78 -772 66 -1637 -29 -2105 l-17 -85 36
-31 36 -32 -22 -88 -22 -89 19 -200 c11 -110 19 -212 20 -228 0 -21 7 -30 28
-38 101 -38 162 -89 162 -135 l0 -24 2175 0 2175 0 0 24 c0 46 77 108 173 140
10 3 17 16 17 33 1 15 9 118 20 228 l19 200 -22 89 -22 88 36 32 36 31 -18 90
c-25 125 -46 303 -65 549 -36 471 4 1499 71 1817 l13 64 -36 32 -37 31 22 89
22 88 -19 200 c-11 110 -19 212 -20 226 0 22 -11 31 -73 62 -84 41 -107 63
-116 109 l-7 33 -2165 3 c-1191 1 -2169 -1 -2172 -5z m130 -91 c-89 -49 -146
-99 -190 -164 -40 -61 -77 -161 -77 -210 -1 -29 -2 -31 -11 -14 -8 12 -9 50
-5 110 12 153 12 153 70 183 59 29 102 66 122 106 14 26 18 27 87 27 l72 0
-68 -38z m4049 -11 c161 -80 253 -202 273 -360 7 -55 6 -86 -5 -127 -19 -73
-17 -110 5 -160 18 -39 18 -48 5 -145 -21 -153 -21 -2315 0 -2468 13 -98 13
-105 -6 -148 -15 -34 -18 -57 -14 -92 19 -142 18 -200 -3 -270 -40 -132 -163
-252 -316 -309 l-60 -22 -1905 2 -1905 3 -88 43 c-159 78 -255 202 -277 358
-7 56 -6 84 5 128 20 76 19 112 -5 165 -17 37 -19 52 -11 100 21 124 23 236
23 1280 0 1008 -5 1235 -28 1312 -2 9 5 37 17 63 16 37 19 59 15 95 -19 142
-18 200 3 270 43 141 161 254 330 317 29 10 390 12 1947 11 l1911 -2 89 -44z
m118 22 c20 -40 63 -77 122 -106 58 -30 58 -30 70 -183 8 -113 -4 -143 -23
-54 -7 35 -25 89 -39 119 -36 73 -133 167 -219 213 l-70 37 72 1 c69 0 73 -1
87 -27z m-4425 -593 c-1 -32 -14 -66 -21 -54 -15 25 -29 117 -23 145 l7 33 19
-50 c11 -27 19 -60 18 -74z m4636 35 c-3 -22 -12 -53 -19 -70 l-13 -30 -8 38
c-10 51 24 162 38 125 5 -13 6 -41 2 -63z m-4691 -242 c13 -58 32 -433 22
-422 -2 2 -11 64 -20 138 -9 74 -23 168 -32 208 -12 58 -12 78 -3 89 17 21 27
17 33 -13z m4735 14 c8 -10 7 -34 -4 -92 -9 -43 -22 -137 -31 -209 -9 -72 -18
-133 -20 -135 -7 -7 -4 97 6 249 13 198 20 222 49 187z m-4718 -2313 c-6 -101
-15 -193 -19 -204 -7 -18 -10 -19 -26 -7 -17 12 -17 17 -2 87 12 60 41 263 47
340 1 8 4 4 6 -9 3 -13 0 -107 -6 -207z m4683 87 c9 -74 24 -168 32 -210 15
-71 15 -76 -2 -88 -16 -12 -19 -11 -26 7 -12 33 -35 441 -24 429 2 -2 11 -64
20 -138z m-4645 -491 c1 -14 -7 -47 -18 -74 l-19 -50 -7 33 c-6 28 8 120 23
145 7 12 20 -22 21 -54z m4630 -7 c7 -34 8 -70 4 -86 -8 -27 -9 -26 -27 26
-13 37 -16 67 -12 91 9 49 21 39 35 -31z m-13 -282 c-12 -166 -13 -169 -60
-190 -51 -22 -112 -74 -132 -112 -14 -28 -17 -29 -87 -29 l-72 0 52 29 c128
71 197 141 248 254 14 31 28 78 32 106 3 30 10 48 16 44 6 -3 7 -42 3 -102z
m-4626 75 c0 -45 37 -143 75 -201 42 -63 117 -127 205 -174 l55 -30 -72 -1
c-70 0 -73 1 -87 29 -20 38 -81 90 -132 112 -48 22 -50 26 -60 187 -5 74 -4
102 5 102 6 0 11 -11 11 -24z"/>
<path d="M3210 20013 c0 -36 -63 -94 -134 -123 -47 -20 -56 -28 -56 -49 -1
-14 -9 -116 -20 -226 l-19 -200 22 -89 22 -88 -37 -32 -36 -32 14 -59 c19 -84
51 -347 69 -568 23 -286 23 -7908 0 -8198 -18 -230 -49 -480 -70 -564 l-14
-60 37 -32 37 -32 -22 -88 -22 -88 19 -200 c11 -110 19 -212 20 -227 0 -24 8
-32 66 -58 78 -35 124 -80 124 -121 l0 -29 2175 0 2175 0 0 29 c0 43 34 77
116 117 58 28 74 40 74 57 0 12 9 117 20 233 17 184 18 217 6 251 -7 21 -17
58 -21 82 -7 42 -6 46 28 75 l36 31 -19 85 c-21 93 -54 376 -70 595 -6 90 -10
1525 -10 4046 0 3411 2 3931 15 4100 17 218 49 474 70 564 l13 59 -36 32 -37
32 21 83 22 84 -21 231 -21 232 -54 22 c-69 29 -132 88 -132 123 l0 27 -2175
0 -2175 0 0 -27z m128 -69 c-131 -70 -240 -216 -255 -341 -3 -31 -10 -50 -16
-46 -6 3 -7 42 -3 102 12 168 11 165 68 192 53 25 128 92 128 115 0 11 17 14
73 14 l72 -1 -67 -35z m4022 12 c141 -58 252 -169 290 -294 24 -75 29 -196 11
-229 -17 -34 -13 -100 10 -145 12 -23 18 -50 15 -62 -25 -99 -27 -415 -26
-4785 0 -3957 2 -4592 14 -4688 14 -107 14 -113 -5 -150 -15 -29 -19 -50 -14
-88 17 -156 16 -219 -4 -279 -46 -130 -120 -209 -264 -281 l-89 -45 -1922 2
-1921 3 -77 38 c-108 54 -189 131 -233 220 -46 95 -60 192 -40 271 20 75 19
112 -4 162 -18 39 -18 48 -5 145 21 161 21 9223 0 9387 -14 108 -14 113 5 158
16 35 19 57 14 93 -14 104 -16 196 -5 240 36 144 149 264 315 333 37 16 179
17 1958 17 l1917 1 60 -24z m150 10 c0 -23 75 -90 128 -115 57 -27 56 -24 68
-192 4 -60 3 -99 -3 -102 -6 -4 -13 15 -16 46 -15 125 -124 271 -255 341 l-67
35 73 1 c55 0 72 -3 72 -14z m-4421 -596 c0 -14 -4 -34 -9 -45 -9 -22 -9 -22
-30 48 -7 22 -9 55 -5 79 l7 42 19 -50 c11 -27 19 -60 18 -74z m4630 2 c-15
-66 -26 -73 -35 -26 -4 24 -1 54 12 91 l19 54 8 -33 c6 -21 4 -52 -4 -86z
m-4669 -384 c10 -162 12 -262 5 -243 -2 6 -11 66 -20 135 -8 69 -22 160 -31
203 -15 75 -15 79 3 92 16 12 19 11 25 -6 4 -10 12 -92 18 -181z m4730 172 c0
-3 -7 -37 -15 -75 -8 -39 -22 -131 -31 -205 -9 -74 -18 -137 -20 -139 -10 -11
9 364 22 421 5 24 8 26 25 15 10 -6 19 -14 19 -17z m-4729 -9224 c-6 -100 -15
-194 -19 -209 -7 -28 -8 -28 -25 -10 -15 18 -16 25 -2 97 12 62 40 267 46 336
1 8 4 4 6 -9 3 -13 0 -106 -6 -205z m4684 74 c9 -74 23 -166 31 -204 14 -66
13 -71 -4 -89 -19 -19 -20 -18 -26 15 -14 75 -33 457 -21 423 2 -5 11 -71 20
-145z m-4646 -485 c0 -16 -8 -50 -19 -75 l-18 -45 -7 36 c-8 45 23 166 36 134
4 -11 8 -33 8 -50z m4626 8 c11 -36 14 -69 10 -92 l-7 -36 -20 50 c-14 36 -18
62 -13 92 3 24 8 43 10 43 2 0 11 -26 20 -57z m-9 -302 c-12 -160 -14 -166
-51 -180 -49 -17 -114 -68 -137 -107 -20 -34 -20 -34 -91 -34 l-72 1 48 24
c104 53 175 116 224 195 28 46 63 151 63 192 1 29 2 31 12 14 7 -12 8 -49 4
-105z m-4584 -60 c40 -85 130 -174 223 -224 l70 -36 -72 -1 c-71 0 -71 0 -91
34 -23 39 -88 90 -137 107 -37 14 -38 18 -51 176 -8 99 5 146 18 64 4 -29 22
-83 40 -120z"/>
<path d="M8470 18284 c0 -171 2 -192 20 -221 11 -18 21 -33 23 -33 2 0 1 28
-1 62 -3 33 1 91 7 127 10 60 9 74 -13 154 -14 49 -27 92 -30 95 -3 3 -6 -80
-6 -184z"/>
<path d="M16086 18418 c-36 -130 -37 -138 -26 -191 7 -29 10 -85 8 -125 l-3
-73 22 28 c22 27 23 36 23 221 0 105 -2 192 -4 192 -3 0 -11 -24 -20 -52z"/>
<path d="M24078 18376 c-15 -55 -24 -104 -21 -109 3 -6 9 -60 12 -121 6 -110
6 -111 24 -85 15 23 17 48 15 220 l-3 194 -27 -99z"/>
<path d="M16481 18270 c-1 -180 1 -197 19 -220 l20 -25 -6 52 c-3 28 -1 89 5
135 11 78 11 88 -13 168 l-24 85 -1 -195z"/>
<path d="M16056 17874 c-95 -87 -203 -155 -356 -222 -20 -8 -1 -11 95 -11
l120 -1 22 34 c12 19 56 58 97 87 l75 54 0 53 c1 28 0 52 -1 52 -2 -1 -25 -21
-52 -46z"/>
<path d="M24050 17868 c-71 -67 -204 -153 -299 -195 l-76 -33 117 0 117 0 52
55 c28 30 73 69 100 86 49 31 49 31 49 85 0 30 -1 54 -2 54 -2 -1 -28 -24 -58
-52z"/>
<path d="M8470 17863 c0 -46 2 -49 48 -78 26 -16 73 -56 104 -87 l58 -58 113
0 112 0 -91 44 c-113 54 -180 97 -266 169 -36 31 -69 57 -72 57 -3 0 -6 -21
-6 -47z"/>
<path d="M16480 17862 l0 -50 64 -46 c35 -25 80 -64 99 -86 l34 -40 119 1
c109 0 116 1 84 13 -104 39 -248 128 -357 222 l-43 37 0 -51z"/>
<path d="M8390 17125 c0 -38 -53 -90 -125 -121 l-65 -28 -2 -3566 -3 -3565
-23 -43 c-13 -23 -34 -48 -47 -54 -23 -10 -25 -16 -25 -85 0 -94 23 -204 66
-319 31 -85 34 -101 34 -206 l0 -114 38 -13 c91 -32 152 -89 152 -141 0 -20
36 -20 3623 -20 l3624 0 12 39 c14 48 51 81 125 112 l56 23 0 112 c0 99 3 118
26 170 38 86 73 232 80 339 6 87 6 93 -13 99 -35 11 -62 49 -78 111 -13 53
-15 434 -15 3591 l0 3531 -44 17 c-74 28 -124 70 -137 116 l-12 40 -3624 0
-3623 0 0 -25z m140 -34 c0 -5 -9 -13 -20 -16 -31 -10 -163 -143 -205 -207
-21 -32 -39 -58 -41 -58 -2 0 -4 29 -4 65 l0 65 49 24 c64 33 106 69 121 106
11 27 17 30 56 30 24 0 44 -4 44 -9z m6920 -27 c75 -35 160 -109 225 -196 l45
-60 0 -3451 c0 -2166 4 -3510 10 -3607 5 -85 17 -207 26 -270 31 -231 32 -220
-12 -286 -57 -86 -148 -175 -239 -233 l-80 -51 -3405 0 -3405 0 -64 38 c-81
47 -190 147 -246 227 -54 75 -55 89 -23 310 l22 150 6 3585 5 3585 34 49 c76
110 189 202 284 232 34 10 643 12 3397 11 l3355 -2 65 -31z m154 7 c20 -38 81
-90 133 -113 l43 -19 -1 -72 c0 -60 -2 -69 -12 -53 -60 94 -161 203 -242 263
l-30 22 47 0 c42 1 49 -2 62 -28z m-7318 -4191 c-2 -2078 -7 -3255 -13 -3290
-7 -37 -11 1126 -12 3533 -1 2854 2 3593 12 3610 17 31 18 -133 13 -3853z
m7493 221 c-1 -1983 -5 -3581 -10 -3551 -26 174 -29 560 -29 3815 1 3372 1
3390 20 3366 20 -23 20 -57 19 -3630z m-7580 -3538 c-1 -180 -2 -186 -16 -143
-20 62 -42 186 -43 238 0 35 5 48 28 67 15 13 28 25 30 25 1 0 2 -84 1 -187z
m7669 160 l29 -28 -8 -83 c-9 -83 -33 -194 -50 -222 -5 -9 -9 60 -9 173 0 103
2 187 4 187 3 0 18 -12 34 -27z m-88 -611 c0 -49 0 -49 -51 -72 -54 -26 -129
-93 -129 -116 0 -10 -14 -14 -46 -14 l-47 0 39 26 c68 46 143 114 186 170 24
30 44 54 45 54 2 0 3 -22 3 -48z m-7316 -159 l58 -43 -41 0 c-35 0 -43 4 -55
29 -19 37 -62 73 -120 101 -45 21 -46 23 -46 67 l0 45 73 -78 c39 -43 98 -97
131 -121z"/>
<path d="M16716 16820 c-8 -40 -47 -76 -123 -112 l-63 -30 0 -1199 0 -1199 75
0 c57 0 77 4 81 15 3 8 25 24 49 35 35 17 47 19 63 9 13 -8 24 -9 37 -1 21 11
94 -7 157 -39 36 -19 115 -19 3034 -19 l2997 0 52 25 c68 32 130 46 144 32 7
-7 18 -7 36 1 22 10 33 9 60 -4 18 -8 41 -24 51 -35 14 -15 31 -19 86 -19 l68
0 0 1203 0 1202 -48 17 c-62 22 -129 80 -137 118 l-7 30 -3303 0 -3302 0 -7
-30z m109 -44 c-63 -42 -149 -132 -203 -213 -24 -35 -45 -63 -47 -63 -3 0 -5
34 -5 75 l0 75 53 26 c59 30 115 78 128 112 7 19 16 22 66 22 l58 0 -50 -34z
m6335 -6 c70 -38 178 -137 227 -211 l31 -45 5 -720 c4 -683 5 -727 27 -869 16
-109 24 -213 27 -377 l5 -228 -37 0 c-21 0 -48 9 -64 21 -16 12 -55 32 -86 45
-51 20 -61 21 -84 10 -14 -8 -42 -17 -61 -21 -19 -4 -57 -18 -84 -31 l-50 -24
-2988 0 c-2971 0 -2989 0 -3028 20 -22 11 -65 27 -96 35 -31 8 -63 20 -70 26
-11 9 -22 8 -47 -4 -17 -8 -46 -21 -64 -27 -17 -7 -39 -20 -49 -31 -12 -13
-31 -19 -61 -19 l-44 0 4 208 c3 149 10 249 27 357 22 144 24 181 29 890 l6
741 37 49 c45 62 150 163 201 194 86 53 -100 50 3172 48 l3050 -2 65 -35z
m140 25 c0 -24 74 -91 129 -117 l51 -23 -1 -80 c0 -66 -2 -77 -12 -61 -7 11
-38 54 -69 96 -62 84 -107 127 -177 172 l-45 28 62 0 c48 0 62 -3 62 -15z
m-6683 -1030 c-4 -590 -12 -768 -37 -875 -4 -19 -8 311 -9 733 l-1 768 23 42
22 42 3 -40 c2 -22 2 -323 -1 -670z m6861 -130 c-1 -712 -2 -763 -15 -675 -12
74 -16 251 -19 805 -4 709 -4 710 16 675 19 -34 19 -58 18 -805z"/>
<path d="M16530 13197 l0 -953 65 -28 c72 -31 125 -83 125 -121 l0 -25 3303 0
3304 0 12 41 c10 33 23 47 71 78 33 22 71 42 85 45 l25 6 0 955 0 955 -68 0
c-58 0 -72 -3 -88 -21 -50 -56 -168 -60 -278 -10 l-69 31 -2993 0 -2992 0 -49
-24 c-67 -33 -129 -49 -150 -37 -11 5 -25 5 -39 -1 -26 -12 -89 14 -107 44
-10 15 -25 18 -84 18 l-73 0 0 -953z m146 888 c15 -14 45 -30 68 -37 23 -6 46
-15 52 -20 13 -9 134 27 205 61 l43 21 2983 0 c2916 0 2985 0 3021 -19 21 -11
64 -27 97 -36 33 -10 67 -22 76 -28 12 -7 26 -6 50 5 19 8 48 21 66 27 17 7
39 21 49 32 11 12 30 19 56 19 l38 0 0 -193 c0 -136 -6 -234 -19 -332 -34
-240 -41 -383 -41 -784 l0 -389 -43 -58 c-68 -91 -158 -171 -234 -207 l-68
-32 -3019 -3 c-3307 -2 -3078 -6 -3184 55 -59 34 -157 131 -205 203 l-37 55 0
423 c0 427 -9 579 -45 807 -9 55 -15 161 -15 273 l0 182 39 0 c29 0 48 -7 67
-25z m-80 -656 c15 -127 33 -904 22 -954 -4 -17 -7 -15 -26 15 -22 35 -22 37
-22 559 0 288 2 522 5 519 3 -2 12 -65 21 -139z m6864 -943 l-21 -31 4 445 c3
303 8 480 18 555 13 105 14 88 17 -414 2 -513 2 -524 -18 -555z m-6845 -113
c61 -92 124 -161 192 -210 35 -25 63 -47 63 -49 0 -2 -24 -4 -53 -4 -51 0 -54
2 -70 35 -18 38 -70 80 -135 109 l-42 19 0 79 c0 43 2 78 4 78 2 0 20 -26 41
-57z m6865 -22 l0 -79 -54 -26 c-49 -24 -105 -76 -131 -120 -8 -14 -21 -17
-65 -14 l-55 3 53 34 c62 39 163 147 212 224 19 31 36 56 38 57 1 0 2 -35 2
-79z"/>
<path d="M16637 11662 l-107 -107 0 -815 0 -815 108 -108 107 -107 1460 0
1460 0 108 108 107 107 0 815 0 815 -108 108 -107 107 -1460 0 -1460 0 -108
-108z m177 10 c-91 -59 -162 -146 -204 -250 l-19 -47 0 80 -1 80 87 87 88 88
54 0 54 0 -59 -38z m2731 4 c33 -16 86 -55 117 -86 l58 -56 0 -794 0 -794 -58
-56 c-31 -31 -84 -70 -117 -86 l-60 -29 -1280 0 -1280 0 -59 29 c-33 16 -84
53 -113 81 l-53 51 0 803 0 802 50 50 c30 30 79 64 122 84 l73 35 1270 -2
1270 -3 60 -29z m187 -53 l88 -88 0 -75 0 -74 -34 70 c-40 84 -130 184 -200
225 l-51 29 55 0 55 0 87 -87z m-3062 -889 c0 -427 -4 -733 -9 -730 -5 3 -22
36 -37 73 l-29 68 -3 574 c-2 514 -1 579 14 625 18 55 51 126 59 126 3 0 5
-331 5 -736z m3131 628 c18 -52 19 -91 19 -622 0 -531 -1 -570 -19 -622 -52
-152 -50 -177 -50 622 0 799 -2 774 50 622z m-3072 -1483 c36 -36 84 -75 106
-87 l40 -21 -55 -1 -55 0 -87 87 -88 88 0 75 0 75 37 -75 c25 -52 56 -95 102
-141z m3004 -21 l-88 -88 -55 0 -55 0 48 28 c76 44 154 128 195 212 l37 75 3
-69 3 -70 -88 -88z"/>
<path d="M20247 11662 l-107 -107 0 -820 1 -820 108 -102 109 -103 1459 0
1458 0 108 108 107 107 0 815 0 815 -108 108 -107 107 -1460 0 -1460 0 -108
-108z m190 20 c-78 -45 -154 -128 -195 -214 -20 -42 -40 -77 -44 -77 -5 -1 -8
29 -8 66 l0 68 92 92 93 93 55 0 55 0 -48 -28z m2718 -7 c32 -16 83 -53 112
-82 l53 -51 0 -802 0 -802 -53 -51 c-29 -29 -80 -65 -112 -82 l-60 -30 -1285
0 -1285 0 -62 34 c-34 18 -85 57 -113 87 l-50 53 0 790 0 791 37 41 c45 50
111 96 172 120 44 17 113 18 1316 16 l1270 -2 60 -30z m187 -52 l88 -88 0 -79
0 -80 -39 80 c-47 96 -106 165 -186 216 l-60 38 55 0 55 0 87 -87z m-3072
-885 l-1 -733 -24 46 c-53 102 -55 125 -55 691 0 451 2 532 16 579 17 57 54
149 60 149 2 0 4 -330 4 -732z m3132 643 c23 -56 23 -57 23 -641 0 -584 0
-585 -23 -641 -53 -133 -51 -159 -51 641 0 800 -2 774 51 641z m-59 -1523
l-88 -88 -54 0 -54 0 59 38 c92 59 169 157 206 259 13 36 13 35 16 -42 l3 -79
-88 -88z m-3103 153 c48 -93 115 -166 191 -210 l54 -31 -55 0 -55 1 -92 89
-93 89 0 70 c0 39 2 71 4 71 3 0 24 -36 46 -79z"/>
<path d="M19002 8997 l-102 -102 0 -820 0 -820 109 -102 109 -103 894 0 893 0
103 103 102 102 0 820 0 820 -102 102 -103 103 -900 0 -900 0 -103 -103z m238
48 c0 -2 -19 -14 -42 -26 -67 -34 -158 -134 -200 -219 l-38 -75 0 75 0 75 87
87 88 88 52 0 c29 0 53 -2 53 -5z m1541 -37 c49 -24 92 -55 122 -87 l47 -50 0
-794 0 -793 -52 -52 c-30 -30 -82 -68 -121 -87 l-70 -35 -702 0 -702 0 -70 35
c-44 22 -89 55 -121 89 l-52 55 0 786 0 786 26 35 c36 46 113 102 182 130 l57
24 691 -3 690 -2 75 -37z m187 -51 l93 -93 -3 -75 -3 -74 -36 75 c-43 90 -123
181 -196 222 -29 16 -53 32 -53 34 0 2 24 4 53 4 l52 0 93 -93z m78 -301 c11
-40 14 -166 14 -586 l0 -535 -29 -84 c-16 -46 -34 -88 -40 -94 -8 -8 -11 202
-10 723 l1 735 25 -54 c14 -29 32 -77 39 -105z m-2016 -583 c-1 -792 1 -767
-51 -615 -18 52 -19 91 -19 617 0 587 0 586 44 688 9 20 18 37 21 37 3 0 5
-327 5 -727z m58 -850 c27 -28 73 -65 103 -82 l54 -31 -53 0 c-53 0 -54 1
-143 83 l-89 82 0 79 0 78 40 -79 c21 -44 61 -102 88 -130z m1885 -25 l-88
-88 -53 0 -54 0 61 41 c78 52 132 115 179 209 l37 74 3 -74 3 -74 -88 -88z"/>
<path d="M464 8562 c-121 -89 -229 -254 -259 -397 -51 -243 39 -499 230 -654
l63 -51 374 0 374 0 62 50 62 50 3114 0 3113 0 53 71 c30 40 73 86 97 102 l43
31 0 261 0 261 -45 32 c-25 17 -68 63 -96 102 l-51 70 -3115 0 -3114 0 -62 50
-62 50 -371 0 -371 0 -39 -28z m504 -91 c64 -22 176 -51 247 -66 146 -29 145
-29 196 -133 83 -171 73 -386 -26 -544 -34 -54 -38 -57 -93 -68 -113 -22 -308
-73 -371 -96 -57 -22 -79 -24 -226 -24 l-163 0 -44 36 c-137 114 -209 268
-209 449 0 167 49 283 172 408 l77 77 161 0 c161 0 162 0 279 -39z m292 -2
c28 -22 50 -43 47 -45 -6 -6 -174 44 -222 66 l-40 18 82 1 c80 1 82 1 133 -40z
m375 -54 c-59 -20 -201 -19 -209 0 -5 13 13 15 122 14 119 -1 125 -2 87 -14z
m5756 -18 c152 -67 281 -163 319 -238 16 -31 20 -59 20 -143 0 -103 -1 -105
-33 -148 -52 -68 -142 -134 -267 -196 l-115 -57 -2775 -3 -2775 -2 -57 30
c-31 17 -76 33 -101 36 l-45 6 35 75 c81 176 82 354 2 532 -16 35 -29 67 -29
70 0 4 26 12 58 19 31 7 71 21 87 32 30 20 50 20 2815 20 l2785 0 76 -33z
m213 -15 c19 -27 56 -68 81 -91 32 -30 45 -49 45 -69 l0 -27 -25 31 c-35 45
-119 106 -215 158 l-85 46 82 0 81 0 36 -48z m-6050 -70 c93 -183 93 -390 0
-573 -18 -37 -29 -47 -54 -51 -35 -5 -36 0 -10 51 80 157 80 415 0 572 -26 49
-26 49 10 49 25 0 33 -7 54 -48z m6119 -569 c-32 -32 -72 -75 -88 -96 l-30
-38 -80 3 -80 3 90 48 c101 54 187 118 219 160 l21 29 3 -25 c2 -19 -10 -39
-55 -84z m-6018 -114 c28 -13 20 -14 -99 -17 -71 -1 -130 -1 -133 1 -2 2 0 12
3 22 6 15 18 17 103 13 53 -3 110 -11 126 -19z m-390 -44 l-49 -45 -86 1 -85
1 35 15 c38 17 209 72 225 72 6 0 -12 -20 -40 -44z"/>
<path d="M8309 8393 l-109 -107 0 -182 0 -181 -100 -83 -100 -83 0 -78 0 -79
100 -82 100 -82 0 -297 0 -298 -100 -82 -100 -83 0 -78 0 -77 100 -83 99 -83
1 -298 0 -297 -100 -82 -100 -83 1 -80 0 -80 99 -80 99 -80 0 -300 0 -300 -99
-80 -100 -80 0 -80 1 -80 99 -83 100 -83 0 -297 -1 -297 -97 -80 -97 -80 -3
-80 -3 -80 101 -83 100 -83 0 -937 0 -937 103 -103 102 -102 3609 0 3608 0
109 102 109 101 0 3528 0 3527 -112 106 -113 106 -3599 0 -3599 0 -108 -107z
m217 34 c-90 -58 -112 -76 -149 -118 -23 -27 -59 -81 -79 -121 l-37 -73 -1 75
0 75 92 87 c91 86 94 87 143 87 42 0 47 -2 31 -12z m6969 -22 c33 -16 86 -55
118 -85 l57 -56 0 -3504 0 -3504 -56 -54 c-32 -31 -83 -67 -122 -85 l-67 -32
-3410 0 -3410 0 -58 28 c-32 16 -85 54 -117 84 l-60 55 0 894 0 894 128 0 127
0 64 -80 64 -80 636 2 635 3 143 175 142 175 1 117 0 116 -142 176 -142 176
-641 -1 -640 0 -63 -80 -63 -79 -124 0 -125 0 0 235 0 235 124 0 125 0 63 -80
63 -80 641 0 641 0 142 174 141 175 0 115 0 116 -141 175 -142 175 -641 0
-641 -1 -64 -79 -63 -80 -124 0 -124 0 0 235 0 235 124 0 124 0 63 -79 64 -80
641 0 641 -1 141 175 142 176 0 115 0 115 -141 175 -141 174 -642 0 -641 0
-63 -80 -63 -80 -125 0 -124 0 0 235 0 235 125 0 124 0 63 -79 63 -80 640 0
641 -1 142 176 142 176 0 117 0 116 -143 175 -143 175 -636 3 -636 2 -64 -80
-63 -80 -127 0 -128 0 0 230 0 230 125 0 124 0 67 -80 66 -80 636 0 637 0 143
177 142 178 0 115 0 115 -143 177 -142 177 -636 0 -637 1 -63 -79 -64 -80
-127 0 -128 -1 0 138 0 138 48 45 c63 61 102 87 165 109 51 19 143 19 3452 17
l3400 -2 60 -30z m192 -57 l93 -93 0 -70 -1 -70 -38 72 c-52 99 -103 158 -175
205 -33 21 -62 41 -65 43 -2 3 18 5 45 5 48 0 50 -1 141 -92z m-7347 -253 c0
-98 -1 -105 -20 -105 -16 0 -19 -5 -14 -29 5 -22 0 -35 -17 -52 l-24 -24 -3
58 c-2 33 4 82 13 112 18 63 52 145 60 145 3 0 5 -47 5 -105z m7415 -8 l25
-76 0 -3243 c0 -3506 3 -3280 -53 -3399 l-25 -54 -1 3445 c-1 3761 -5 3502 54
3327z m-6941 1 c-12 -20 -295 -358 -300 -358 -2 0 -4 10 -4 23 0 14 49 83 131
185 105 130 136 162 156 162 17 0 22 -4 17 -12z m1282 -193 c93 -113 170 -209
172 -213 1 -4 -75 -101 -169 -215 l-171 -207 -537 0 -536 0 -130 157 c-71 87
-150 181 -174 210 l-43 53 173 209 174 210 536 0 535 1 170 -205z m34 48 c141
-175 143 -178 138 -200 -2 -9 -56 48 -143 153 -179 215 -172 204 -143 204 17
-1 53 -38 148 -157z m-1550 0 c0 -5 -27 -41 -60 -81 l-60 -74 0 -109 0 -109
60 -73 c33 -41 60 -77 60 -80 0 -4 -51 -7 -113 -7 l-113 0 -12 33 c-17 47 -73
74 -118 57 -23 -9 -34 -4 -105 56 l-79 66 0 58 0 57 75 63 c71 58 78 61 114
55 53 -9 96 14 112 60 l13 35 113 0 c62 0 113 -3 113 -7z m91 -498 c171 -206
156 -185 126 -185 -22 0 -49 28 -157 161 -94 116 -130 168 -130 187 0 26 0 26
19 7 10 -11 74 -87 142 -170z m1468 -17 c-98 -122 -138 -164 -157 -166 l-25
-4 19 24 c11 13 80 97 154 186 102 124 136 158 138 143 2 -14 -39 -73 -129
-183z m-1844 15 c11 -11 15 -26 11 -45 -5 -23 -2 -28 14 -28 19 0 20 -8 20
-230 0 -227 0 -230 -21 -230 -17 0 -20 -4 -15 -24 8 -31 -1 -54 -25 -67 -18
-9 -19 0 -19 316 0 193 4 325 9 325 5 0 17 -7 26 -17z m523 -432 c-6 -16 -213
-260 -221 -260 -4 -1 -10 5 -13 13 -3 9 33 63 91 135 77 96 102 121 122 121
14 0 23 -4 21 -9z m1223 -141 l127 -151 -12 -38 c-6 -21 -19 -45 -28 -55 -23
-22 -22 -32 1 -55 10 -10 22 -37 26 -60 7 -41 7 -41 -114 -186 l-122 -145
-532 0 -533 0 -122 148 c-111 133 -122 150 -116 177 3 17 14 42 25 57 24 34
24 49 0 70 -10 8 -21 32 -25 52 -8 40 5 58 192 274 l54 62 527 0 526 0 126
-150z m54 35 c50 -63 91 -121 93 -129 9 -42 -26 -14 -114 92 -53 64 -104 125
-112 135 -14 16 -13 17 14 17 25 -1 42 -17 119 -115z m-1518 -52 c-3 -5 -30
-39 -61 -78 l-56 -70 0 -108 0 -109 60 -73 c33 -40 60 -76 60 -79 0 -3 -52 -6
-115 -6 -93 0 -115 3 -115 14 0 8 -12 29 -27 46 -24 29 -30 31 -79 28 -53 -3
-55 -2 -129 60 l-75 63 0 57 0 57 75 63 c70 59 77 62 113 56 50 -8 100 17 114
57 l10 29 115 0 c63 0 112 -3 110 -7z m7 -143 c19 -49 20 -64 4 -90 -10 -16
-10 -24 0 -40 6 -11 12 -29 12 -40 0 -21 -29 -100 -37 -100 -2 0 -15 12 -28
28 -22 25 -24 36 -25 125 0 84 3 103 21 128 11 16 24 29 29 29 4 0 15 -18 24
-40z m1686 -113 c-1 -86 -2 -94 -29 -126 l-29 -35 -15 30 c-21 42 -30 91 -18
99 6 3 11 17 11 30 0 13 -5 27 -11 30 -12 8 -3 57 18 99 l16 30 28 -32 c28
-31 29 -37 29 -125z m-1574 -264 c53 -65 104 -126 112 -135 14 -17 13 -18 -11
-18 -21 0 -39 15 -82 68 -110 133 -136 169 -129 186 3 9 7 16 9 16 2 0 47 -53
101 -117z m1494 91 c0 -8 -41 -66 -92 -129 -78 -98 -96 -115 -120 -115 -27 0
-23 7 84 134 105 126 128 146 128 110z m-1895 -64 c12 -13 15 -27 11 -45 -5
-21 -3 -25 14 -25 19 0 20 -6 20 -231 0 -224 -1 -231 -20 -236 -15 -4 -19 -11
-14 -25 6 -20 -19 -68 -36 -68 -6 0 -10 120 -10 325 0 179 4 325 8 325 5 0 17
-9 27 -20z m525 -441 c-51 -31 -79 -59 -101 -101 -11 -21 -44 -62 -75 -92 -92
-89 -75 -39 32 93 96 118 99 121 139 121 l40 0 -35 -21z m1102 -7 c56 -28 116
-92 124 -131 4 -18 18 -34 41 -47 20 -10 46 -35 59 -54 21 -32 22 -39 12 -75
-6 -22 -18 -47 -25 -56 -17 -20 -17 -58 1 -65 13 -5 31 -74 27 -104 -3 -19
-70 -88 -92 -95 -9 -3 -19 -19 -22 -35 -9 -43 -69 -104 -130 -131 l-52 -24
-480 0 -480 0 -58 28 c-60 30 -99 72 -118 126 -6 18 -24 38 -40 46 -15 8 -40
31 -54 50 -23 29 -26 40 -20 74 4 22 15 51 26 65 24 30 24 37 0 65 -11 12 -22
40 -26 62 -8 48 8 77 64 117 24 17 46 44 58 73 23 54 73 95 146 121 48 16 90
18 522 15 l470 -2 47 -23z m172 -89 c53 -65 96 -126 96 -137 0 -15 -8 -11 -35
22 -20 22 -44 44 -54 47 -11 3 -31 30 -46 61 -20 41 -40 64 -78 89 l-52 35 37
0 c35 0 42 -6 132 -117z m-1514 -47 c0 -2 -27 -37 -60 -78 l-60 -73 0 -109 0
-109 60 -73 c33 -40 60 -75 60 -78 0 -3 -52 -6 -115 -6 -98 0 -115 2 -115 16
0 8 -14 29 -30 46 -28 28 -35 30 -81 26 -49 -5 -50 -4 -124 59 l-75 64 0 52
c0 29 4 57 8 62 4 6 37 36 75 67 66 56 68 57 116 51 46 -5 52 -3 80 25 17 17
31 38 31 46 0 14 17 16 115 16 63 0 115 -2 115 -4z m4 -146 c19 -48 20 -82 4
-98 -10 -10 -10 -17 0 -32 6 -11 12 -29 12 -40 0 -21 -29 -100 -37 -100 -2 0
-15 12 -28 28 -22 25 -24 36 -25 125 0 85 3 102 22 127 12 17 25 30 29 30 4 0
14 -18 23 -40z m1686 -115 c-1 -84 -2 -92 -29 -124 l-29 -35 -15 30 c-21 42
-30 91 -18 99 6 3 11 17 11 30 0 13 -5 27 -11 30 -12 8 -3 57 19 100 l15 29
28 -34 c27 -32 29 -40 29 -125z m-100 -1 c0 -14 -21 -19 -33 -7 -9 9 13 34 24
27 5 -3 9 -12 9 -20z m-1530 1 c0 -8 -9 -15 -20 -15 -11 0 -20 7 -20 15 0 8 9
15 20 15 11 0 20 -7 20 -15z m39 -240 c9 -3 23 -20 29 -39 18 -48 49 -84 101
-117 l45 -29 -40 0 c-38 0 -42 4 -129 111 -103 127 -108 136 -100 149 3 5 22
-8 41 -30 20 -22 43 -42 53 -45z m1511 64 c0 -7 -43 -65 -96 -130 -92 -113
-98 -119 -133 -118 -32 0 -34 1 -17 12 46 28 106 92 118 124 7 20 26 43 46 55
18 11 40 31 49 44 16 25 33 32 33 13z m-1895 -59 c12 -13 15 -27 11 -45 -5
-21 -3 -25 14 -25 19 0 20 -6 20 -231 0 -222 -1 -231 -20 -236 -15 -4 -18 -11
-14 -30 6 -23 -18 -63 -38 -63 -4 0 -8 146 -8 325 0 179 4 325 8 325 5 0 17
-9 27 -20z m605 -458 c-29 -37 -34 -39 -78 -35 -26 2 -52 0 -58 -4 -5 -4 -46
-52 -89 -106 -62 -78 -80 -95 -87 -83 -11 20 -11 22 97 155 l90 111 78 0 78 0
-31 -38z m959 -14 c47 -50 49 -51 79 -39 43 18 60 6 151 -109 l78 -99 -10 -41
c-6 -22 -17 -40 -24 -40 -13 0 -33 -30 -33 -50 0 -6 11 -21 23 -33 13 -12 29
-37 35 -55 11 -33 10 -36 -67 -130 -104 -129 -104 -129 -149 -112 l-36 13 -45
-52 -46 -51 -425 0 -424 0 -52 51 c-48 47 -52 49 -77 38 -40 -18 -59 -5 -147
106 -75 92 -80 103 -75 135 4 20 16 43 31 53 13 11 24 29 24 42 0 13 -11 31
-24 42 -15 10 -27 33 -31 53 -5 32 0 43 74 134 44 55 87 103 96 108 10 6 28 5
48 -1 30 -11 33 -9 82 39 l50 50 423 0 422 0 49 -52z m236 -67 c88 -110 105
-138 89 -154 -4 -3 -45 41 -91 99 l-85 105 -49 -2 c-42 -2 -53 1 -79 26 -16
16 -30 32 -30 37 0 4 34 8 75 8 l74 0 96 -119z m-1515 -46 c0 -3 -27 -38 -60
-78 l-60 -74 0 -108 0 -108 53 -66 c29 -36 57 -72 61 -78 6 -10 -19 -13 -108
-13 -99 0 -116 2 -116 16 0 8 -14 29 -31 46 -27 28 -34 30 -78 25 -47 -6 -50
-4 -117 50 -38 31 -72 62 -76 67 -4 6 -8 34 -8 63 l0 52 75 64 c74 63 75 64
124 59 46 -4 53 -2 81 26 16 17 30 38 30 46 0 14 17 16 115 16 63 0 115 -2
115 -5z m4 -145 c19 -48 22 -87 4 -55 -6 11 -19 29 -30 41 -11 12 -16 28 -12
37 10 27 21 20 38 -23z m1633 -18 c-15 -15 -27 -33 -27 -40 0 -7 -5 -12 -11
-12 -11 0 -7 21 17 79 14 33 16 34 31 18 16 -16 15 -19 -10 -45z m-1664 -25
c29 -38 27 -120 -4 -153 -12 -13 -26 -24 -31 -24 -4 0 -8 48 -8 106 0 113 6
122 43 71z m1717 -71 c0 -51 -3 -95 -6 -99 -22 -22 -64 42 -64 98 0 56 36 113
63 98 4 -2 7 -46 7 -97z m-1626 11 c16 -25 -16 -56 -38 -37 -19 15 -20 32 -4
48 15 15 28 11 42 -11z m1540 -2 c6 -17 -21 -48 -37 -42 -6 2 -15 11 -21 21
-9 13 -7 20 7 31 21 15 43 11 51 -10z m-1599 -121 c-17 -45 -31 -55 -41 -29
-3 8 6 29 20 46 14 17 26 36 27 42 0 8 3 7 6 -1 3 -8 -2 -33 -12 -58z m1605
54 c0 -7 12 -25 27 -40 25 -26 26 -30 11 -44 -15 -15 -17 -14 -31 12 -20 41
-29 84 -17 84 5 0 10 -5 10 -12z m-1509 -192 c79 -101 111 -123 156 -105 14 5
29 6 32 2 3 -4 19 -23 35 -40 l30 -33 -80 0 -80 0 -97 121 c-87 108 -109 149
-79 149 5 0 42 -43 83 -94z m1501 53 c-7 -11 -51 -67 -98 -125 l-85 -104 -75
0 c-41 0 -74 3 -74 7 0 4 14 21 31 39 27 28 35 31 61 24 47 -14 69 2 152 105
58 71 81 94 89 86 9 -9 8 -17 -1 -32z m-1886 -44 c8 -13 13 -33 10 -43 -5 -14
-1 -21 14 -25 19 -5 20 -12 20 -236 0 -225 -1 -231 -20 -231 -17 0 -19 -4 -14
-25 6 -25 -17 -65 -38 -65 -4 0 -8 146 -8 325 0 205 4 325 10 325 5 0 17 -11
26 -25z m471 -479 c-80 -76 -126 -163 -129 -244 -1 -28 -5 -52 -8 -52 -7 0
-45 101 -44 116 1 11 170 223 189 236 5 4 21 8 34 8 21 0 16 -8 -42 -64z m518
55 c10 -17 -38 -41 -80 -41 -22 0 -72 7 -110 15 -81 17 -175 19 -224 5 -46
-13 -52 -4 -10 14 26 12 79 15 226 16 108 0 194 -4 198 -9z m199 -26 c29 -31
39 -35 82 -35 27 1 76 7 109 15 79 19 188 19 256 -1 103 -30 189 -155 189
-274 0 -27 -5 -52 -11 -56 -7 -4 -8 -21 -4 -48 16 -94 10 -168 -18 -223 -74
-144 -203 -185 -434 -139 -82 17 -97 17 -130 5 -21 -8 -42 -25 -48 -37 -9 -20
-17 -22 -85 -22 -72 0 -77 2 -97 29 -30 40 -68 44 -203 21 -99 -17 -129 -19
-185 -10 -141 23 -217 97 -246 243 -10 49 -9 63 5 96 17 36 17 41 1 87 -15 42
-16 57 -6 104 14 69 61 151 103 183 75 57 200 69 373 37 92 -17 141 -8 163 31
16 27 20 29 85 29 65 0 70 -2 101 -35z m442 13 c16 -15 14 -16 -22 -8 -57 14
-150 11 -224 -5 -113 -25 -190 -16 -190 21 0 13 27 15 210 12 180 -3 212 -5
226 -20z m170 -99 c96 -120 97 -122 85 -153 -7 -17 -18 -47 -24 -66 l-11 -35
-7 65 c-12 91 -56 176 -129 244 -33 30 -60 57 -60 60 0 4 11 6 24 6 18 0 46
-28 122 -121z m-1516 -45 c0 -3 -27 -39 -60 -79 l-60 -73 0 -109 0 -109 60
-73 c33 -41 60 -75 60 -77 0 -2 -52 -4 -115 -4 -113 0 -115 0 -121 24 -10 43
-41 61 -103 62 -54 0 -60 3 -129 59 l-72 59 0 58 0 57 75 63 c73 61 77 63 125
60 44 -3 53 0 80 26 16 17 30 38 30 46 0 14 17 16 115 16 63 0 115 -3 115 -6z
m4 -151 c9 -25 15 -47 13 -48 -1 -2 -21 -12 -44 -24 l-43 -21 0 41 c0 37 31
97 52 98 3 1 13 -20 22 -46z m1686 -55 c0 -21 -3 -38 -6 -38 -17 0 -84 45 -84
57 0 8 7 30 16 51 l15 37 29 -35 c21 -25 30 -46 30 -72z m-1626 -27 c10 -11
16 -27 14 -37 -8 -40 -62 -43 -109 -5 l-23 18 39 21 c50 26 58 27 79 3z m1566
-5 l44 -23 -43 -23 c-26 -13 -52 -19 -66 -16 -31 8 -38 43 -14 67 23 23 24 23
79 -5z m60 -75 c0 -28 -8 -49 -26 -70 -14 -17 -29 -31 -34 -31 -9 0 -30 54
-30 76 0 10 73 63 88 64 1 0 2 -18 2 -39z m-1710 9 c22 -11 40 -22 40 -25 0
-13 -33 -85 -39 -85 -18 0 -51 62 -51 95 0 19 2 35 5 35 3 0 24 -9 45 -20z
m78 -69 c4 -96 52 -184 144 -265 l53 -46 -31 0 c-27 0 -42 14 -126 118 l-96
119 21 61 c12 34 24 62 27 62 3 0 7 -22 8 -49z m1531 -12 c14 -37 19 -65 14
-72 -5 -7 -49 -60 -97 -119 -78 -97 -91 -108 -119 -108 l-32 0 35 28 c105 81
170 196 170 299 0 18 2 33 4 33 2 0 13 -27 25 -61z m-1864 -128 c3 -10 3 -26
-1 -35 -5 -12 0 -19 15 -23 l21 -5 0 -859 c0 -473 -2 -859 -5 -859 -8 0 -32
53 -54 119 -21 63 -21 78 -21 883 0 806 0 819 19 808 11 -5 22 -18 26 -29z
m949 -132 c14 -7 27 -18 30 -25 8 -20 -401 -20 -428 -1 -14 10 0 12 86 9 68
-2 123 2 163 11 74 19 117 20 149 6z m412 -5 c55 -12 109 -15 178 -12 85 4 95
3 75 -8 -34 -19 -433 -20 -427 -1 6 16 47 37 74 37 12 0 57 -7 100 -16z
m-1271 -1770 c33 -33 80 -72 105 -85 l45 -24 -48 -3 c-48 -3 -48 -3 -142 85
l-94 88 0 75 0 75 37 -75 c23 -46 59 -97 97 -136z m7292 -22 l-93 -93 -48 3
-48 3 62 40 c75 48 142 126 184 215 l31 65 3 -69 3 -70 -94 -94z"/>
<path d="M310 7035 l0 -45 -60 0 c-68 0 -77 -13 -35 -54 l25 -25 -2 -2847 -3
-2847 -23 -15 c-12 -8 -22 -23 -22 -33 0 -17 8 -19 60 -19 l60 0 0 -65 c0 -62
1 -65 24 -65 13 0 40 7 59 15 32 13 456 15 3612 15 3156 0 3580 -2 3612 -15
19 -8 46 -15 59 -15 23 0 24 3 24 65 l0 65 60 0 c69 0 78 16 35 56 l-25 23 0
2841 0 2841 25 25 c42 41 33 54 -35 54 l-60 0 0 45 c0 43 -2 45 -27 45 -16 0
-37 -7 -47 -15 -17 -13 -470 -15 -3621 -15 -3151 0 -3604 2 -3621 15 -10 8
-31 15 -46 15 -26 0 -28 -2 -28 -45z m7330 -717 c0 -676 0 -3943 0 -4806 l0
-432 -3637 2 -3638 3 -3 2963 -2 2962 3640 0 3640 0 0 -692z m-7330 -2264 c0
-2647 -1 -2785 -17 -2782 -17 3 -18 145 -21 2786 -2 2777 -2 2782 18 2782 20
0 20 -6 20 -2786z m7428 4 c-3 -2641 -4 -2783 -20 -2786 -17 -3 -18 135 -18
2782 0 2780 0 2786 20 2786 20 0 20 -5 18 -2782z"/>
<path d="M18987 5942 l-107 -107 0 -810 0 -810 108 -108 107 -107 895 0 895 0
108 108 107 107 0 817 0 816 -106 101 -106 101 -897 0 -896 0 -108 -108z m199
29 c-91 -54 -171 -145 -220 -252 l-24 -54 -1 75 -1 75 92 92 93 93 55 0 55 0
-49 -29z m1575 -8 c37 -18 89 -56 117 -84 l52 -52 0 -800 0 -801 -54 -52 c-29
-28 -82 -66 -119 -83 l-66 -31 -708 2 -708 3 -60 29 c-33 17 -84 53 -112 82
l-53 53 0 796 0 796 45 48 c43 46 135 103 194 121 14 5 337 8 716 7 l690 -2
66 -32z m189 -49 l90 -87 0 -81 0 -80 -34 69 c-45 94 -101 162 -172 210 -32
22 -63 43 -68 47 -6 4 14 8 42 8 53 0 53 0 142 -86z m-1930 -891 c-1 -735 -1
-738 -20 -703 -11 19 -29 64 -40 99 -19 60 -20 88 -20 605 0 356 4 555 11 581
11 42 59 155 65 155 2 0 4 -332 4 -737z m1992 648 c23 -55 23 -61 26 -627 l3
-571 -32 -87 c-17 -47 -35 -89 -40 -92 -5 -3 -9 295 -9 733 1 803 -1 777 52
644z m-1949 -1488 c23 -25 68 -64 101 -85 l59 -38 -54 0 -54 0 -87 87 -88 88
0 75 1 75 40 -77 c23 -43 60 -99 82 -125z m1890 -35 l-88 -88 -55 0 -55 0 51
29 c70 40 158 139 196 220 l33 69 3 -71 3 -71 -88 -88z"/>
</g>
</svg>
