<?xml version="1.0" encoding="utf-8"?>
<svg width="82.743164px" height="406px" viewBox="0 0 82.743164 406" version="1.1" xmlns:xlink="http://www.w3.org/1999/xlink" xmlns="http://www.w3.org/2000/svg">
  <path d="M15.9668 2.14032C22.6897 2.14032 28.2813 1.47333 31.3518 0.311493C32.5154 -0.14035 33.2913 -0.0973206 33.2913 0.419067C33.2913 0.935455 32.0305 1.38727 29.5095 1.81757L27.6348 2.1188L29.5742 2.05426C30.9963 2.01123 32.1277 1.79608 33.873 1.21512C38.6565 -0.333984 43.9895 -0.355499 48.7732 1.19363C50.5833 1.77454 51.7468 2.01123 53.1689 2.07574L55.1082 2.14032L52.7163 1.70999C50.0659 1.23663 49.4519 0.978455 49.4519 0.397552C49.4519 -0.161865 50.1306 -0.118835 52.1345 0.548157C55.0759 1.55939 60.4412 2.14032 66.647 2.14032L72.0447 2.14032L72.9172 2.89337C73.6606 3.53882 73.9517 3.64642 75.1152 3.64642C76.2463 3.64642 76.5374 3.754 77.0867 4.29187C77.7332 4.95886 80.6421 6.57254 82.032 7.06741C82.646 7.28256 82.7432 7.49771 82.7432 8.50894L82.7432 9.71381L80.9006 8.595C77.8948 6.76617 74.5657 5.38916 70.1377 4.16278L68.3599 3.66791L70.4285 3.64642C72.4648 3.64642 72.4971 3.64642 71.9153 3.21609C71.366 2.80728 70.9133 2.7858 62.1218 2.7858C52.9426 2.7858 52.9104 2.7858 53.4922 3.21609C54.0415 3.62491 54.4941 3.64642 59.9241 3.64642C65.7097 3.64642 65.8066 3.66791 68.8447 4.35641C73.499 5.43219 76.9897 6.83072 81.0623 9.28351C82.4844 10.1226 82.7432 10.3808 82.7432 11.0478L82.7432 11.8008L80.2544 10.1226C78.7676 9.1329 76.8606 8.12164 75.6323 7.66983C72.0122 6.33588 70.8486 6.2283 60.0535 6.2283C52.9749 6.2283 50.2275 6.16373 49.7751 5.97009C49.2581 5.75494 49.0317 5.75494 48.6438 6.03464C48.353 6.20679 48.2236 6.50797 48.3206 6.68011C48.45 6.93829 49.4197 6.98132 54.074 6.91678L59.6331 6.85223L58.8252 7.30408C53.8152 10.0366 48.0945 11.3921 41.3716 11.3921C35.2627 11.3921 30.0591 10.2947 25.2754 8.01407C25.2327 7.99368 25.1907 7.97366 25.1492 7.95395C24.1648 7.48499 23.5767 7.20486 23.6428 7.04541C23.7415 6.80887 25.2798 6.83783 29.1001 6.9097C29.2234 6.91202 29.3491 6.91437 29.4773 6.91678C34.4871 7.00284 35.0042 6.91678 34.0991 6.09921C33.7437 5.75494 33.5498 5.75494 32.8386 5.97009C32.2246 6.14221 29.2188 6.2283 22.5281 6.2283C12.0559 6.2283 10.8276 6.33588 7.30469 7.58377C6.14111 7.97104 4.2019 9.00381 2.65039 10.015L0 11.7578L0 10.9402C0 10.2087 0.193848 10.015 2.1333 8.93927C6.04419 6.70163 9.56714 5.32462 13.8982 4.27036C15.7729 3.81851 16.6455 3.754 22.3665 3.68942C28.1196 3.62491 28.7661 3.58185 29.2832 3.19458C29.8328 2.7858 29.7034 2.7858 20.4919 2.7858C11.5063 2.7858 11.1187 2.80728 10.7307 3.21609C10.3428 3.62491 10.4075 3.64642 12.3469 3.66791L14.3831 3.66791L13.2517 3.94763C9.50244 4.8728 4.49268 6.91678 1.71313 8.65955L0 9.73532L0 8.53046C0 7.34711 0 7.34711 1.58374 6.68011C2.45654 6.31436 3.91089 5.47525 4.81592 4.82977C6.30273 3.797 6.6582 3.64642 7.72485 3.64642C8.75903 3.64642 9.11475 3.51733 9.82568 2.89337L10.6985 2.14032L15.9668 2.14032L15.9668 2.14032ZM50.8418 2.54913C50.2275 1.98969 46.2197 0.892395 43.9573 0.655731C41.5654 0.397552 40.9189 0.397552 38.5596 0.655731C36.3293 0.91391 33.7437 1.60242 32.1599 2.37698C31.4487 2.74274 30.5762 3.15155 30.2205 3.32367C29.6711 3.60336 29.6387 3.62491 30.1235 3.64642C30.4468 3.64642 31.5781 3.25912 32.6448 2.80728C35.6829 1.49484 37.4282 1.17212 41.3716 1.17212C45.3147 1.17212 47.0601 1.49484 50.1306 2.80728C51.1973 3.28064 52.3608 3.62491 52.6516 3.58185C53.0073 3.51733 52.9102 3.43124 52.1992 3.19458C51.6821 3.04398 51.0679 2.74274 50.8418 2.54913L50.8418 2.54913ZM14.6418 7.23953C12.9934 7.21802 11.9268 7.13196 12.2178 7.0459C12.5085 6.95984 14.7388 6.89529 17.1306 6.89529L21.5264 6.87378L22.6252 7.51926C23.4333 7.99258 23.5625 8.14322 23.1101 8.07864C20.2981 7.58377 17.1628 7.28259 14.6418 7.23953L14.6418 7.23953ZM59.9241 7.54077C59.1482 8.10016 59.116 8.18622 59.6331 8.07864C61.8958 7.64835 65.5479 7.28259 68.1338 7.23953C72.5293 7.17502 70.3962 6.91681 65.2571 6.89529L60.8936 6.87378L59.9241 7.54077L59.9241 7.54077ZM1.93921 11.93C2.42407 10.4884 6.10864 8.48749 9.27637 7.94958C9.95508 7.84201 12.5408 7.77744 15.0295 7.8205C20.3948 7.92807 23.9827 8.48749 27.7964 9.84296C29.1216 10.3163 31.4487 10.9833 32.968 11.306C35.5537 11.8869 36.0708 11.9085 41.3716 11.9085C46.9309 11.93 47.0601 11.9085 50.0984 11.2199C51.7791 10.8327 54.074 10.1657 55.1729 9.7569C56.2717 9.34811 58.5989 8.76715 60.3442 8.44443C63.1563 7.90652 64.0613 7.84201 68.5215 7.84201C73.3052 7.84201 73.5959 7.86353 75.3091 8.42291C76.2788 8.74564 77.8625 9.47717 78.832 10.0366C80.2219 10.8757 80.6099 11.2415 80.8362 12.0376C81.2239 13.393 81.1917 15.2649 80.7715 16.5343C80.4482 17.524 80.5452 17.8898 81.5796 20.3856L82.7432 23.1611L82.7432 382.86L81.6118 385.636C80.5774 388.131 80.4805 388.54 80.8037 389.465C81.1917 390.756 81.2239 392.886 80.8037 394.048C80.4805 395.059 77.5715 396.996 75.4707 397.62C70.4609 399.083 61.7664 398.459 54.5264 396.114C49.2903 394.414 46.9954 394.048 41.21 394.07C36.9111 394.091 36.0386 394.156 33.4851 394.672C31.9336 394.973 29.3801 395.662 27.8289 396.2C21.4939 398.351 12.8962 399.04 7.88647 397.792C6.6582 397.469 5.39771 396.91 3.97559 396.006L1.84229 394.672L1.68066 392.607C1.58374 391.402 1.68066 390.111 1.90698 389.508C2.26245 388.54 2.19775 388.239 1.13135 385.765L0 383.075L0 23.1181L1.13135 20.3641C2.10083 18.0189 2.23022 17.481 1.93921 16.7065C1.55151 15.5661 1.55151 13.0488 1.93921 11.93L1.93921 11.93ZM81.4507 16.3837C81.6768 15.7813 81.7737 14.5979 81.7092 13.7588C81.6121 12.3172 81.6445 12.2742 82.1938 12.64C82.7112 12.9842 82.7434 13.4361 82.6787 17.1152L82.5818 21.1817L81.8384 19.3529C81.1919 17.7392 81.1597 17.3734 81.4507 16.3837L81.4507 16.3837ZM0.420166 12.683C0.12915 12.9842 -0.000244141 14.2536 0.0322266 17.1367L0.0644531 21.1816L0.840332 19.3528C1.2605 18.3416 1.51904 17.3734 1.42212 17.2013C1.29272 17.0291 1.1311 15.8458 1.00195 14.5548C0.840332 12.5754 0.743164 12.2957 0.420166 12.683L0.420166 12.683ZM81.8376 386.711C81.2236 388.282 81.1589 388.669 81.4822 389.637C81.676 390.261 81.7729 391.466 81.7085 392.348C81.6113 393.919 81.6113 393.941 82.1609 393.467C82.6458 393.037 82.7427 392.434 82.7427 388.927C82.7427 386.711 82.7104 384.904 82.6458 384.904C82.5811 384.904 82.2256 385.722 81.8376 386.711L81.8376 386.711ZM0.484863 393.424C0.0969238 393.08 0 392.176 0 389.013C0 386.84 0.0646973 385.098 0.129395 385.141C0.193848 385.184 0.549561 385.98 0.937256 386.905C1.48682 388.26 1.55151 388.755 1.29297 389.379C1.13135 389.831 0.969727 390.993 0.969727 392.004C0.937256 393.661 0.905029 393.79 0.484863 393.424L0.484863 393.424ZM0 394.973C0 395.791 0.161621 395.941 2.10083 397.103C4.84814 398.739 9.40552 400.632 12.7024 401.514L15.3528 402.224L22.0432 402.289C28.1521 402.353 28.7661 402.396 29.2832 402.783C29.8328 403.192 29.7034 403.192 20.4272 403.192C11.3447 403.192 10.9893 403.171 10.666 402.762C10.3428 402.353 10.4075 402.332 12.1853 402.31L14.0598 402.31L12.9287 402.03C9.50244 401.191 5.10669 399.405 1.87476 397.555L0 396.479L0 398.631L2.0686 399.621C3.19971 400.159 4.6543 400.998 5.26831 401.471C6.20581 402.203 6.56128 402.332 7.62793 402.332C8.69458 402.353 9.01758 402.461 9.69653 403.085L10.5044 403.816L15.2559 403.838C20.8149 403.838 26.5037 404.397 29.5095 405.258C30.6084 405.559 31.9336 405.86 32.4185 405.925C33.2266 406.032 33.3235 405.989 33.2266 405.559C33.1296 405.064 32.5154 404.849 29.251 404.182L27.6348 403.838L29.4448 403.924C30.6409 403.988 31.9336 404.246 33.2266 404.677C38.4626 406.441 44.5391 406.441 49.4519 404.677C50.6802 404.225 51.8438 404.01 53.1689 403.945L55.1082 403.838L53.4922 404.182C50.0984 404.87 49.6135 405.021 49.5166 405.516C49.4197 405.903 49.5813 405.989 50.2275 405.989C50.6802 405.989 51.1326 405.903 51.2295 405.774C51.5205 405.451 56.1101 404.569 59.4392 404.182C61.314 403.967 64.3845 403.838 67.3579 403.838L72.2385 403.838L73.0142 403.085C73.6606 402.439 73.9517 402.332 75.0828 402.332C76.1819 402.332 76.5374 402.203 77.4746 401.471C78.0889 400.998 79.5432 400.159 80.6746 399.621C82.7432 398.631 82.7432 398.631 82.7432 397.577L82.7432 396.522L80.0281 397.964C76.7959 399.707 74.6304 400.61 71.2366 401.579L68.6831 402.332L70.5579 402.332C72.3354 402.332 72.4001 402.353 72.0122 402.762C71.6245 403.171 71.2366 403.192 62.2512 403.192C53.0396 403.192 52.9104 403.192 53.4597 402.783C53.9768 402.396 54.5911 402.353 60.6997 402.289L67.3904 402.224L70.4932 401.342C73.9839 400.374 78.0564 398.631 80.9006 396.953C82.5168 395.984 82.7432 395.748 82.7432 395.038L82.7432 394.242L79.9312 396.114C76.699 398.201 74.2424 399.147 70.6226 399.621C67.261 400.094 48.5469 400.202 48.3206 399.771C48.2236 399.599 48.353 399.298 48.6438 399.126C49.0317 398.846 49.2581 398.846 49.7751 399.061C50.1953 399.233 51.9407 399.319 54.9788 399.319C60.1826 399.319 60.1826 399.298 56.8857 397.813C49.7427 394.586 40.6604 393.747 32.677 395.554C29.6064 396.243 26.342 397.426 24.5645 398.459L23.1099 399.298L27.5378 399.319C30.3499 399.319 32.2891 399.233 32.8386 399.061C33.5498 398.846 33.7437 398.846 34.0991 399.19C35.0366 400.051 34.6809 400.072 24.3057 400.008C13.3489 399.922 11.1833 399.75 7.9187 398.674C5.62402 397.921 2.68262 396.35 1.13135 395.038L0 394.091L0 394.973L0 394.973ZM13.9307 398.911C16.1284 398.889 21.6233 398.33 22.7869 398.007C24.0149 397.684 24.0149 397.813 22.7544 398.566L21.4939 399.298L18.1001 399.298C16.2256 399.298 14.0601 399.212 13.252 399.126C11.7974 398.954 11.8298 398.932 13.9307 398.911L13.9307 398.911ZM59.9565 398.523L61.2495 399.298L64.6431 399.298C66.5178 399.298 68.6187 399.212 69.3298 399.126C70.4287 398.997 70.1702 398.954 67.552 398.846C64.7402 398.717 60.8938 398.287 59.3101 397.899C58.9224 397.813 59.2131 398.072 59.9565 398.523L59.9565 398.523ZM32.1597 403.063C37.1694 405.624 45.1206 405.624 50.4211 403.106C52.1021 402.31 53.4595 402.03 52.6838 402.654C52.4575 402.826 52.0696 402.977 51.811 402.977C51.5847 402.977 51.2939 403.106 51.197 403.278C50.9385 403.73 47.5769 404.849 45.4114 405.236C42.9873 405.645 39.7876 405.645 37.3958 405.236C35.1008 404.849 31.8364 403.752 31.5779 403.3C31.4485 403.128 31.1577 402.977 30.9314 402.977C30.6729 402.977 30.2849 402.826 30.0586 402.654C29.283 402.03 30.6404 402.289 32.1597 403.063L32.1597 403.063Z" id="Back-2" fill="#000000" fill-rule="evenodd" stroke="none" />
</svg>