<?xml version="1.0" encoding="utf-8"?>
<svg width="82.743164px" height="609.906px" viewBox="0 0 82.743164 609.906" version="1.1" xmlns:xlink="http://www.w3.org/1999/xlink" xmlns="http://www.w3.org/2000/svg">
  <path d="M15.9668 3.21524C22.6895 3.21524 28.2813 2.21329 31.3521 0.467926C32.5156 -0.210831 33.291 -0.146194 33.291 0.629532C33.291 1.40524 32.0308 2.084 29.5098 2.73042L27.6348 3.18294L29.5742 3.08595C30.9961 3.02133 32.1274 2.6981 33.873 1.82541C38.6567 -0.501724 43.9897 -0.534042 48.7729 1.79309C50.583 2.66576 51.7466 3.02133 53.1689 3.11827L55.1084 3.21524L52.7163 2.56882C50.0659 1.85773 49.4517 1.46988 49.4517 0.597214C49.4517 -0.243179 50.1309 -0.178513 52.1348 0.823441C55.0757 2.34254 60.4414 3.21524 66.647 3.21524L72.0444 3.21524L72.9175 4.3465C73.6606 5.31615 73.9517 5.47775 75.1152 5.47775C76.2466 5.47775 76.5371 5.63936 77.0869 6.4474C77.7334 7.44936 80.6421 9.87347 82.0317 10.6169C82.646 10.9401 82.7432 11.2633 82.7432 12.7824L82.7432 14.5924L80.9009 12.9117C77.895 10.1644 74.5659 8.09578 70.1377 6.25348L68.3599 5.51007L70.4287 5.47775C72.4648 5.47775 72.4971 5.47775 71.9155 4.83131C71.3657 4.21721 70.9136 4.18489 62.1221 4.18489C52.9424 4.18489 52.9102 4.18489 53.4922 4.83131C54.0415 5.44543 54.4941 5.47775 59.9238 5.47775C65.7095 5.47775 65.8066 5.51007 68.8447 6.54434C73.499 8.16042 76.9897 10.2613 81.0625 13.946C82.4844 15.2065 82.7432 15.5944 82.7432 16.5964L82.7432 17.7276L80.2544 15.2065C78.7676 13.7197 76.8604 12.2006 75.6323 11.5219C72.0122 9.51794 70.8486 9.35634 60.0532 9.35634C52.9751 9.35634 50.2275 9.25935 49.7749 8.96844C49.2578 8.64523 49.0317 8.64523 48.644 9.06543C48.353 9.32402 48.2236 9.77649 48.3208 10.0351C48.4497 10.4229 49.4194 10.4876 54.0737 10.3906L59.6333 10.2937L58.8252 10.9724C53.8154 15.0772 48.0942 17.1135 41.3716 17.1135C35.2627 17.1135 30.0591 15.4651 25.2754 12.039C25.2324 12.0084 25.1904 11.9783 25.1494 11.9487C24.1646 11.2442 23.5767 10.8234 23.6431 10.5838C23.7412 10.2285 25.2798 10.272 29.1001 10.38C29.2236 10.3834 29.3491 10.387 29.4771 10.3906C34.4868 10.5199 35.0044 10.3906 34.0991 9.16241C33.7437 8.64523 33.5498 8.64523 32.8389 8.96844C32.2246 9.22704 29.2188 9.35634 22.5283 9.35634C12.0562 9.35634 10.8276 9.51794 7.30469 11.3926C6.14111 11.9744 4.20166 13.5258 2.65039 15.0449L0 17.6629L0 16.4348C0 15.3358 0.193848 15.0449 2.1333 13.4288C6.04395 10.0674 9.56738 7.99881 13.8984 6.41508C15.7729 5.7363 16.6455 5.63936 22.3667 5.54237C28.1196 5.44543 28.7661 5.38077 29.2832 4.79901C29.8325 4.18489 29.7036 4.18489 20.4917 4.18489C11.5063 4.18489 11.1187 4.21721 10.731 4.83131C10.3428 5.44543 10.4077 5.47775 12.3467 5.51007L14.3833 5.51007L13.252 5.93027C9.50244 7.32007 4.49268 10.3906 1.71289 13.0086L0 14.6247L0 12.8147C0 11.037 0 11.037 1.58398 10.0351C2.45654 9.48563 3.91113 8.22508 4.81592 7.25543C6.30273 5.70398 6.6582 5.47775 7.72461 5.47775C8.75928 5.47775 9.11475 5.28383 9.82568 4.3465L10.6982 3.21524L15.9668 3.21524L15.9668 3.21524ZM50.8418 3.82938C50.2275 2.98898 46.2197 1.34059 43.957 0.985062C41.5654 0.597229 40.9189 0.597229 38.5596 0.985062C36.3291 1.37291 33.7437 2.40723 32.1597 3.57079C31.4487 4.12024 30.5762 4.73434 30.2207 4.99294C29.6709 5.4131 29.6387 5.44545 30.1235 5.47777C30.4468 5.47777 31.5781 4.89597 32.6445 4.21721C35.6831 2.24561 37.4282 1.76079 41.3716 1.76079C45.3149 1.76079 47.0601 2.24561 50.1304 4.21721C51.1973 4.92827 52.3608 5.44545 52.6519 5.38078C53.0073 5.28384 52.9102 5.15454 52.1992 4.79901C51.6821 4.57274 51.0679 4.12024 50.8418 3.82938L50.8418 3.82938ZM14.6416 10.8754C12.9932 10.8431 11.9268 10.7138 12.2178 10.5845C12.5088 10.4553 14.7388 10.3583 17.1304 10.3583L21.5264 10.326L22.625 11.2956C23.4331 12.0067 23.5625 12.233 23.1099 12.136C20.2979 11.3926 17.1631 10.9401 14.6416 10.8754L14.6416 10.8754ZM59.9238 11.3279C59.1484 12.1683 59.1162 12.2976 59.6333 12.136C61.8955 11.4895 65.5479 10.9401 68.1338 10.8754C72.5293 10.7785 70.396 10.3906 65.2568 10.3583L60.8936 10.326L59.9238 11.3279L59.9238 11.3279ZM1.93945 17.9216C2.42432 15.756 6.10889 12.7501 9.27637 11.9421C9.95508 11.7805 12.5405 11.6835 15.0293 11.7482C20.395 11.9098 23.9824 12.7501 27.7964 14.7863C29.1216 15.4975 31.4487 16.4994 32.9678 16.9842C35.5537 17.8569 36.0708 17.8893 41.3716 17.8893C46.9307 17.9216 47.0601 17.8893 50.0981 16.8549C51.7788 16.2732 54.0737 15.2712 55.1729 14.6571C56.272 14.043 58.5991 13.1703 60.3442 12.6855C63.1563 11.8774 64.061 11.7805 68.5215 11.7805C73.3052 11.7805 73.5962 11.8128 75.3091 12.6531C76.2788 13.138 77.8623 14.2369 78.832 15.0773C80.2222 16.3378 80.6099 16.8873 80.8359 18.0832C81.2241 20.1194 81.1914 22.9314 80.7715 24.8384C80.4482 26.3251 80.5454 26.8746 81.5796 30.6239L82.7432 34.7934L82.7432 575.144L81.6118 579.314C80.5776 583.063 80.4805 583.677 80.8037 585.067C81.1914 587.006 81.2241 590.206 80.8037 591.951C80.4805 593.471 77.5718 596.379 75.4707 597.317C70.4609 599.515 61.7666 598.577 54.5264 595.054C49.2905 592.501 46.9956 591.951 41.21 591.984C36.9111 592.016 36.0386 592.113 33.4849 592.889C31.9336 593.341 29.3804 594.376 27.8286 595.184C21.4937 598.416 12.8965 599.45 7.88623 597.575C6.6582 597.091 5.39746 596.25 3.97559 594.893L1.84229 592.889L1.68066 589.786C1.58398 587.976 1.68066 586.037 1.90674 585.132C2.2627 583.677 2.19775 583.225 1.13135 579.508L0 575.467L0 34.7287L1.13135 30.5916C2.10107 27.0685 2.22998 26.2605 1.93945 25.0969C1.55127 23.3839 1.55127 19.6023 1.93945 17.9216L1.93945 17.9216ZM81.4507 24.6121C81.6768 23.7071 81.7739 21.9294 81.709 20.6689C81.6123 18.5033 81.6445 18.4387 82.1938 18.9881C82.7109 19.5053 82.7437 20.1841 82.6787 25.711L82.582 31.8198L81.8384 29.0725C81.1919 26.6484 81.1597 26.0989 81.4507 24.6121L81.4507 24.6121ZM0.419922 19.0527C0.129395 19.5052 0 21.4122 0.0322266 25.7433L0.0644531 31.8197L0.840332 29.0724C1.26025 27.5533 1.51904 26.0988 1.42188 25.8403C1.29297 25.5817 1.13135 23.804 1.00195 21.8647C0.840332 18.8911 0.743164 18.4709 0.419922 19.0527L0.419922 19.0527ZM81.8379 580.93C81.2236 583.289 81.1587 583.871 81.4819 585.326C81.6763 586.263 81.7729 588.073 81.7085 589.398C81.6113 591.758 81.6113 591.79 82.1611 591.079C82.6455 590.432 82.7427 589.527 82.7427 584.259C82.7427 580.93 82.7104 578.215 82.6455 578.215C82.5811 578.215 82.2256 579.443 81.8379 580.93L81.8379 580.93ZM0.484863 591.014C0.097168 590.497 0 589.139 0 584.388C0 581.124 0.0644531 578.506 0.129395 578.57C0.193848 578.635 0.549316 579.831 0.9375 581.221C1.48682 583.257 1.55127 584 1.29297 584.938C1.13135 585.616 0.969727 587.362 0.969727 588.881C0.9375 591.37 0.904785 591.564 0.484863 591.014L0.484863 591.014ZM0 593.341C0 594.569 0.161621 594.796 2.10107 596.541C4.84814 598.997 9.40576 601.842 12.7021 603.167L15.3525 604.234L22.0435 604.331C28.1519 604.427 28.7661 604.492 29.2832 605.074C29.8325 605.688 29.7036 605.688 20.4272 605.688C11.3447 605.688 10.9893 605.656 10.666 605.042C10.3428 604.427 10.4077 604.395 12.1851 604.363L14.0601 604.363L12.9287 603.943C9.50244 602.682 5.10693 599.999 1.87451 597.22L0 595.604L0 598.836L2.06836 600.323C3.19971 601.131 4.6543 602.391 5.26855 603.102C6.20557 604.201 6.56104 604.395 7.62793 604.395C8.69434 604.427 9.01758 604.589 9.69629 605.526L10.5044 606.625L15.2559 606.658C20.8149 606.658 26.5034 607.498 29.5098 608.791C30.6084 609.243 31.9336 609.696 32.4185 609.793C33.2266 609.954 33.3232 609.89 33.2266 609.243C33.1294 608.5 32.5156 608.177 29.251 607.175L27.6348 606.658L29.4448 606.787C30.6406 606.884 31.9336 607.272 33.2266 607.918C38.4624 610.569 44.5391 610.569 49.4517 607.918C50.6802 607.24 51.8438 606.916 53.1689 606.819L55.1084 606.658L53.4922 607.175C50.0981 608.209 49.6133 608.435 49.5166 609.179C49.4194 609.761 49.5811 609.89 50.2275 609.89C50.6802 609.89 51.1328 609.761 51.2295 609.567C51.5205 609.082 56.1104 607.757 59.4395 607.175C61.314 606.852 64.3843 606.658 67.3579 606.658L72.2388 606.658L73.0142 605.526C73.6606 604.557 73.9517 604.395 75.083 604.395C76.1816 604.395 76.5371 604.201 77.4746 603.102C78.0889 602.391 79.5435 601.131 80.6743 600.323C82.7432 598.836 82.7432 598.836 82.7432 597.252L82.7432 595.668L80.0278 597.834C76.7959 600.452 74.6304 601.809 71.2368 603.264L68.6831 604.395L70.5576 604.395C72.3354 604.395 72.4004 604.427 72.0122 605.042C71.6245 605.656 71.2368 605.688 62.251 605.688C53.0396 605.688 52.9102 605.688 53.46 605.074C53.9771 604.492 54.5908 604.427 60.6997 604.331L67.3901 604.234L70.4932 602.908C73.9839 601.454 78.0566 598.836 80.9009 596.315C82.5166 594.86 82.7432 594.505 82.7432 593.438L82.7432 592.242L79.9312 595.054C76.6987 598.189 74.2427 599.612 70.6226 600.323C67.2612 601.034 48.5469 601.195 48.3208 600.549C48.2236 600.29 48.353 599.838 48.644 599.579C49.0317 599.159 49.2578 599.159 49.7749 599.482C50.1953 599.741 51.9404 599.87 54.979 599.87C60.1826 599.87 60.1826 599.838 56.8857 597.608C49.7427 592.759 40.6606 591.499 32.6772 594.214C29.6064 595.248 26.3418 597.026 24.5645 598.577L23.1099 599.838L27.5381 599.87C30.3501 599.87 32.2891 599.741 32.8389 599.482C33.5498 599.159 33.7437 599.159 34.0991 599.676C35.0366 600.969 34.6812 601.001 24.3057 600.904C13.3486 600.775 11.1831 600.517 7.91895 598.901C5.62402 597.769 2.68262 595.41 1.13135 593.438L0 592.016L0 593.341L0 593.341ZM13.9307 599.256C16.1284 599.224 21.623 598.383 22.7866 597.899C24.0151 597.414 24.0151 597.608 22.7544 598.739L21.4941 599.838L18.1001 599.838C16.2256 599.838 14.0601 599.709 13.252 599.579C11.7974 599.321 11.8296 599.288 13.9307 599.256L13.9307 599.256ZM59.9565 598.674L61.2495 599.838L64.6431 599.838C66.5176 599.838 68.6187 599.709 69.3296 599.579C70.4287 599.385 70.1699 599.321 67.5522 599.159C64.7402 598.965 60.894 598.319 59.3101 597.737C58.9224 597.608 59.2134 597.996 59.9565 598.674L59.9565 598.674ZM32.1597 605.494C37.1694 609.34 45.1206 609.34 50.4214 605.559C52.1021 604.363 53.4595 603.943 52.6836 604.88C52.4575 605.139 52.0698 605.365 51.811 605.365C51.585 605.365 51.2939 605.559 51.1968 605.817C50.9385 606.496 47.5771 608.177 45.4116 608.759C42.9873 609.373 39.7876 609.373 37.3955 608.759C35.1011 608.177 31.8364 606.528 31.5776 605.85C31.4487 605.591 31.1577 605.365 30.9312 605.365C30.6729 605.365 30.2852 605.139 30.0586 604.88C29.2832 603.943 30.6406 604.331 32.1597 605.494L32.1597 605.494Z" id="Back" fill="#000000" fill-rule="evenodd" stroke="none" />
</svg>