<?xml version="1.0" standalone="no"?>
<!DOCTYPE svg PUBLIC "-//W3C//DTD SVG 20010904//EN"
 "http://www.w3.org/TR/2001/REC-SVG-20010904/DTD/svg10.dtd">
<svg version="1.0" xmlns="http://www.w3.org/2000/svg"
 width="285.000000pt" height="1926.000000pt" viewBox="0 0 285.000000 1926.000000"
 preserveAspectRatio="xMidYMid meet">

<g transform="translate(0.000000,1926.000000) scale(0.100000,-0.100000)"
fill="#000000" stroke="none">
<path d="M600 18394 c0 -36 -58 -89 -122 -111 l-50 -18 6 -65 c3 -36 11 -83
18 -105 12 -39 12 -40 15 -10 14 144 8 131 75 167 56 30 108 81 108 106 0 9
205 12 815 12 l814 0 16 -29 c17 -34 60 -69 121 -100 l42 -20 8 -83 7 -83 14
44 c7 25 16 72 19 105 l6 61 -51 18 c-63 22 -121 75 -121 111 l0 26 -870 0
-870 0 0 -26z"/>
<path d="M2491 18027 c-13 -56 -35 -131 -48 -167 -29 -79 -31 -138 -6 -189 17
-34 18 -49 10 -117 -9 -82 0 -957 11 -1099 l7 -80 23 42 c18 34 22 59 23 130
1 83 1 86 14 58 19 -40 18 -103 0 -155 -34 -96 -164 -239 -265 -290 -22 -11
-83 -53 -137 -94 -87 -65 -104 -74 -151 -78 l-53 -5 42 43 c39 40 48 44 91 44
39 0 54 5 80 30 l33 29 -28 1 c-27 0 -28 2 -22 33 14 70 13 69 43 47 15 -11
43 -22 62 -25 l35 -6 -38 21 c-40 22 -82 78 -93 125 -8 37 -40 101 -54 110 -5
3 -2 -11 7 -32 24 -55 25 -216 1 -240 -24 -24 -29 -14 -17 33 39 138 -46 296
-212 396 -152 92 -395 123 -584 74 -162 -43 -311 -151 -363 -265 -30 -64 -40
-163 -23 -212 13 -38 7 -49 -16 -27 -27 27 -29 150 -5 223 l20 60 -23 -29
c-13 -16 -29 -50 -35 -75 -17 -64 -54 -117 -97 -141 l-38 -21 33 5 c19 3 46
15 62 26 l28 20 11 -45 c14 -57 15 -55 -14 -55 -34 0 -31 -11 8 -37 22 -15 48
-23 77 -23 38 0 48 -5 82 -42 21 -23 38 -42 38 -43 0 0 -24 2 -53 5 -43 4 -63
14 -103 46 -50 42 -87 67 -211 148 -142 92 -243 237 -243 345 1 31 7 67 15 81
14 23 15 18 14 -66 -1 -87 12 -141 39 -158 13 -8 21 182 28 644 4 252 2 452
-4 510 -9 85 -8 99 9 132 24 48 24 109 -1 175 -11 28 -33 102 -49 164 -33 129
-34 129 -52 -79 -9 -105 -9 -146 1 -193 7 -33 17 -62 21 -65 4 -2 16 7 25 21
14 21 15 32 6 63 -6 20 -8 50 -5 66 l6 28 13 -32 c36 -84 -7 -185 -100 -237
-12 -7 -13 -16 -6 -49 14 -59 37 -305 55 -581 l17 -243 -22 -27 c-60 -77 -67
-181 -20 -282 26 -53 30 -72 24 -108 -4 -31 -11 -43 -23 -43 -10 0 -25 -6 -35
-13 -21 -16 -15 -51 10 -61 12 -4 15 -2 10 9 -4 10 1 15 14 15 18 0 19 -5 13
-65 l-6 -65 173 0 172 0 51 -37 51 -38 -54 -12 c-58 -13 -130 -42 -130 -53 0
-4 15 -12 33 -18 17 -6 64 -22 104 -36 78 -27 262 -57 346 -55 l52 1 -50 12
c-61 15 -99 35 -145 76 l-35 31 58 -4 c45 -3 68 -11 103 -36 40 -28 60 -33
162 -46 147 -19 206 -19 361 0 94 11 129 19 145 33 33 30 64 44 122 51 30 4
54 6 54 4 0 -7 -73 -68 -96 -81 -13 -7 -47 -19 -76 -27 l-53 -15 100 5 c55 3
134 12 175 19 95 18 252 74 247 90 -3 11 -66 35 -137 53 l-35 9 49 37 49 37
174 0 175 0 -7 69 c-7 67 -6 69 14 64 17 -4 19 -8 10 -19 -18 -22 6 -16 26 6
22 25 14 46 -22 55 -15 3 -31 12 -35 18 -15 24 -7 82 19 135 48 98 43 195 -14
279 l-26 38 17 253 c19 280 42 520 55 569 8 30 6 34 -40 73 -79 67 -100 134
-65 210 l16 35 -5 -76 c-4 -66 -2 -79 14 -93 22 -20 24 -18 40 54 11 45 10 83
-3 219 -9 90 -17 165 -18 167 -2 1 -14 -44 -27 -99z m-2040 -654 c13 -230 8
-284 -10 -113 -7 69 -19 163 -27 209 -10 63 -10 89 -2 98 6 8 15 10 19 6 5 -5
13 -95 20 -200z m2085 164 c-5 -20 -20 -129 -46 -327 -7 -60 -8 -43 -4 90 3
91 8 191 11 222 5 53 7 56 25 47 14 -8 18 -17 14 -32z m-872 -932 c143 -38
257 -118 311 -217 25 -44 30 -64 30 -123 0 -59 -5 -79 -30 -124 -53 -95 -172
-178 -316 -217 -90 -25 -290 -25 -379 0 -156 43 -266 122 -319 228 -36 70 -40
128 -15 201 41 121 205 233 392 267 68 13 257 4 326 -15z m-1170 -352 c17 -21
17 -21 -3 -16 -13 3 -21 13 -21 26 0 11 1 18 3 16 1 -2 10 -14 21 -26z m1976
7 c0 -14 -7 -20 -22 -20 -20 0 -21 1 -3 20 10 11 20 20 22 20 1 0 3 -9 3 -20z
m-1884 -97 c30 -14 54 -27 54 -29 0 -2 -40 -4 -90 -4 l-90 0 0 36 c0 36 0 36
36 29 20 -3 61 -18 90 -32z m1888 21 c3 -9 6 -24 6 -35 0 -17 -8 -19 -90 -19
-49 0 -90 2 -90 5 0 10 128 64 156 65 7 0 15 -7 18 -16z m-1547 -264 l34 -30
-39 0 c-34 0 -93 15 -142 37 -10 4 0 9 25 13 73 13 87 11 122 -20z m1226 20
c13 0 17 -4 12 -9 -19 -16 -109 -41 -149 -41 l-41 1 35 30 c31 26 40 29 79 24
24 -3 53 -5 64 -5z"/>
<path d="M600 15406 c0 -37 -43 -80 -111 -111 l-62 -27 7 -62 c7 -67 28 -150
32 -126 2 8 6 45 9 82 l7 68 41 18 c53 24 103 66 123 103 l15 29 808 0 809 0
20 -34 c22 -37 82 -85 131 -105 28 -12 29 -16 37 -94 l7 -82 13 43 c7 24 16
70 20 102 l6 57 -58 27 c-75 35 -114 71 -114 108 l0 28 -870 0 -870 0 0 -24z"/>
<path d="M2496 15057 c-10 -45 -31 -122 -48 -172 -34 -102 -37 -163 -10 -209
16 -28 18 -41 9 -111 -9 -83 -2 -926 9 -1094 l7 -94 23 39 c20 33 24 53 25
134 1 94 1 95 16 60 21 -49 13 -125 -22 -196 -39 -80 -157 -196 -267 -262
-102 -61 -150 -106 -146 -136 7 -46 104 -43 160 5 22 19 22 20 1 10 -28 -14
-90 -14 -98 0 -4 5 1 19 11 30 16 17 32 19 197 19 l179 0 -7 65 c-6 61 -5 65
14 65 14 0 19 -5 15 -15 -4 -11 -2 -13 9 -9 39 14 25 64 -18 64 -43 0 -47 78
-8 153 23 44 27 65 28 133 0 75 -3 85 -34 135 l-34 54 17 250 c18 272 42 525
55 571 7 26 3 33 -41 73 -80 72 -99 135 -63 211 l16 35 -5 -75 c-4 -63 -2 -79
13 -100 l19 -24 11 40 c22 81 22 103 6 264 -9 90 -17 165 -18 167 -1 1 -11
-35 -21 -80z m31 -485 c9 -6 9 -27 -2 -92 -8 -47 -21 -143 -29 -215 l-15 -130
4 161 c5 175 14 284 24 284 3 0 11 -4 18 -8z m-68 -1323 c-25 -16 -32 -9 -13
12 12 13 20 16 22 9 3 -7 -2 -16 -9 -21z m15 -55 c3 -9 6 -27 6 -40 0 -24 -1
-24 -95 -24 -52 0 -95 2 -95 5 0 11 137 71 171 74 4 1 10 -6 13 -15z"/>
<path d="M417 15104 c-4 -16 -11 -94 -18 -174 -10 -123 -9 -153 3 -194 17 -58
29 -66 48 -31 10 19 11 33 2 62 -6 21 -8 51 -5 67 l6 28 13 -32 c32 -76 11
-145 -65 -211 -49 -43 -51 -46 -41 -79 12 -40 44 -386 60 -643 10 -157 10
-181 -4 -196 -32 -35 -56 -106 -56 -166 0 -46 7 -75 31 -125 26 -55 29 -72 24
-112 -6 -41 -10 -48 -30 -48 -30 0 -52 -26 -39 -48 14 -22 36 -28 28 -8 -4 11
0 16 15 16 19 0 20 -4 14 -65 l-6 -65 180 0 c185 0 203 -4 203 -42 0 -14 -8
-18 -36 -18 -19 0 -45 5 -57 11 -21 10 -21 9 1 -10 53 -46 152 -51 160 -9 5
28 -55 84 -158 148 -218 135 -335 327 -275 455 13 28 14 24 13 -61 0 -76 3
-97 23 -135 l24 -44 7 105 c12 210 20 974 10 1068 -8 83 -8 97 9 129 25 48 24
109 -2 178 -11 30 -33 105 -49 167 -22 89 -29 105 -33 82z m27 -606 c3 -46 8
-144 10 -218 l5 -135 -15 115 c-8 63 -21 157 -29 209 -12 76 -13 96 -3 103 23
14 26 9 32 -74z m62 -1255 c-8 -8 -36 10 -36 25 0 13 3 12 20 -3 11 -10 18
-20 16 -22z m82 -74 c34 -15 62 -30 62 -33 0 -3 -43 -6 -95 -6 l-95 0 0 33 c0
19 3 37 6 40 10 9 50 -2 122 -34z"/>
<path d="M1348 13690 c-83 -13 -204 -56 -269 -95 -71 -44 -154 -132 -181 -192
-25 -57 -35 -159 -19 -204 13 -38 7 -49 -16 -27 -26 27 -29 150 -6 220 11 31
16 55 11 52 -13 -8 -45 -75 -52 -111 -10 -45 -62 -112 -99 -128 -31 -14 -31
-14 -6 -15 14 0 42 11 62 24 l36 24 10 -49 c6 -28 11 -52 11 -54 0 -3 -12 -5
-27 -5 l-28 0 30 -25 c23 -18 42 -24 79 -25 44 0 52 -4 87 -42 21 -24 38 -46
39 -49 0 -13 -85 -40 -144 -46 -41 -3 -75 0 -104 10 l-43 15 18 -20 c30 -35
77 -48 170 -48 78 -1 110 -7 177 -35 16 -7 17 -5 8 12 -6 11 -25 26 -43 33
-26 11 -28 15 -14 22 23 13 58 3 96 -29 27 -23 47 -29 138 -40 198 -23 475 -8
516 27 38 33 86 52 114 45 l26 -7 -25 -10 c-26 -10 -60 -37 -60 -48 0 -4 24 1
53 11 34 12 82 18 140 19 93 0 139 14 173 51 17 19 17 19 -26 4 -58 -20 -115
-19 -194 5 -36 12 -66 22 -66 24 0 1 20 23 45 49 41 43 49 47 91 47 35 0 54 6
76 25 l30 25 -27 0 c-26 0 -27 2 -21 38 14 75 15 76 41 52 12 -11 40 -23 61
-26 l39 -5 -30 14 c-45 21 -80 68 -104 139 -12 35 -30 74 -41 88 -19 24 -19
23 1 -40 25 -77 22 -191 -4 -218 -23 -23 -28 -12 -16 34 52 187 -124 397 -389
465 -89 23 -243 32 -324 19z m308 -75 c215 -55 366 -210 351 -361 -19 -193
-254 -344 -536 -344 -311 0 -559 178 -538 386 17 162 188 297 422 334 77 11
224 4 301 -15z"/>
<path d="M600 12431 c0 -36 -61 -92 -127 -117 -39 -15 -43 -20 -43 -51 0 -42
33 -186 37 -158 1 11 5 50 8 86 l6 66 50 24 c48 22 119 88 119 109 0 7 282 10
820 10 688 0 820 -2 820 -14 0 -20 79 -88 126 -110 l42 -18 9 -87 9 -86 12 53
c6 29 15 76 18 105 l6 52 -54 23 c-70 29 -118 75 -118 113 l0 29 -870 0 -870
0 0 -29z"/>
<path d="M2510 12149 c0 -28 -64 -260 -81 -290 -17 -32 -13 -113 8 -153 17
-32 18 -47 10 -114 -9 -80 0 -966 11 -1107 l7 -80 23 42 c18 35 22 58 22 135
1 93 1 93 16 58 22 -49 13 -133 -21 -201 -36 -70 -170 -203 -255 -252 -36 -21
-76 -47 -90 -57 l-25 -20 118 0 c112 0 117 -1 117 -21 0 -34 -17 -54 -62 -75
-23 -10 -53 -29 -66 -41 -56 -52 -212 -86 -235 -52 -19 31 20 108 90 177 57
56 61 62 38 62 -28 0 -29 4 -14 65 l11 45 30 -25 c19 -16 41 -25 61 -24 23 1
26 3 10 6 -36 7 -100 87 -113 143 -6 26 -23 63 -37 82 -14 18 -22 24 -18 13
23 -62 35 -113 35 -154 0 -62 -17 -121 -36 -121 -11 0 -13 6 -7 28 5 15 8 57
8 93 -1 229 -263 409 -595 409 -139 0 -238 -22 -350 -77 -90 -44 -185 -134
-219 -208 -28 -59 -38 -154 -22 -209 12 -47 11 -50 -14 -32 -29 21 -33 153 -8
229 11 31 19 57 17 57 -9 0 -47 -76 -60 -119 -17 -59 -56 -108 -99 -127 l-30
-13 32 -1 c19 0 43 10 61 25 l30 25 11 -50 c6 -28 11 -53 11 -55 0 -3 -12 -5
-27 -5 -26 0 -25 -2 24 -45 66 -58 121 -161 104 -194 -7 -12 -22 -21 -35 -21
-40 0 -151 38 -187 65 -19 13 -52 33 -74 43 -48 23 -64 40 -67 73 -3 24 -3 24
117 29 l120 5 -102 63 c-115 72 -233 187 -273 267 -30 63 -38 147 -17 195 16
35 16 34 15 -55 0 -77 3 -97 23 -135 l24 -45 7 105 c13 207 20 974 10 1068 -8
83 -8 97 9 129 23 46 24 111 3 161 -9 20 -31 95 -49 167 -38 148 -37 150 -56
-74 -9 -106 -9 -145 1 -190 17 -71 24 -79 45 -47 15 22 16 33 6 70 -6 26 -7
54 -3 67 8 22 9 21 20 -11 28 -79 10 -133 -67 -202 -49 -44 -49 -46 -41 -84
14 -61 37 -302 55 -570 l16 -240 -33 -54 c-30 -49 -33 -60 -33 -134 0 -69 4
-90 28 -138 24 -48 27 -65 22 -103 -6 -38 -11 -45 -30 -45 -27 0 -49 -24 -42
-44 3 -8 16 -20 29 -27 19 -9 21 -9 11 2 -18 19 -16 29 7 29 18 0 19 -5 13
-65 l-6 -65 51 0 c50 0 52 -1 71 -38 41 -80 165 -159 316 -200 67 -18 70 -18
100 -1 17 10 47 20 67 21 l36 3 -29 33 c-16 18 -29 39 -29 47 0 21 125 -16
158 -48 24 -22 41 -27 142 -36 63 -7 131 -14 150 -16 19 -2 104 3 190 11 140
15 158 18 182 41 23 22 158 70 158 57 0 -11 -23 -50 -41 -69 -18 -21 -18 -21
18 -23 21 -2 51 -11 67 -21 28 -18 31 -18 100 1 154 42 304 141 322 212 6 24
10 26 61 26 l55 0 -7 65 c-5 53 -4 65 8 65 22 0 28 -12 14 -28 -10 -13 -9 -14
11 -3 13 7 26 19 29 27 7 20 -15 44 -42 44 -42 0 -47 77 -9 152 28 55 41 135
30 191 -3 19 -20 55 -37 81 l-31 47 11 182 c18 279 41 535 55 609 l13 67 -39
28 c-79 54 -109 145 -74 223 l15 35 2 -35 c1 -19 0 -39 -1 -45 -12 -56 -10
-72 8 -95 l19 -24 18 60 c16 55 16 69 1 233 -9 96 -19 177 -21 180 -3 2 -5 -7
-5 -20z m-2066 -626 c9 -130 17 -360 12 -348 -3 6 -12 80 -21 165 -9 85 -20
175 -26 199 -7 31 -6 47 2 57 21 26 26 14 33 -73z m2084 74 c7 -8 7 -27 1 -57
-5 -25 -18 -119 -29 -210 l-19 -165 5 165 c6 188 14 280 24 280 4 0 12 -6 18
-13z m-823 -971 c286 -98 388 -330 225 -509 -81 -89 -179 -141 -315 -168 -78
-16 -246 -12 -322 6 -147 36 -282 127 -334 226 -33 62 -33 176 0 238 47 89
153 169 281 209 93 30 101 31 250 28 117 -2 146 -6 215 -30z m-1210 -336 c18
-19 17 -20 -3 -20 -15 0 -22 6 -22 20 0 11 2 20 3 20 2 0 12 -9 22 -20z m1975
0 c0 -14 -7 -20 -22 -20 -20 0 -21 1 -3 20 10 11 20 20 22 20 1 0 3 -9 3 -20z
m10 -102 l0 -28 -97 0 c-93 0 -96 1 -74 16 13 9 53 27 89 40 72 25 82 22 82
-28z m-1895 8 l70 -35 -97 0 -98 -1 0 35 c0 32 3 35 28 35 15 0 59 -15 97 -34z
m380 -126 c21 -22 33 -40 26 -40 -21 0 -80 40 -91 61 -19 35 23 22 65 -21z
m1048 0 c-23 -22 -50 -40 -59 -40 -29 0 47 78 76 79 24 0 23 -2 -17 -39z"/>
<path d="M600 9434 c0 -34 -44 -75 -114 -105 -52 -23 -56 -26 -55 -59 0 -39
23 -158 33 -167 3 -4 6 12 6 34 0 22 3 60 6 84 6 41 9 46 50 63 48 20 124 88
124 111 0 13 98 15 820 15 614 0 820 -3 820 -12 0 -25 52 -76 108 -106 l60
-32 8 -83 7 -82 14 44 c7 25 16 73 19 107 6 61 6 61 -22 68 -39 10 -112 54
-129 79 -8 12 -15 32 -15 44 l0 23 -870 0 -870 0 0 -26z"/>
<path d="M417 9140 c-4 -19 -12 -95 -18 -168 -9 -105 -9 -146 1 -193 7 -33 17
-62 21 -65 4 -2 16 7 25 21 14 21 15 32 6 63 -6 20 -8 50 -5 66 l6 28 13 -32
c32 -74 5 -154 -68 -211 -24 -18 -44 -33 -44 -33 -1 -1 4 -35 11 -76 15 -83
39 -352 55 -616 l11 -172 -33 -47 c-31 -44 -33 -51 -33 -133 0 -77 3 -93 28
-137 24 -42 27 -57 22 -96 -6 -42 -10 -47 -36 -53 -37 -7 -47 -31 -24 -56 20
-22 44 -28 26 -7 -12 15 -5 27 16 27 10 0 12 -15 7 -70 l-7 -70 109 0 c102 0
112 -2 160 -30 63 -36 94 -73 94 -113 l0 -30 25 23 25 23 -24 31 c-13 17 -42
46 -65 64 l-43 32 50 0 c35 0 57 -6 76 -21 15 -12 30 -19 33 -16 11 11 -53 64
-142 118 -111 67 -222 175 -261 255 -35 71 -43 158 -20 200 15 28 16 27 15
-62 -1 -86 12 -141 39 -158 13 -8 21 182 28 644 4 252 2 452 -4 510 -9 85 -8
99 9 132 23 44 25 112 4 160 -16 39 -71 238 -78 278 -3 22 -4 21 -10 -10z m34
-727 c13 -229 8 -285 -10 -114 -7 69 -19 163 -26 210 -11 63 -11 89 -3 98 6 8
15 10 19 6 5 -5 13 -95 20 -200z m44 -1113 c18 -19 17 -20 -3 -20 -15 0 -22 6
-22 20 0 11 2 20 3 20 2 0 12 -9 22 -20z m70 -86 c36 -14 68 -30 71 -35 3 -5
-35 -9 -85 -9 l-91 0 0 35 c0 44 15 45 105 9z"/>
<path d="M2492 9071 c-13 -53 -35 -129 -49 -170 -30 -88 -31 -139 -5 -189 17
-33 18 -46 10 -112 -10 -78 -2 -959 10 -1105 l7 -80 23 42 c18 34 22 59 23
130 1 88 1 88 16 53 33 -76 1 -180 -86 -284 -58 -68 -111 -112 -228 -186 -50
-32 -96 -68 -103 -79 l-11 -21 33 20 c19 12 51 20 75 20 l42 0 -61 -60 -62
-60 25 -26 24 -26 6 38 c14 84 116 134 272 134 l89 0 -7 70 c-6 57 -4 70 7 70
22 0 29 -12 17 -27 -18 -21 6 -15 26 7 22 25 14 48 -22 56 -15 4 -31 12 -35
18 -15 23 -7 81 19 134 48 98 43 195 -14 279 l-26 38 17 255 c19 281 42 516
56 570 8 29 7 36 -8 44 -40 21 -99 95 -110 135 -8 36 -7 51 9 94 l19 52 -5
-81 c-5 -71 -3 -83 14 -98 19 -17 20 -16 36 40 15 52 15 73 5 198 -19 217 -21
221 -48 107z m36 -463 c7 -9 7 -30 0 -68 -6 -30 -18 -125 -29 -210 l-18 -155
5 165 c6 188 14 280 24 280 4 0 12 -6 18 -12z m-58 -1308 c0 -14 -7 -20 -22
-20 -20 0 -21 1 -3 20 10 11 20 20 22 20 1 0 3 -9 3 -20z m4 -76 c3 -9 6 -24
6 -35 0 -17 -8 -19 -97 -19 -108 1 -108 3 -3 47 65 27 86 28 94 7z"/>
<path d="M1321 7720 c-193 -41 -353 -145 -416 -270 -32 -63 -43 -154 -26 -214
12 -46 7 -57 -15 -34 -31 31 -30 168 3 254 6 17 5 17 -10 5 -9 -7 -24 -39 -34
-70 -16 -53 -59 -131 -72 -131 -3 0 -17 -9 -31 -20 l-25 -21 30 7 c17 4 42 15
56 25 l27 19 11 -45 c14 -57 15 -55 -16 -55 -28 -1 -27 -1 19 -43 50 -45 72
-81 65 -102 -4 -9 1 -11 14 -8 30 8 31 18 4 57 l-24 36 27 0 c19 0 40 -12 65
-38 20 -21 37 -41 37 -44 0 -3 -19 -9 -43 -12 -48 -7 -155 -55 -174 -77 -10
-13 -4 -14 48 -5 41 7 72 7 99 -1 44 -11 52 -2 19 21 l-21 14 22 12 c37 20
139 -8 186 -51 16 -15 54 -23 172 -36 142 -15 162 -15 304 0 118 13 156 21
172 36 47 42 149 71 186 51 l21 -11 -23 -19 -23 -19 60 5 c33 3 79 1 103 -4
36 -8 41 -8 31 4 -19 23 -128 73 -175 80 -24 3 -44 9 -44 13 0 4 17 24 38 44
25 25 47 37 66 37 l28 0 -26 -31 c-31 -37 -33 -55 -6 -62 16 -4 20 0 20 21 0
19 16 41 57 79 54 51 56 53 29 53 -26 0 -27 2 -21 33 14 71 13 70 43 49 15
-11 41 -22 57 -25 27 -6 28 -5 10 6 -43 26 -85 80 -99 126 -16 55 -41 107 -56
116 -5 3 -2 -11 6 -30 33 -80 26 -234 -11 -249 -12 -4 -14 0 -8 22 5 15 8 59
8 97 0 57 -6 81 -29 129 -55 112 -179 205 -341 256 -79 25 -296 36 -374 20z
m374 -83 c134 -44 234 -118 283 -212 36 -68 37 -169 3 -234 -52 -100 -181
-188 -331 -228 -88 -23 -272 -23 -360 0 -207 55 -342 177 -357 321 -13 123 72
244 221 316 114 55 195 70 341 66 94 -3 137 -9 200 -29z"/>
<path d="M600 6456 c0 -37 -35 -72 -107 -108 l-65 -32 6 -60 c7 -67 28 -150
32 -126 2 8 6 46 9 83 6 65 8 69 38 82 51 21 115 72 132 105 l16 30 809 0 809
0 15 -29 c20 -37 70 -79 122 -103 l42 -18 8 -83 7 -82 13 43 c7 24 16 70 20
102 l6 57 -58 27 c-75 35 -114 71 -114 108 l0 28 -870 0 -870 0 0 -24z"/>
<path d="M2496 6107 c-10 -45 -31 -122 -48 -172 -34 -104 -37 -151 -10 -205
16 -33 17 -48 9 -116 -9 -83 0 -972 11 -1104 l7 -75 23 35 c18 30 22 50 23
130 1 89 2 93 14 65 35 -76 5 -184 -79 -286 -59 -73 -106 -111 -243 -199 -52
-33 -94 -68 -98 -80 -11 -33 0 -34 33 0 l30 30 187 0 187 0 -7 65 c-6 61 -5
65 14 65 14 0 19 -5 15 -15 -4 -11 -2 -13 9 -9 38 14 27 57 -18 68 -46 12 -46
67 0 175 38 89 33 167 -14 243 l-34 53 17 250 c18 270 42 525 55 571 7 26 2
34 -50 84 -71 68 -85 108 -63 180 8 28 18 50 21 50 3 0 3 -33 0 -72 -5 -56 -2
-78 9 -92 18 -26 28 -14 43 54 11 46 10 83 -3 219 -9 91 -18 166 -19 167 -1 2
-11 -34 -21 -79z m40 -512 c-5 -18 -21 -130 -46 -325 -8 -63 -8 -51 -5 78 3
83 8 183 11 221 6 65 8 69 26 58 12 -8 17 -19 14 -32z m-66 -1279 c0 -7 -9
-16 -19 -19 -17 -4 -18 -2 -8 14 14 22 27 25 27 5z m4 -72 c3 -9 6 -24 6 -35
0 -17 -8 -19 -92 -19 -102 1 -102 4 2 47 66 27 76 28 84 7z"/>
<path d="M416 6150 c-3 -19 -11 -95 -17 -169 -9 -107 -9 -144 1 -188 8 -30 17
-56 20 -58 4 -3 16 5 26 16 15 17 16 25 7 62 -6 23 -9 55 -6 71 l6 28 13 -32
c32 -75 11 -146 -63 -210 -48 -41 -50 -44 -42 -79 13 -56 36 -309 54 -579 15
-214 15 -246 2 -260 -65 -75 -76 -188 -26 -292 25 -53 29 -73 24 -107 -5 -36
-10 -43 -35 -48 -17 -4 -32 -11 -36 -16 -8 -14 5 -46 22 -53 12 -4 15 -2 10 9
-4 10 1 15 14 15 18 0 19 -5 13 -65 l-6 -65 179 0 c161 0 182 -2 212 -20 17
-11 32 -25 32 -32 0 -8 3 -9 10 -2 20 20 -2 44 -89 101 -47 31 -103 67 -124
82 -59 39 -153 147 -187 214 -34 67 -39 140 -15 192 13 28 14 25 13 -60 0 -67
4 -100 18 -127 10 -21 21 -38 24 -38 20 0 38 1005 22 1160 -9 85 -8 98 9 129
25 46 24 103 -1 177 -12 32 -34 109 -49 169 -26 98 -30 106 -35 75z m28 -602
c3 -46 8 -144 10 -218 l5 -135 -15 115 c-8 63 -21 157 -29 209 -14 98 -13 111
9 111 10 0 15 -24 20 -82z m50 -1237 c17 -19 17 -19 -3 -14 -12 3 -21 12 -21
19 0 18 4 18 24 -5z m91 -91 l60 -28 -92 -1 -93 -1 0 36 c0 35 1 35 33 29 17
-4 59 -19 92 -35z"/>
<path d="M1318 4734 c-257 -46 -448 -221 -448 -409 0 -29 5 -66 10 -81 13 -33
5 -43 -17 -22 -26 27 -29 150 -6 220 11 31 16 55 11 52 -13 -8 -45 -75 -52
-111 -10 -45 -57 -106 -97 -126 -33 -16 -33 -17 -8 -17 14 0 42 11 62 24 l35
24 11 -43 c14 -57 15 -55 -14 -55 -33 0 -32 -5 10 -42 69 -60 67 -99 -7 -119
-43 -11 -167 -8 -203 5 -12 5 -5 -6 19 -29 35 -34 41 -37 80 -31 22 4 64 10
91 13 32 3 59 14 75 28 35 32 64 45 97 45 53 0 54 -15 3 -33 -53 -19 -100 -66
-99 -100 0 -12 3 -17 5 -10 3 7 21 17 41 24 19 6 44 20 54 30 12 12 33 19 59
19 42 0 115 -31 122 -51 5 -14 206 -38 318 -38 47 0 132 6 190 12 90 11 111
17 144 42 50 38 134 47 164 17 11 -11 36 -25 55 -31 20 -7 38 -17 41 -24 2 -7
5 -5 5 4 2 34 -44 84 -98 105 -37 15 -48 23 -36 28 43 16 88 3 135 -39 14 -13
44 -25 70 -29 25 -3 65 -8 90 -12 42 -5 48 -3 85 31 23 21 32 33 20 29 -11 -4
-56 -9 -101 -12 -160 -8 -212 53 -109 128 41 30 44 40 9 40 -24 0 -25 3 -19
33 14 70 12 68 52 41 20 -13 48 -24 62 -24 26 1 26 1 -4 14 -43 19 -82 68 -99
125 -16 55 -41 107 -56 116 -5 3 -2 -11 7 -32 24 -55 25 -216 1 -240 -24 -24
-29 -14 -17 33 16 57 5 144 -26 205 -104 210 -414 328 -717 273z m337 -69
c147 -38 267 -119 320 -216 39 -70 42 -170 7 -236 -52 -100 -151 -175 -286
-220 -73 -24 -96 -27 -226 -27 -131 0 -153 3 -226 27 -203 68 -326 207 -311
353 17 164 189 298 432 338 54 8 229 -3 290 -19z m-710 -554 c0 -7 -10 -20
-21 -28 -20 -13 -22 -12 -33 17 -10 31 -10 31 22 28 19 -2 32 -9 32 -17z
m1102 -10 c-9 -24 -14 -28 -28 -20 -41 21 -34 49 11 49 27 0 28 -1 17 -29z"/>
<path d="M600 3481 c0 -36 -53 -85 -123 -114 l-49 -21 6 -61 c3 -34 12 -81 20
-106 l14 -44 1 41 c1 23 4 62 7 86 6 43 9 47 56 69 47 22 118 88 118 109 0 7
282 10 820 10 538 0 820 -3 820 -10 0 -21 71 -87 118 -109 l50 -23 9 -87 9
-86 12 53 c6 29 15 76 18 105 l6 53 -47 19 c-67 25 -125 79 -125 116 l0 29
-870 0 -870 0 0 -29z"/>
<path d="M2510 3199 c0 -29 -65 -260 -81 -291 -18 -33 -13 -110 8 -152 17 -33
18 -47 10 -114 -9 -80 0 -966 11 -1107 l7 -80 23 42 c18 35 22 59 23 135 1 92
1 93 16 58 22 -50 12 -136 -23 -201 -45 -83 -138 -175 -249 -247 -147 -95
-181 -131 -168 -181 9 -35 46 -23 54 17 4 18 17 44 30 58 22 24 25 24 197 24
l174 0 -7 65 c-6 62 -6 65 15 65 18 0 19 -3 10 -21 -11 -19 -10 -20 10 -9 43
23 32 70 -15 70 -42 0 -47 77 -9 152 28 55 41 135 30 191 -3 19 -20 55 -38 81
l-31 47 12 182 c19 285 41 536 55 608 l13 67 -43 33 c-78 62 -101 124 -76 202
l17 52 5 -35 c3 -19 1 -51 -4 -72 -8 -29 -6 -41 8 -64 22 -32 27 -25 45 52 10
42 9 84 -4 220 -14 152 -25 218 -25 153z m18 -551 c6 -9 5 -39 -4 -93 -8 -44
-20 -138 -28 -210 l-15 -130 5 165 c6 188 14 280 24 280 4 0 12 -6 18 -12z
m-61 -1313 c-4 -8 -14 -15 -23 -15 -16 0 -16 2 1 20 20 22 31 20 22 -5z m13
-97 l0 -28 -95 0 c-52 0 -95 2 -95 5 0 8 64 38 120 56 61 19 70 14 70 -33z"/>
<path d="M416 3180 c-3 -19 -11 -95 -17 -169 -9 -106 -9 -145 1 -190 17 -72
23 -78 44 -45 15 22 16 33 8 68 -6 22 -8 54 -5 71 l6 30 13 -35 c17 -48 17
-105 -1 -139 -8 -16 -37 -49 -64 -73 -49 -44 -49 -46 -41 -84 14 -61 37 -302
55 -570 l16 -240 -33 -54 c-30 -49 -33 -60 -33 -135 0 -69 4 -89 28 -135 24
-46 27 -62 22 -102 -6 -41 -10 -48 -30 -48 -27 0 -49 -24 -42 -44 3 -8 16 -20
29 -27 19 -9 21 -9 11 2 -18 19 -16 29 7 29 18 0 19 -5 13 -65 l-6 -65 175 0
c172 0 175 0 197 -24 13 -14 26 -40 30 -58 5 -24 12 -33 26 -33 15 0 21 8 23
34 3 28 -3 39 -40 75 -24 22 -80 62 -124 88 -103 60 -213 173 -254 259 -33 71
-39 142 -15 194 13 28 13 24 14 -63 1 -76 5 -100 24 -135 l22 -42 7 105 c13
207 20 974 10 1068 -8 83 -8 97 9 129 23 46 24 111 3 161 -9 20 -31 95 -49
167 -29 112 -34 125 -39 95z m28 -607 c11 -170 18 -348 13 -343 -3 3 -10 57
-16 120 -7 63 -19 155 -27 204 -12 72 -12 91 -2 98 23 14 25 9 32 -79z m61
-1251 c-9 -9 -35 8 -35 24 0 16 2 16 20 -1 11 -10 18 -20 15 -23z m78 -71 c16
-6 39 -18 50 -26 20 -14 13 -15 -76 -15 l-97 0 0 33 c0 19 3 36 6 40 6 5 61
-9 117 -32z"/>
<path d="M1370 1769 c-155 -18 -291 -79 -386 -174 -33 -33 -71 -82 -83 -108
-27 -56 -38 -155 -23 -210 9 -33 9 -38 -6 -35 -9 2 -19 14 -23 28 -14 48 -9
155 10 208 10 28 17 52 15 52 -9 0 -47 -76 -60 -119 -17 -59 -56 -108 -99
-127 l-30 -13 32 -1 c19 0 43 10 61 25 l30 25 11 -50 c6 -28 11 -53 11 -55 0
-3 -12 -5 -27 -5 -27 0 -26 -1 21 -42 56 -48 76 -88 76 -153 0 -38 3 -45 20
-45 41 0 34 80 -12 158 l-20 32 24 0 c37 -1 118 -122 118 -178 0 -10 -9 -27
-20 -37 -28 -25 -25 -35 10 -35 36 0 54 28 48 75 -4 32 -3 32 22 23 14 -5 36
-20 50 -32 45 -42 303 -59 523 -35 100 11 116 15 145 40 46 40 62 38 62 -9 0
-45 14 -62 52 -62 33 0 35 10 8 35 -26 23 -25 55 1 108 33 63 71 107 95 107
20 0 20 -2 -8 -56 -38 -77 -37 -134 3 -134 16 0 19 8 19 50 0 64 17 98 77 149
48 41 48 41 19 41 -27 0 -28 1 -22 38 14 75 14 75 48 47 18 -15 41 -25 61 -25
l32 1 -31 13 c-45 20 -89 79 -107 144 -9 31 -26 68 -36 82 -20 25 -20 25 -1
-38 30 -97 21 -232 -16 -232 -11 0 -13 6 -7 28 5 15 8 57 8 93 -1 253 -337
450 -695 408z m275 -75 c195 -43 341 -171 361 -315 22 -159 -141 -323 -371
-374 -115 -26 -294 -17 -400 19 -130 45 -230 120 -278 211 -31 58 -30 173 2
234 49 94 179 186 311 221 109 29 253 31 375 4z"/>
</g>
</svg>
