<?xml version="1.0" encoding="utf-8"?>
<svg width="72.39575px" height="82.81296px" viewBox="0 0 72.39575 82.81296" version="1.1" xmlns:xlink="http://www.w3.org/1999/xlink" xmlns="http://www.w3.org/2000/svg">
  <path d="M8.28174 0.77095C8.28174 1.95949 6.90039 3.34079 4.71631 4.33659L2.72461 5.20389L2.94971 7.19554C3.17432 9.34776 3.84912 12.014 3.97754 11.243C4.0415 10.986 4.16992 9.79749 4.2666 8.60892L4.49121 6.42458L5.80859 5.84636C7.51074 5.07539 9.11719 3.72626 9.75928 2.53772L10.2412 1.60614L62.1841 1.60614L62.8264 2.69833C63.5332 3.88687 65.4607 5.42877 67.0347 6.07124C67.9341 6.4567 67.9661 6.58519 68.2231 9.09076L68.448 11.7249L68.8657 10.3436C69.0906 9.5726 69.3796 8.09496 69.5081 7.06705L69.7007 5.23601L67.8376 4.36871C65.4285 3.2444 64.1758 2.08798 64.1758 0.899414L64.1758 0L8.28174 0L8.28174 0.77095L8.28174 0.77095ZM69.1868 11.9818C68.8655 13.4274 68.1909 15.9008 67.6448 17.507C66.5527 20.7835 66.4563 22.743 67.3235 24.2207C67.8376 25.1201 67.9019 25.5377 67.6128 27.7863C67.3235 30.4525 67.5483 57.5321 67.9019 62.9288L68.1267 65.9483L68.8655 64.6956C69.5078 63.6355 69.6365 62.993 69.6685 60.3911L69.6687 60.3848C69.7007 57.3715 69.7009 57.3402 70.1826 58.4637C70.8572 60.0378 70.6001 62.4791 69.4758 64.7598C68.2231 67.3296 64.4326 71.0559 60.8989 73.176C57.6226 75.1355 56.0806 76.581 56.209 77.5447C56.4338 79.0224 59.5498 78.926 61.3486 77.3841C62.0554 76.7738 62.0554 76.7417 61.3809 77.0629C60.4814 77.5126 58.4897 77.5126 58.2329 77.0629C58.1042 76.9023 58.2649 76.4525 58.5862 76.0992C59.1001 75.5531 59.614 75.4889 64.9143 75.4889L70.6643 75.4889L70.4395 73.4008C70.2468 71.4414 70.2788 71.3129 70.8892 71.3129C71.3389 71.3129 71.4995 71.4735 71.3711 71.7947C71.2427 72.1481 71.3069 72.2123 71.6602 72.0838C72.9128 71.6341 72.4631 70.028 71.082 70.028C69.7007 70.028 69.5723 67.5223 70.825 65.1131C71.5637 63.6997 71.6924 63.0251 71.7244 60.8408C71.7244 58.4316 71.6279 58.1104 70.6323 56.5042L69.54 54.7696L70.0862 46.7388C70.6643 38.0014 71.4353 29.8743 71.8528 28.3967C72.0779 27.5614 71.9492 27.3366 70.5359 26.0517C67.9661 23.7388 67.3557 21.7151 68.5122 19.2738L69.0261 18.1495L68.8655 20.5587C68.7371 22.5824 68.8013 23.0964 69.283 23.771L69.8933 24.5419L70.2468 23.257C70.9534 20.655 70.9534 19.9483 70.4395 14.7766C70.1504 11.8855 69.8933 9.47627 69.8613 9.412C69.8291 9.37988 69.5078 10.5363 69.1868 11.9818L69.1868 11.9818ZM1.8252 16.0614C2.0498 13.4916 2.2749 10.986 2.40332 10.472C2.53174 9.73318 2.75684 10.2472 3.46338 13.1061C3.97754 15.0977 4.68408 17.507 5.0376 18.4706C5.87256 20.6871 5.90479 22.6466 5.10156 24.1885C4.55566 25.2164 4.55566 25.6662 4.8125 28.3324C5.13379 31.3519 4.87695 55.8938 4.49121 62.6396L4.2666 66.0125L3.49561 64.5991C2.85303 63.3784 2.75684 62.7039 2.75684 60.2625C2.78857 57.5321 2.75684 57.4036 2.33887 58.303C0.411621 62.4147 4.16992 68.5824 11.1729 72.919C14.4814 74.9748 16.4087 76.7737 16.248 77.6731C15.9912 79.0223 12.811 78.8617 11.1084 77.3841C10.4019 76.7737 10.4019 76.7416 11.0767 77.0628C11.4619 77.2556 12.2974 77.4162 12.9077 77.4162C13.8071 77.4162 14.064 77.2877 14.064 76.8379C14.064 75.6173 13.4858 75.4888 7.54297 75.4888L1.76074 75.4888L1.95361 73.4008C2.14648 71.4413 2.11426 71.3128 1.50391 71.3128C1.02197 71.3128 0.893555 71.4734 1.02197 71.8268C1.27881 72.4692 0.572266 72.2765 0.122559 71.5698C-0.294922 70.8631 0.411621 70.0279 1.37549 70.0279C2.01807 70.0279 2.14648 69.803 2.33887 68.486C2.49951 67.2011 2.40332 66.655 1.56836 64.8882C0.797363 63.2821 0.572266 62.3505 0.572266 60.8729C0.572266 58.9455 1.34326 56.6648 2.37109 55.5405C2.8208 55.0586 2.8208 54.2877 2.49951 49.2444C1.98584 40.9888 0.958008 29.8743 0.572266 28.5894C0.250977 27.5293 0.31543 27.4329 1.88916 26.0516C4.33057 23.9315 5.00537 21.715 3.97754 19.2737L3.55957 18.2458L3.36719 19.1452C3.27051 19.6592 3.33496 20.6229 3.52783 21.2974C3.81689 22.229 3.78467 22.6787 3.46338 23.2891C2.85303 24.4134 2.46777 24.1564 1.92139 22.2933C1.53613 20.9762 1.50391 20.0125 1.8252 16.0614L1.8252 16.0614ZM70.1821 27.5614C70.4714 27.7542 70.4714 28.4288 70.1179 30.5168C69.8611 32.0266 69.4434 35.1103 69.1865 37.4232L68.7046 41.5992L68.833 36.4274C68.9937 30.8059 69.2827 27.3045 69.604 27.3045C69.7004 27.3045 69.9573 27.433 70.1821 27.5614L70.1821 27.5614ZM3.5918 36.9414C3.52734 34.5643 3.3667 31.4162 3.27051 29.9386C3.07764 27.2724 2.98145 27.1118 2.24268 27.5614C1.92139 27.7863 1.95313 28.4288 2.33887 30.8701C2.5957 32.5405 3.01318 35.5601 3.27051 37.5838L3.75244 41.278L3.5918 36.9414L3.5918 36.9414ZM32.3096 55.8939C29.6436 56.3115 25.7563 57.6927 23.6685 58.9456C21.3877 60.359 18.7217 63.1858 17.854 65.1131C17.0513 66.9442 16.73 70.2207 17.2437 71.6662C17.6616 72.8869 17.4688 73.2403 16.73 72.5335C15.8945 71.6662 15.7983 67.7151 16.5371 65.4665C16.8906 64.4707 17.0513 63.6997 16.8906 63.7961C16.4731 64.0531 15.4448 66.2053 15.2202 67.3617C14.8989 68.8073 13.2285 70.9595 12.04 71.4735L12.0396 71.4738C11.5029 71.7161 11.2554 71.8278 11.2676 71.8843C11.2778 71.9326 11.4775 71.9406 11.8472 71.9553C12.2969 71.9553 13.1963 71.602 13.8389 71.1844L14.9951 70.4134L15.3164 71.9875C15.5093 72.8869 15.6699 73.6578 15.6699 73.7221C15.6699 73.8185 15.2842 73.8827 14.8027 73.8827L13.9033 73.8827L14.8667 74.6858C15.6055 75.264 16.2158 75.4567 17.4043 75.4889C18.8179 75.4889 19.0747 75.6173 20.1992 76.838C20.8735 77.6089 21.4199 78.3156 21.4521 78.412C21.4521 78.8297 18.7217 79.6969 16.8262 79.8897C15.5093 79.9861 14.417 79.8897 13.4854 79.5685L12.104 79.0866L12.6826 79.7291C13.646 80.8534 15.1558 81.271 18.1436 81.271C20.6489 81.3031 21.6768 81.4958 23.8291 82.3953C24.3433 82.6201 24.375 82.5559 24.0859 82.0098C23.8936 81.6564 23.2832 81.1746 22.7046 80.9497C21.8696 80.5964 21.8052 80.4679 22.2549 80.243C22.9937 79.8254 24.1182 80.1467 25.3389 81.1746C26.2061 81.9134 26.8486 82.1062 29.772 82.4595C36.1321 83.1983 45.0303 82.7165 46.3472 81.5922C47.5679 80.5321 49.1099 79.9218 50.0093 80.1467L50.8445 80.3715L50.0413 80.6927C49.2061 81.014 48.114 81.8813 48.114 82.2346C48.114 82.3632 48.885 82.2025 49.8164 81.8813C50.9087 81.4958 52.4504 81.3031 54.3137 81.271C57.301 81.271 58.7788 80.8213 59.8708 79.6327C60.1035 79.3729 60.2368 79.2237 60.207 79.1751C60.1667 79.1097 59.8291 79.2275 59.0356 79.5042C57.1726 80.1467 55.3416 80.1146 52.804 79.3436C51.6475 78.9581 50.6838 78.6369 50.6838 78.5726C50.6838 78.5405 51.3262 77.8338 52.1294 76.9986C53.4463 75.6173 53.7034 75.4889 55.0525 75.4889C56.1768 75.4889 56.7871 75.2961 57.4939 74.6858L58.4575 73.8827L57.5903 73.8827C56.7551 73.8827 56.7229 73.8185 56.9155 72.662C57.3652 70.2528 57.3975 70.2207 58.2327 70.9916C58.6182 71.345 59.5176 71.7304 60.1921 71.8268L61.4451 71.9875L60.4812 71.5377C59.0356 70.8631 57.9114 69.3534 57.1404 67.0726C56.7551 65.9483 56.1768 64.6956 55.8235 64.2458C55.2131 63.4749 55.2131 63.507 55.8555 65.5307C56.6587 68.0042 56.5623 71.6662 55.7271 72.5335C54.9883 73.2724 54.8276 72.919 55.2131 71.4414C56.8835 65.4344 51.23 58.6886 42.7173 56.5042C39.8584 55.7654 34.9114 55.4763 32.3096 55.8939L32.3096 55.8939ZM42.2031 58.3031C49.1096 60.0699 53.9602 65.0489 53.4783 69.8994C52.8679 76.0992 45.3191 80.9497 36.2605 80.9497C26.27 80.9497 18.3037 75.2318 18.9785 68.5503C19.5244 63.3464 25.0176 59.0098 32.5342 57.8212C35.0076 57.4679 39.7297 57.6927 42.2031 58.3031L42.2031 58.3031ZM4.10547 69.4497C4.10547 69.9315 5.00488 70.5098 5.26172 70.2528C5.32617 70.1886 5.10107 69.8673 4.74805 69.5461C4.20166 69.0642 4.10547 69.0321 4.10547 69.4497L4.10547 69.4497ZM67.9983 70.06C67.1951 70.5739 66.9702 70.3491 67.5806 69.6745C67.9661 69.2569 68.2231 69.1606 68.2874 69.3854C68.3838 69.6103 68.2231 69.8994 67.9983 70.06L67.9983 70.06ZM68.48 71.8268C68.5764 72.1159 68.6726 72.6941 68.6726 73.1117C68.6726 73.8826 68.6406 73.8826 65.6211 73.8826C63.9507 73.8826 62.5693 73.8184 62.5693 73.722C62.5693 73.3687 66.9702 71.4413 68.0623 71.3449C68.1909 71.3128 68.3835 71.5376 68.48 71.8268L68.48 71.8268ZM9.8877 73.69C9.8877 73.5936 8.98828 73.1118 7.896 72.6299C5.58301 71.602 4.29834 71.2486 3.97705 71.5377C3.88037 71.6341 3.78418 72.2123 3.78418 72.8226L3.78418 73.8827L6.83594 73.8827C8.50635 73.8827 9.8877 73.7863 9.8877 73.69L9.8877 73.69Z" id="DX" fill="#000000" fill-rule="evenodd" stroke="none" />
</svg>