<?xml version="1.0" encoding="utf-8"?>
<svg width="72.4895px" height="83.59592px" viewBox="0 0 72.4895 83.59592" version="1.1" xmlns:xlink="http://www.w3.org/1999/xlink" xmlns="http://www.w3.org/2000/svg">
  <path d="M8.29785 0.93158C8.29785 2.08798 6.33838 3.88687 4.21826 4.68994C2.96533 5.17178 2.83691 5.3324 2.83691 6.32819C2.83691 7.67737 3.89697 12.303 4.02539 11.4036C4.05762 11.0503 4.18604 9.79749 4.28223 8.64108L4.4751 6.52094L6.08154 5.75C7.62305 5.04327 9.90381 2.92319 9.90381 2.2486C9.90381 2.02371 18.9624 1.92737 36.2446 1.92737C58.3452 1.92737 62.5854 1.99161 62.5854 2.37711C62.5854 3.01956 65.1233 5.20389 66.6331 5.91061L67.9822 6.4888L68.2712 9.28354L68.5603 12.0461L68.9458 10.3436C69.1387 9.41199 69.4277 7.90222 69.5242 6.97064L69.7168 5.30029L67.9822 4.56143C65.7336 3.62985 64.1917 2.15222 64.1917 0.93158L64.1917 0L8.29785 0L8.29785 0.93158L8.29785 0.93158ZM69.6526 9.9902C69.6526 10.8896 67.5967 18.3422 67.0505 19.3058C66.5044 20.3338 66.6331 22.9358 67.3076 24.2207C67.8535 25.2486 67.8857 25.7304 67.6287 27.8827C67.3396 30.4525 67.6287 58.9134 67.9822 63.4427L68.207 66.0125L68.9458 64.6634C69.5239 63.5391 69.6526 62.8003 69.6526 60.3268C69.6721 58.4983 69.6797 57.7889 69.7932 57.7716C69.8652 57.7606 69.9795 58.0275 70.1665 58.4637C70.8733 60.0377 70.584 62.736 69.4919 64.9203C68.3354 67.169 64.031 71.4413 61.3005 73.0154C60.144 73.6899 58.8591 74.5251 58.4094 74.8463L57.6064 75.4888L61.397 75.4888C64.9946 75.4888 65.1553 75.5209 65.1553 76.1634C65.1553 77.2556 64.6091 77.898 63.1636 78.5726C62.4248 78.8938 61.4612 79.5042 61.0435 79.8896C59.2446 81.56 54.2336 82.6522 53.4946 81.56C52.8843 80.5642 54.1372 78.0908 56.3857 75.8743C58.2168 74.0754 58.3452 73.8827 57.6064 73.8827C56.707 73.8827 56.6748 73.7542 57.1567 71.7947L57.51 70.3492L58.4736 71.1522C59.084 71.6662 59.7908 71.9553 60.4333 71.9232C61.1721 71.891 61.2686 71.8268 60.7544 71.7304C59.5981 71.5056 57.5422 68.9357 57.1245 67.1368C56.9319 66.3017 56.3857 65.1131 55.936 64.5027C55.4863 63.9246 55.2292 63.7318 55.3579 64.0852C56.0967 66.0768 56.4822 67.715 56.4822 69.0321C56.4822 71.0237 55.936 72.919 55.3257 72.919C54.9724 72.919 54.9082 72.7262 55.1008 72.0195C55.2615 71.5377 55.3579 70.1885 55.3579 69.0321C55.3257 61.676 46.9094 55.8938 36.2446 55.8938C31.7798 55.8938 28.5996 56.6005 25.0015 58.3673C22.1108 59.7807 19.0591 62.6718 17.9668 65.0489C17.0674 66.9441 16.7461 69.9958 17.2603 71.7625C17.6455 73.2723 17.6133 73.3687 16.8105 72.7905C15.8789 72.1159 15.7505 67.8756 16.5532 65.4343C16.9067 64.4385 17.1636 63.6033 17.0996 63.6033C16.8105 63.6033 15.5898 66.0446 15.1719 67.426C14.626 69.3212 13.373 70.8952 11.9917 71.5056L11.0283 71.9232L12.0562 71.9553C12.6665 71.9553 13.4375 71.6341 14.0156 71.1522L14.9795 70.3492L15.3325 71.9553C15.5254 72.8547 15.686 73.6578 15.686 73.722C15.686 73.8184 15.3008 73.8827 14.8188 73.8827C13.9834 73.8827 14.0156 73.9469 15.5898 75.3282C17.71 77.1913 19.4766 80.5 18.9307 81.56C18.7056 81.9455 18.2236 82.2346 17.8062 82.2346C16.521 82.2346 12.9556 81.0139 11.7993 80.1466C11.189 79.729 10.1289 79.0866 9.42188 78.7654C7.88037 78.0265 7.36621 77.4804 7.27002 76.4203C7.24463 76.2188 7.22607 76.0699 7.28125 75.9571C7.43701 75.6385 8.18115 75.6074 11.0283 75.4888L14.8828 75.3282L11.6064 73.3044C7.91211 70.9916 4.12158 67.2975 2.83691 64.7276C1.87305 62.7039 1.61621 60.0056 2.29102 58.4637C2.80469 57.3394 2.80469 57.3715 2.77246 60.2304C2.77246 62.7039 2.86914 63.3463 3.51123 64.567L4.28223 66.0125L4.50732 62.6396C4.9248 55.9902 5.1499 31.3519 4.82861 28.3324C4.57129 25.6662 4.57129 25.2165 5.11768 24.1885C5.85645 22.7109 5.88867 20.6229 5.21387 19.0167C4.9248 18.3743 4.21826 15.9651 3.64014 13.6522L3.57031 13.3807C3.06104 11.395 2.78076 10.3037 2.5752 10.3175C2.31592 10.3348 2.17432 12.0992 1.84082 16.0293C1.55176 19.4344 1.55176 20.6871 1.87305 22.1327C2.41943 24.4134 2.64404 24.6703 3.31885 23.6424C3.80078 22.9358 3.83252 22.5824 3.51123 21.3938C3.31885 20.5587 3.28662 19.6592 3.41504 19.2416C3.67188 18.5349 3.7041 18.567 4.05762 19.595C4.95703 22.1327 4.37891 23.8673 1.90527 26.0838C0.331055 27.4972 0.331055 27.5614 0.588379 28.7821C1.03809 30.7416 1.77686 38.4832 2.35498 47.0922L2.86914 54.8016L1.80908 56.5363C0.845215 58.1103 0.749023 58.4637 0.749023 60.8408C0.749023 63.0572 0.877441 63.7318 1.64844 65.2737C2.41943 66.8156 2.51563 67.3617 2.35498 68.5824C2.16211 69.803 2.00146 70.0279 1.39111 70.0279C0.523926 70.0279 -0.182617 70.7989 0.0419922 71.4413C0.138672 71.6983 0.556152 72.0838 0.973633 72.3086C1.58398 72.5977 1.64844 72.5977 1.32715 72.2444C0.749023 71.6341 0.812988 71.3128 1.55176 71.3128C2.13037 71.3128 2.16211 71.4734 1.96973 73.4008L1.77686 75.4888L3.41504 75.4888C5.021 75.4888 5.08545 75.5209 5.6958 76.7095C7.0127 79.2793 10.9961 81.817 15.8467 83.1341C17.999 83.7122 18.0952 83.7122 19.0591 83.1662C19.605 82.8449 20.5688 82.5237 21.2109 82.4916L22.3677 82.3952L21.436 81.3352C20.9219 80.757 20.5044 80.0824 20.5044 79.8254C20.5044 79.1508 24.52 80.3394 25.5801 81.3673C26.3511 82.074 26.897 82.2346 30.1411 82.5237C32.165 82.7486 34.3494 82.9734 34.9597 83.0377C35.5701 83.1019 38.3005 82.9413 41.0632 82.6843C45.5603 82.2025 46.1387 82.1061 46.9094 81.3673C47.6484 80.6606 51.9849 79.1187 51.9849 79.5363C51.9849 79.8896 51.2461 81.1424 50.668 81.7528C50.3999 82.0653 50.2561 82.2331 50.2939 82.3295C50.3379 82.4411 50.6255 82.4571 51.2461 82.4916C51.9207 82.5558 52.8843 82.8449 53.3984 83.1662C54.2979 83.7444 54.394 83.7444 56.6106 83.1341C61.5576 81.7849 66.376 78.6047 66.9541 76.324C67.147 75.5531 67.2754 75.4888 68.9136 75.4888L70.6804 75.4888L70.4556 73.4008C70.2949 71.6983 70.3271 71.3128 70.7126 71.3128C71.4192 71.3128 71.6121 71.6983 71.1624 72.2122C70.8411 72.6299 70.8733 72.662 71.5156 72.3086C71.9333 72.0838 72.3508 71.6983 72.4473 71.4413C72.6721 70.7989 71.9653 70.0279 71.0981 70.0279C69.7488 70.0279 69.5884 67.5544 70.8088 65.1452C71.7085 63.3784 72.126 60.8086 71.7727 59.0097C71.6763 58.3994 71.1301 57.243 70.584 56.4078L69.5884 54.898L69.9417 49.0516C70.5198 40.0894 71.2585 31.8659 71.7085 29.4888L72.126 27.3366L70.8733 26.4371C68.3354 24.7025 67.3718 21.7793 68.4961 19.2737L68.978 18.1494L69.0422 19.2737C69.0742 19.8841 69.0422 20.5265 69.01 20.7193C68.6245 22.5181 68.6887 23.0321 69.2671 23.7709L69.8774 24.5419L70.4556 22.6145C70.9695 20.8477 70.9695 20.398 70.4878 15.1299C70.1985 12.0461 69.8774 9.44412 69.8132 9.34775C69.7168 9.28351 69.6526 9.5726 69.6526 9.9902L69.6526 9.9902ZM70.2305 27.722C70.4553 27.979 70.4553 28.5894 70.2627 29.5531C70.1021 30.3561 69.6843 33.3757 69.3311 36.2989L68.7207 41.5992L68.8813 36.2989C69.074 30.2597 69.3311 27.3044 69.6523 27.3044C69.7808 27.3044 70.0378 27.4972 70.2305 27.722L70.2305 27.722ZM3.28662 30.0992C3.57568 34.2752 3.83252 41.6634 3.67188 41.278C3.57568 41.0852 3.28662 38.7081 2.99707 35.9777C2.70801 33.2473 2.35498 30.3562 2.16211 29.5852C1.93701 28.5894 1.96924 28.0755 2.22656 27.7542C2.90088 26.919 3.06152 27.3045 3.28662 30.0992L3.28662 30.0992ZM43.7935 58.9134C52.9805 62.0614 56.2571 69.514 51.021 75.2639C48.4192 78.1229 45.271 79.7933 40.9023 80.6606C38.3967 81.1746 33 81.0461 30.5586 80.4679C25.8369 79.3114 21.5 76.3883 19.8296 73.2081C18.7695 71.2165 18.7695 67.5544 19.8296 65.5628C21.3394 62.7039 24.7446 60.1341 28.8564 58.8492C31.8438 57.8855 32.1006 57.8534 36.887 57.9497C40.6453 58.014 41.5769 58.1425 43.7935 58.9134L43.7935 58.9134ZM4.9248 69.7067C5.50293 70.317 5.4707 70.3491 4.82813 70.3491C4.34668 70.3491 4.12158 70.1564 4.12158 69.7067C4.12158 69.3533 4.18604 69.0642 4.21777 69.0642C4.28223 69.0642 4.60352 69.3533 4.9248 69.7067L4.9248 69.7067ZM68.3677 69.7067C68.3677 70.1564 68.1428 70.3491 67.6609 70.3491C67.0186 70.3491 66.9863 70.317 67.5647 69.7067C67.8857 69.3533 68.207 69.0642 68.2712 69.0642C68.3035 69.0642 68.3677 69.3533 68.3677 69.7067L68.3677 69.7067ZM68.6885 72.9832L68.6885 73.8827L65.5728 73.8827C62.5852 73.8827 62.4888 73.8505 63.1956 73.3687C63.6133 73.0796 64.8982 72.5014 66.0544 72.0838C68.3674 71.2807 68.6885 71.3771 68.6885 72.9832L68.6885 72.9832ZM7.81543 72.7263L10.0645 73.8506L6.94824 73.8506L3.80029 73.8827L3.80029 72.7584C3.80029 71.7304 3.89648 71.6341 4.69971 71.6341C5.18164 71.6341 6.59521 72.1159 7.81543 72.7263L7.81543 72.7263ZM20.0225 76.7737C20.6973 77.4804 21.0825 78.0587 20.8579 78.0587C20.1831 78.0587 18.2881 76.7737 17.9346 76.0992C17.3242 74.9748 18.6733 75.3925 20.0225 76.7737L20.0225 76.7737ZM53.6875 76.7737C52.9487 77.4804 52.0813 78.0587 51.7922 78.0587C50.8606 78.0587 53.302 75.5531 54.2336 75.5209C55.0046 75.5209 54.9724 75.5852 53.6875 76.7737L53.6875 76.7737Z" id="HT" fill="#285018" fill-rule="evenodd" stroke="none" />
</svg>