<?xml version="1.0" encoding="utf-8"?>
<svg width="72.420654px" height="82.82089px" viewBox="0 0 72.420654 82.82089" version="1.1" xmlns:xlink="http://www.w3.org/1999/xlink" xmlns="http://www.w3.org/2000/svg">
  <path d="M8.26465 0.835175C8.26465 1.92737 6.85156 3.24442 4.60254 4.2081C2.93213 4.94693 2.80371 5.0433 2.83594 6.10336C2.83594 7.35614 3.57471 11.1788 3.896 11.4679C3.99219 11.5964 4.08887 11.0824 4.08887 10.3757C4.08887 9.66898 4.18506 8.44833 4.28174 7.67737C4.47412 6.36032 4.5708 6.19971 5.8877 5.65363C7.42969 5.01117 9.87109 2.82681 9.87109 2.08798C9.87109 1.67041 13.019 1.60614 36.2117 1.60614C55.9351 1.60614 62.5525 1.70251 62.5525 1.99164C62.5525 2.79471 64.2229 4.43295 66.0217 5.39664L67.9492 6.42459L68.2061 9.09079L68.4309 11.7249L68.8806 10.3114C69.1055 9.50836 69.3945 7.96649 69.491 6.8743C69.6123 5.64163 69.6572 5.18442 69.45 4.95883C69.3279 4.82584 69.1179 4.77335 68.7844 4.68994C67.5315 4.36871 65.1865 2.95532 64.6404 2.15225C64.3835 1.76675 64.1587 1.1243 64.1587 0.738831L64.1587 0L8.26465 0L8.26465 0.835175L8.26465 0.835175ZM2.38623 10.2794C2.25781 10.8897 2.00098 13.331 1.80811 15.676C1.51904 19.0489 1.51904 20.3659 1.84033 21.8757C2.06494 22.9358 2.38623 23.8674 2.51465 23.9637C2.64355 24.028 3.02881 23.7388 3.31787 23.2892C3.76758 22.6145 3.7998 22.2612 3.51074 21.2654C3.31787 20.6229 3.25391 19.6592 3.3501 19.1453L3.54297 18.2458L3.96045 19.2738C4.98828 21.6508 4.12109 24.2207 1.77588 26.0517L0.362793 27.1117C0.330566 27.1439 0.491211 28.2361 0.71582 29.5531C1.19775 32.2193 1.96875 40.8604 2.48291 49.3408L2.83594 54.866L1.77588 56.3757C0.780273 57.7891 0.71582 58.014 0.71582 60.6481C0.71582 63.1216 0.8125 63.6355 1.61523 65.0489C2.38623 66.3981 2.48291 66.8799 2.32227 68.1327C2.12939 69.4819 2.00098 69.6425 1.16553 69.8352C-0.0229492 70.0601 -0.344238 70.8311 0.39502 71.6341C1.03711 72.3408 1.80811 72.5336 1.22998 71.859C0.844727 71.3771 1.06934 70.9917 1.74414 70.9917C2.06494 70.9917 2.12939 71.4735 1.96875 73.2403L1.74414 75.4889L5.24512 75.4889C8.52197 75.4889 8.84326 75.5531 10.3848 76.4525C12.4087 77.609 13.4048 78.7975 13.4048 80.0825L13.4048 81.0461L15.0107 79.5685L14.2397 78.5727C13.8223 78.0266 12.8906 77.095 12.1519 76.5168L10.7705 75.4889L12.3765 75.4889C13.501 75.4889 14.2075 75.6816 14.8179 76.1635C15.2998 76.549 15.7817 76.7738 15.8779 76.6774C16.2314 76.3241 14.1753 74.6216 11.3164 72.8869C7.75098 70.7346 4.18506 67.2654 2.93262 64.6955C1.80811 62.4149 1.55127 59.6201 2.29004 58.271C2.77197 57.3716 2.8042 57.4037 2.77197 60.2626C2.73975 63.0252 3.15723 64.7919 4.0249 65.338C4.44238 65.595 4.69922 59.4916 4.92432 44.6509C5.05273 36.5559 4.98828 30.1313 4.79541 28.2682C4.50635 25.5378 4.53857 25.088 5.08496 24.028C5.82373 22.6145 5.8877 20.4302 5.21338 18.8883C4.69922 17.6355 2.93262 11.243 2.70752 9.95813C2.61133 9.25143 2.5791 9.28354 2.38623 10.2794L2.38623 10.2794ZM67.4673 17.9567C67.917 16.6397 68.6238 14.1983 69.0413 12.4958C69.9087 8.8338 69.9729 8.96228 70.5833 15.933C70.9043 19.9483 70.9043 20.6229 70.4226 22.2933C69.9087 24.0922 69.8765 24.1243 69.2661 23.5782C68.72 23.0963 68.6558 22.7109 68.8164 20.4301L68.9771 17.8282L68.3667 19.4986C67.8528 20.8799 67.8206 21.3617 68.0776 22.5182C68.4309 23.8031 70.3262 26.1802 71.6111 26.8547C72.093 27.1117 72.125 27.3366 71.8682 28.2682C71.4185 30.0027 70.6794 37.5516 70.0693 46.5782L69.5232 54.7696L70.3584 55.9902C72.1895 58.6885 72.3499 61.8044 70.8081 64.9525C69.9729 66.655 69.7158 68.5182 70.1978 69.257C70.3262 69.4497 70.8401 69.7067 71.322 69.8352C72.4785 70.0922 72.7354 70.831 72.0288 71.6341C71.3862 72.3408 70.6152 72.5335 71.1936 71.8589C71.5791 71.3771 71.3542 70.9916 70.6475 70.9916C70.2942 70.9916 70.2297 71.4092 70.4226 73.2402L70.6475 75.4888L67.7886 75.4888C62.7773 75.4888 59.5007 77.095 59.051 79.7933L58.8584 81.0139L58.0874 80.1788L57.2844 79.3436L59.2759 77.4162L61.2354 75.4888L59.8862 75.4888C59.1152 75.4888 58.0874 75.7458 57.4771 76.1313L56.417 76.7737L56.7703 76.0992C56.9951 75.7458 58.4729 74.5894 60.0791 73.5615C63.8374 71.1844 65.5398 69.7709 67.4031 67.5866C70.1978 64.2458 71.2256 60.905 70.1655 58.4637C69.9753 58.02 69.8604 57.7514 69.7886 57.7625C69.6787 57.7796 69.6711 58.455 69.6516 60.1662C69.6194 62.4469 69.491 63.25 68.9128 64.3422L68.1741 65.6913L67.9492 63.1215C67.5637 58.4315 67.3066 30.1313 67.6279 27.6257C67.8848 25.5056 67.8528 25.088 67.3066 24.028C66.4714 22.4218 66.5037 20.7835 67.4673 17.9567L67.4673 17.9567ZM70.1978 29.553C70.4226 28.3324 70.4226 27.6578 70.1978 27.3687C70.0051 27.1759 69.748 26.9832 69.6196 26.9832C69.2983 26.9832 69.0413 29.9385 68.8486 35.9776L68.688 41.2779L69.2661 36.2989C69.6196 33.5684 70.0051 30.5167 70.1978 29.553L70.1978 29.553ZM3.47852 33.6327C3.896 40.9888 3.73535 42.7877 3.15723 37.2947C2.93213 35.0782 2.54688 32.0587 2.32178 30.5489C1.96875 28.5251 1.96875 27.6899 2.22559 27.4008C2.41846 27.1439 2.70752 27.0796 2.83594 27.2081C2.99658 27.3687 3.25342 30.2598 3.47852 33.6327L3.47852 33.6327ZM31.4253 55.8939C25.2256 57.2109 20.0859 60.5517 18.062 64.567C17.0342 66.5908 16.6812 69.5139 17.2271 71.4413C17.6123 72.919 17.4517 73.2724 16.7451 72.5335C15.7495 71.5377 15.7813 67.1369 16.8413 64.3743C17.0342 63.8282 17.002 63.8282 16.5205 64.2137C16.2314 64.4386 15.7495 65.4665 15.4282 66.4623C14.9141 68.1648 13.5327 70.6704 13.1152 70.6704C13.019 70.6704 12.5693 70.9595 12.1196 71.3129L11.3164 71.9875L12.2803 71.7625C12.8262 71.6341 13.6294 71.2807 14.0791 70.9595L14.9463 70.3492L15.2998 71.7947C15.3203 71.8789 15.3403 71.959 15.3589 72.0353C15.583 72.9422 15.6738 73.3109 15.5327 73.4604C15.436 73.5629 15.2305 73.5624 14.8838 73.5616C14.8521 73.5616 14.8193 73.5615 14.7856 73.5615C13.916 73.5925 13.9175 73.5935 15.2534 74.8127L15.396 74.9428C17.002 76.3883 17.709 77.5447 17.4839 78.2193C17.3555 78.5084 17.5161 78.5726 17.9336 78.4763C18.8975 78.2193 18.9297 77.8981 18.062 76.6453L17.2915 75.4889L18.1587 75.4889C18.769 75.4889 19.4434 75.8743 20.2466 76.7095C20.8892 77.3841 21.4351 78.0265 21.4351 78.1229C21.4351 78.2193 20.8247 78.412 20.0537 78.5084C18.5117 78.7332 15.0747 80.2751 14.4644 80.9819C14.1431 81.3994 14.3359 81.4316 16.0063 81.1425C17.3232 80.9176 18.3193 80.9176 19.1865 81.1746C20.6001 81.528 20.8569 81.2388 19.7969 80.5L19.1221 80.0503L19.8291 79.6648C21.0176 79.0224 24.2939 79.9218 25.8037 81.3031C26.3179 81.7849 27.5386 82.0419 31.3291 82.4595C35.8904 82.9413 36.533 82.9413 41.0942 82.4595C44.8848 82.0419 46.1055 81.7849 46.6194 81.3031C48.1292 79.9539 51.4058 79.0224 52.5942 79.6648L53.269 80.0182L52.53 80.6285L51.7913 81.2388L53.7188 81.0782C54.7788 80.9819 56.2563 81.0461 57.0273 81.2068C58.1838 81.4637 58.3442 81.4637 58.0232 81.0782C57.4128 80.3394 53.9114 78.7332 52.4016 78.5084C51.6306 78.412 50.9883 78.2193 50.9883 78.0908C50.9883 77.9623 51.5342 77.3199 52.209 76.6774C53.012 75.8743 53.7188 75.4889 54.3291 75.4889L55.2285 75.4889L54.3933 76.4846C53.3975 77.6732 53.3333 78.2514 54.2004 78.4763C54.7144 78.6048 54.843 78.4763 54.843 77.8017C54.843 77.1914 55.3569 76.4846 56.6738 75.264C58.4087 73.6257 58.4729 73.5615 57.6055 73.5615C56.7703 73.5615 56.7383 73.4973 56.9309 72.5014C57.1985 71.1447 57.2954 70.6064 57.533 70.5349C57.6865 70.4887 57.8989 70.6375 58.2537 70.8864L58.3123 70.9274C58.7939 71.2807 59.6292 71.6341 60.1433 71.7305C61.0105 71.9232 61.0427 71.8911 60.4644 71.5377C59.0833 70.7025 57.7339 68.9679 57.2842 67.4902C56.7703 65.7235 55.9673 64.0531 55.4854 63.764C55.3247 63.6676 55.4211 64.1173 55.6782 64.7277C56.7383 67.2975 56.5134 72.2444 55.3247 72.7263C54.9392 72.8548 54.875 72.7263 55.0679 72.0196C55.2285 71.5377 55.3247 70.1243 55.3247 68.9037C55.3247 67.0727 55.1321 66.3017 54.3933 64.7598C52.6265 61.162 48.6433 58.1746 43.4392 56.5363C40.9016 55.7332 33.9309 55.3799 31.4253 55.8939L31.4253 55.8939ZM43.4395 58.5601C47.7439 59.9735 50.9563 62.3506 52.5303 65.3701C53.6868 67.5545 53.7188 70.7989 52.6267 72.8869C50.9563 76.0992 46.8123 78.926 41.9939 80.2109C39.167 80.9498 33.2563 80.9498 30.4297 80.2109C23.7803 78.4442 19.4438 74.5252 18.9619 69.8995C18.5444 65.9484 21.2744 62.0615 26.061 59.7487C29.7231 57.9819 32.3247 57.5 37.0149 57.6285C40.0344 57.7249 41.4158 57.9177 43.4395 58.5601L43.4395 58.5601ZM4.89209 69.3854C5.47021 69.9957 5.43799 70.0279 4.79541 70.0279C4.31396 70.0279 4.08887 69.8351 4.08887 69.3854C4.08887 69.032 4.15332 68.743 4.18506 68.743C4.24951 68.743 4.5708 69.032 4.89209 69.3854L4.89209 69.3854ZM67.6277 70.0279C68.1096 70.0279 68.3345 69.8351 68.3345 69.3854C68.3345 69.032 68.2703 68.743 68.238 68.743C68.1738 68.743 67.8525 69.032 67.5315 69.3854C66.9531 69.9957 66.9854 70.0279 67.6277 70.0279L67.6277 70.0279ZM7.14063 72.148C8.29688 72.5977 9.32471 73.1117 9.42139 73.2723C9.51758 73.433 8.29688 73.5614 6.69092 73.5614L3.76758 73.5614L3.76758 72.4372C3.76758 71.0237 4.24951 70.9916 7.14063 72.148L7.14063 72.148ZM68.6558 72.9511C68.6558 72.5977 68.5596 72.1159 68.4631 71.8268C68.2061 71.1522 67.5315 71.1843 65.4436 72.0517C62.0706 73.4651 62.0706 73.5293 65.5398 73.5614C68.3989 73.5614 68.6558 73.4972 68.6558 72.9511L68.6558 72.9511Z" id="IQ" fill="#2F0040" fill-rule="evenodd" stroke="none" />
</svg>