<?xml version="1.0" encoding="utf-8"?>
<svg width="256.60425px" height="373.02866px" viewBox="0 0 256.60425 373.02866" version="1.1" xmlns:xlink="http://www.w3.org/1999/xlink" xmlns="http://www.w3.org/2000/svg">
  <g id="portrait">
    <g id="Group">
      <path d="M119.749 0.0715136C115.061 0.618928 110.477 1.37166 107.261 2.19276L103.497 3.11656L63.4668 3.28763L23.4365 3.4587L23.2312 5.6826C23.0602 7.9065 22.239 10.8147 21.3153 12.5938L20.8363 13.5518L13.9251 13.5518L7.01385 13.5518L3.52403 17.0416L0 20.5656L0 186.332L0 352.098L3.4556 355.793L6.91121 359.454L13.8908 359.454L20.8705 359.454L21.5205 360.72C22.547 362.773 23.2655 365.579 23.2655 367.563L23.2655 369.376L62.5772 369.376L101.889 369.376L105.105 370.232C119.201 373.961 136.479 373.961 151.191 370.232L154.613 369.376L193.788 369.376L232.997 369.376L232.997 368.179C232.997 366.365 233.647 363.594 234.605 361.439L235.494 359.454L242.371 359.454L249.248 359.454L252.943 355.759L256.604 352.098L256.604 186.503L256.604 20.9078L252.909 17.2127L249.248 13.5518L242.371 13.5518L235.46 13.5518L234.742 11.8753C233.749 9.51454 232.997 6.50374 232.997 4.7588L232.997 3.28763L193.514 3.28763L154.031 3.28763L149.788 2.26121C142.467 0.516311 139.114 0.139925 129.671 0.0373081C124.881 -0.0311448 120.399 0.00310252 119.749 0.0715136L119.749 0.0715136ZM139.935 1.40587C142.09 1.67955 145.272 2.19276 146.949 2.56915L150.028 3.21918L128.302 3.21918C114.959 3.21918 106.987 3.11656 107.603 2.91129C109.485 2.36383 116.806 1.2348 120.604 0.892659C125.497 0.516314 134.974 0.721589 139.935 1.40587L139.935 1.40587ZM94.4304 6.02474C93.404 6.43529 92.446 6.60636 91.6249 6.46949C90.6327 6.33267 90.2905 6.40108 90.1195 6.84588C89.9142 7.35909 87.1087 7.39329 57.6163 7.39329L25.3184 7.39329L25.3184 6.36688L25.3184 5.34046L60.6613 5.37467C95.4911 5.37467 95.9358 5.37467 94.4304 6.02474L94.4304 6.02474ZM160.497 6.40108C162.79 7.25643 163.542 7.70123 163.987 8.52233C164.5 9.41192 164.706 9.48033 165.766 9.30926C166.656 9.13819 167.34 9.27506 168.674 9.95934C169.598 10.4383 170.385 10.9173 170.385 10.9858C170.385 11.0884 151.328 11.1568 128.063 11.1568L85.7058 11.1226L87.6902 10.0962C89.0588 9.37767 89.9825 9.13819 90.5984 9.24085C91.659 9.48033 92.1038 9.24085 92.6512 8.18019C92.9249 7.70123 94.0198 7.08536 95.8673 6.43529L98.7071 5.37467L128.131 5.34046L157.555 5.34046L160.497 6.40108L160.497 6.40108ZM231.08 6.09315C231.183 6.53795 231.286 6.9827 231.286 7.11957C231.286 7.29064 216.745 7.39329 198.988 7.39329C170.009 7.39329 166.656 7.32484 166.245 6.84588C165.937 6.46949 165.492 6.36688 164.74 6.50374C164.021 6.64056 163.132 6.50374 162.139 6.05894C160.634 5.37467 160.634 5.37467 195.738 5.37467L230.875 5.34046L231.08 6.09315L231.08 6.09315ZM28.8082 9.30926C27.8502 9.78827 26.379 10.9515 25.5237 11.8753C24.7025 12.7991 23.8472 13.5518 23.6419 13.5518C23.1629 13.5518 23.1629 13.586 23.9841 11.2594C24.3946 10.1646 24.771 9.06978 24.8394 8.83026C24.9078 8.55657 25.7974 8.41971 27.7818 8.41971L30.5873 8.41971L28.8082 9.30926L28.8082 9.30926ZM85.8769 9.99354C84.2688 10.8489 82.2502 12.0122 81.3264 12.5596L79.7184 13.5518L52.4499 13.5518L25.1814 13.5518L26.3789 12.3201C26.9947 11.6358 28.158 10.7462 28.9107 10.3015C32.0242 8.45392 31.8873 8.45392 61.4139 8.45392L88.785 8.41971L85.8769 9.99354L85.8769 9.99354ZM225.914 9.37767C227.043 9.85668 228.652 10.8831 229.678 11.8411L231.457 13.5176L204.086 13.5518L176.715 13.5518L175.517 12.7991C174.867 12.3885 172.78 11.2594 170.898 10.233L167.477 8.41971L195.704 8.52233L223.93 8.59078L225.914 9.37767L225.914 9.37767ZM231.628 8.93292C231.628 9.24085 232.005 10.3699 232.449 11.499C232.928 12.628 233.134 13.5518 232.963 13.5518C232.791 13.5518 231.833 12.7307 230.841 11.7384C229.849 10.7462 228.378 9.58299 227.523 9.2066L225.983 8.45392L228.823 8.41971C231.115 8.41971 231.628 8.52233 231.628 8.93292L231.628 8.93292ZM173.875 12.8675L175.004 13.5518L128.405 13.5518C102.744 13.5518 81.7712 13.4833 81.7712 13.3807C81.7712 13.3123 82.1818 13.0044 82.7292 12.7307C83.5162 12.2859 89.3667 12.2174 128.2 12.1832C172.13 12.1832 172.78 12.1832 173.875 12.8675L173.875 12.8675ZM10.0932 16.3573C7.86934 17.5206 4.65323 21.0789 3.28468 23.8844L2.05298 26.382L2.05298 23.987L2.05298 21.5921L5.02959 18.6154C8.0062 15.6046 8.04041 15.6046 9.75111 15.6046L11.4618 15.6388L10.0932 16.3573L10.0932 16.3573ZM245.074 16.7679C246.169 17.2811 247.914 18.547 248.94 19.5392L250.788 21.3525L250.788 186.435L250.788 351.482L249.077 353.193C248.119 354.151 246.409 355.451 245.211 356.067L243.09 357.23L128.302 357.23L13.5146 357.23L11.2565 356.136C9.85374 355.451 8.34833 354.322 7.25349 353.159L5.47437 351.277L5.47437 186.503L5.47437 21.7289L7.25349 19.8472C8.34833 18.6839 9.88796 17.5548 11.3934 16.8021L13.7883 15.6046L128.439 15.673L243.09 15.7757L245.074 16.7679L245.074 16.7679ZM251.54 18.5812L254.551 21.5921L254.551 24.1581L254.517 26.7241L253.251 24.1923C251.78 21.1815 248.94 17.9996 246.545 16.5968L244.8 15.6046L246.682 15.6046L248.564 15.6046L251.54 18.5812L251.54 18.5812ZM4.44795 186.571C4.41374 334.068 4.37952 349.259 3.90053 348.369C3.5926 347.822 3.0794 346.556 2.70304 345.495C2.05298 343.647 2.05298 340.089 2.05298 186.708C2.05298 74.2472 2.15562 29.427 2.42933 28.4348C2.8399 26.9294 4.10581 23.816 4.3111 23.816C4.37952 23.816 4.44795 97.0679 4.44795 186.571L4.44795 186.571ZM253.696 27.6821L254.551 30.3508L254.551 186.537L254.551 342.724L253.662 345.358C253.183 346.795 252.669 348.198 252.498 348.472C252.293 348.814 252.19 284.663 252.156 186.503C252.156 79.3451 252.293 24.1581 252.498 24.5002C252.704 24.7739 253.217 26.2109 253.696 27.6821L253.696 27.6821ZM251.575 354.391L248.564 357.401L246.682 357.401L244.8 357.401L246.545 356.409C249.043 354.972 251.78 351.859 253.183 348.814L254.38 346.248L254.483 348.814L254.585 351.38L251.575 354.391L251.575 354.391ZM5.81651 353.022C6.56921 353.912 8.14305 355.246 9.27211 355.999L11.3592 357.401L9.71689 357.401C8.07463 357.401 8.0062 357.333 5.0638 354.425L2.05298 351.414L2.05298 349.019L2.05298 346.624L3.25046 349.019C3.90053 350.319 5.0638 352.133 5.81651 353.022L5.81651 353.022ZM25.4208 360.994C26.2077 361.849 27.7131 362.978 28.7395 363.56L30.6213 364.586L27.8157 364.586L25.0444 364.586L24.3601 362.602C23.9838 361.541 23.5732 360.378 23.4364 360.036C22.9916 358.941 23.9838 359.42 25.4208 360.994L25.4208 360.994ZM82.2502 360.823C83.4819 361.576 85.4663 362.67 86.6296 363.286L88.785 364.415L62.6114 364.518C45.3334 364.586 35.6166 364.484 34.0428 364.244C30.9635 363.765 28.1238 362.465 26.4815 360.789L25.1814 359.454L52.6209 359.454L80.0605 359.454L82.2502 360.823L82.2502 360.823ZM173.533 360.139C172.438 360.823 171.788 360.823 128.268 360.823C89.3666 360.823 84.0293 360.754 83.1397 360.31C82.5581 360.002 82.1133 359.694 82.1133 359.625C82.1133 359.523 102.95 359.454 128.405 359.454L174.662 359.454L173.533 360.139L173.533 360.139ZM229.781 360.789C228.138 362.465 225.299 363.765 222.219 364.244C220.645 364.484 210.929 364.586 193.651 364.518L167.477 364.415L169.906 363.149C171.241 362.465 173.225 361.336 174.354 360.686L176.373 359.454L203.744 359.454L231.081 359.454L229.781 360.789L229.781 360.789ZM232.997 359.694C232.997 359.865 232.62 360.96 232.175 362.191L231.354 364.415L228.515 364.484L225.641 364.586L227.659 363.492C228.754 362.876 230.225 361.747 230.91 360.926C232.004 359.625 232.997 359.044 232.997 359.694L232.997 359.694ZM170.214 361.849C169.701 362.67 166.759 363.799 165.527 363.628C164.398 363.492 164.193 363.594 163.85 364.381C163.543 365.031 162.756 365.51 160.771 366.297L158.103 367.323L128.165 367.323L98.2282 367.323L95.5595 366.263C93.7462 365.579 92.754 364.963 92.5487 364.484C92.275 363.902 91.8986 363.731 90.838 363.697C89.6405 363.697 85.877 362.157 85.877 361.678C85.877 361.576 104.9 361.507 128.165 361.507C156.768 361.507 170.351 361.61 170.214 361.849L170.214 361.849ZM90.2221 365.955C90.8722 366.468 91.2486 366.537 91.7275 366.297C92.1723 366.058 92.7882 366.126 93.9857 366.605L95.6279 367.289L60.4902 367.289L25.3184 367.324L25.3184 366.297L25.3184 365.271L57.3426 365.271C88.7167 365.271 89.3668 365.271 90.2221 365.955L90.2221 365.955ZM231.286 365.75C231.286 367.426 233.476 367.324 195.909 367.289C161.148 367.289 160.976 367.255 162.448 366.605C163.44 366.194 164.124 366.058 164.501 366.263C165.151 366.605 166.622 366.16 166.622 365.613C166.622 365.373 176.954 365.271 198.954 365.271C226.633 365.271 231.286 365.339 231.286 365.75L231.286 365.75ZM149.207 369.753C147.872 370.3 141.303 371.361 136.719 371.806C131.347 372.285 119.577 372.011 114.959 371.292C111.058 370.676 106.679 369.753 106.439 369.547C106.371 369.445 116.122 369.376 128.165 369.411C142.227 369.411 149.754 369.547 149.207 369.753L149.207 369.753Z" id="Shape" fill="#000000" fill-rule="evenodd" stroke="none" />
      <path d="M117.97 352.601C118.175 352.706 118.585 352.706 118.825 352.601C119.03 352.443 118.859 352.338 118.38 352.338C117.901 352.338 117.73 352.443 117.97 352.601L117.97 352.601Z" id="Shape" fill="#000000" fill-rule="evenodd" stroke="none" />
    </g>
  </g>
</svg>