<?xml version="1.0" standalone="no"?>
<!DOCTYPE svg PUBLIC "-//W3C//DTD SVG 20010904//EN"
 "http://www.w3.org/TR/2001/REC-SVG-20010904/DTD/svg10.dtd">
<svg version="1.0" xmlns="http://www.w3.org/2000/svg"
 width="288.000000pt" height="1941.000000pt" viewBox="0 0 288.000000 1941.000000"
 preserveAspectRatio="xMidYMid meet">

<g transform="translate(0.000000,1941.000000) scale(0.100000,-0.100000)"
fill="#000000" stroke="none">
<path d="M1130 19135 c-95 -54 -268 -85 -476 -85 l-163 0 -27 -35 c-22 -29
-33 -35 -65 -35 -33 0 -44 -7 -90 -55 -28 -30 -73 -69 -100 -86 -49 -31 -49
-31 -49 -86 l0 -56 53 50 c86 81 241 176 357 219 l35 13 -63 0 c-60 1 -62 2
-50 21 12 19 24 20 302 20 285 0 289 0 272 -19 -16 -18 -36 -20 -214 -23 -177
-3 -204 -6 -262 -27 -134 -49 -243 -113 -364 -217 -60 -50 -66 -59 -66 -93 l0
-38 82 81 c48 47 108 95 144 113 109 58 147 63 471 63 207 0 300 4 319 12 22
10 28 10 39 -6 28 -38 12 -42 -143 -38 -213 6 -211 7 -130 -51 148 -106 309
-157 498 -157 208 0 385 63 540 190 l25 21 -172 -3 c-144 -3 -174 -1 -178 11
-3 8 1 22 10 30 12 13 19 13 35 3 14 -9 99 -12 318 -12 334 0 370 -5 482 -67
38 -21 97 -68 143 -114 l77 -78 0 35 c0 31 -8 43 -52 82 -126 114 -234 179
-378 229 -94 32 -97 33 -276 33 -168 0 -182 1 -199 20 -18 20 -17 20 267 20
272 0 286 -1 303 -20 18 -20 17 -20 -46 -20 l-64 -1 55 -23 c137 -57 240 -121
333 -206 l57 -52 0 56 c0 47 -3 57 -22 67 -43 23 -133 98 -153 129 -17 25 -26
30 -61 30 -36 0 -45 5 -68 35 l-27 35 -167 0 c-192 0 -358 27 -449 74 -62 31
-83 33 -83 7 0 -27 19 -39 101 -61 l74 -20 -60 3 c-44 3 -80 14 -136 41 -148
72 -313 71 -461 -1 -54 -27 -89 -37 -133 -39 l-60 -3 58 14 c78 20 117 41 117
65 0 24 -24 26 -60 5z m390 -16 c70 -11 194 -62 213 -88 7 -9 26 -23 42 -30
22 -11 25 -15 14 -18 -9 -2 -45 14 -78 36 -95 61 -149 76 -271 76 -122 0 -176
-15 -270 -76 -33 -21 -68 -39 -78 -39 -15 1 -14 2 3 15 11 8 38 27 60 44 49
36 129 68 198 80 73 12 93 12 167 0z"/>
<path d="M538 18822 c-9 -4 24 -8 75 -9 78 -2 175 -16 262 -39 14 -3 10 4 -15
26 l-34 30 -136 -1 c-74 0 -143 -3 -152 -7z"/>
<path d="M2014 18799 c-24 -26 -25 -30 -9 -25 70 20 183 37 263 39 136 3 70
15 -89 16 l-135 1 -30 -31z"/>
<path d="M447 18780 c-98 -25 -212 -118 -227 -185 -12 -52 -12 -169 0 -222 9
-36 5 -61 -25 -170 l-35 -128 0 -8365 0 -8365 35 -125 c33 -115 35 -129 24
-174 -7 -28 -10 -88 -7 -144 l5 -96 66 -62 c44 -42 83 -68 121 -83 155 -58
421 -26 617 74 48 25 127 57 175 71 79 24 106 27 239 28 179 1 250 -16 412
-95 224 -109 493 -138 648 -70 65 29 155 119 165 166 13 54 12 153 0 213 -10
43 -7 62 25 178 l35 129 0 8359 0 8359 -36 129 c-32 116 -35 133 -25 179 13
59 14 146 2 209 -7 37 -19 54 -62 93 -30 26 -79 60 -109 75 -53 26 -62 27
-210 27 -138 0 -166 -3 -253 -28 -54 -15 -126 -42 -160 -61 -34 -19 -105 -50
-157 -68 -94 -32 -98 -33 -270 -32 -164 0 -180 1 -260 28 -47 15 -119 46 -160
68 -118 63 -229 89 -395 94 -77 2 -157 -1 -178 -6z"/>
<path d="M173 18560 c-9 -14 -13 -73 -12 -207 l1 -188 24 85 c13 47 21 92 18
100 -4 8 -9 63 -13 123 -5 92 -8 105 -18 87z"/>
<path d="M2688 18510 c2 -39 -1 -94 -8 -122 -9 -46 -8 -63 12 -138 l23 -85 3
189 c2 171 1 192 -15 208 -17 17 -18 15 -15 -52z"/>
<path d="M2692 1176 c-19 -73 -21 -91 -11 -136 6 -29 9 -85 7 -126 -3 -73 -3
-74 14 -52 15 20 18 48 18 211 0 103 -1 187 -3 187 -2 0 -13 -38 -25 -84z"/>
<path d="M160 1069 c0 -147 3 -189 15 -205 13 -17 14 -11 15 66 0 47 5 101 10
122 8 29 6 52 -11 115 -12 43 -23 80 -25 82 -2 2 -4 -79 -4 -180z"/>
<path d="M160 792 c0 -38 5 -45 65 -99 85 -76 226 -164 328 -205 l82 -33 207
-3 c189 -3 208 -5 224 -23 17 -19 13 -19 -274 -19 -281 0 -292 1 -302 20 -10
19 -8 20 47 21 l58 0 -35 13 c-106 39 -242 122 -342 208 l-58 50 0 -50 0 -50
64 -46 c35 -25 80 -64 99 -86 29 -34 40 -40 73 -40 33 -1 43 -6 64 -35 l25
-34 147 -1 c172 0 348 -26 441 -66 34 -14 75 -28 90 -31 25 -5 28 -3 25 17 -3
23 -22 33 -123 64 l-50 16 56 -4 c37 -3 77 -15 117 -35 162 -82 350 -82 502 0
38 21 74 31 115 34 l60 5 -50 -16 c-105 -32 -120 -39 -123 -62 -3 -18 2 -22
22 -22 14 0 28 4 31 10 9 15 151 56 254 74 58 10 153 16 245 16 l151 0 24 35
c20 30 29 35 64 35 34 0 45 6 74 40 19 22 64 61 99 86 64 46 64 46 64 95 l0
49 -84 -67 c-100 -81 -167 -123 -272 -168 l-79 -35 58 0 c55 0 57 -1 45 -20
-12 -19 -24 -20 -302 -20 -285 0 -289 0 -272 19 16 18 35 20 224 23 l207 3 96
41 c108 45 234 126 322 204 50 45 57 56 57 89 l0 37 -87 -87 c-100 -97 -176
-141 -288 -163 -104 -22 -683 -27 -690 -7 -3 8 1 22 10 30 12 13 19 13 35 3
13 -8 67 -12 161 -12 161 0 161 1 59 70 -221 150 -502 189 -749 105 -95 -32
-196 -87 -251 -135 l-45 -39 137 -1 c87 0 147 4 164 12 22 10 28 10 39 -6 29
-40 18 -41 -303 -38 -339 4 -406 12 -507 62 -71 35 -162 108 -210 169 l-35 44
0 -41z m995 -376 c155 -119 401 -119 565 -2 52 37 94 50 70 21 -7 -8 -19 -15
-27 -15 -7 0 -16 -6 -19 -14 -8 -21 -112 -73 -179 -91 -75 -19 -174 -19 -248
0 -71 18 -172 69 -180 90 -4 8 -13 15 -20 15 -8 0 -20 7 -27 15 -24 29 18 17
65 -19z"/>
<path d="M865 651 c-36 -15 -206 -41 -274 -42 -65 -1 -66 -2 -21 -10 25 -4 92
-8 150 -8 l105 0 39 34 c39 35 39 41 1 26z"/>
<path d="M2015 627 l40 -36 105 0 c58 0 123 4 145 8 34 6 26 8 -55 13 -87 6
-206 26 -255 44 -12 4 -3 -8 20 -29z"/>
</g>
</svg>
