<?xml version="1.0" encoding="utf-8"?>
<svg width="2858px" height="7006.0005px" viewBox="0 0 2858 7006.0005" version="1.1" xmlns:xlink="http://www.w3.org/1999/xlink" xmlns="http://www.w3.org/2000/svg">
  <defs>
    <path d="M1429 0L741.167 212.259C551.971 270.644 398.144 384.462 279.686 553.714C161.229 722.966 102 913.561 102 1125.5L102 3179.5C102 3179.5 127.5 3280.13 102 3361C76.5 3441.87 0 3503 0 3503C0 3503 76.5 3539.5 102 3614.5C127.5 3689.5 102 3803 102 3803L102 5880.5C101.999 6092.44 161.229 6283.04 279.687 6452.29C398.145 6621.54 551.973 6735.36 741.17 6793.74L1429 7006L2116.83 6793.74C2306.03 6735.36 2459.86 6621.54 2578.31 6452.29C2696.77 6283.04 2756 6092.44 2756 5880.5L2756 3803C2756 3803 2730.5 3689.5 2756 3614.5C2781.5 3539.5 2858 3503 2858 3503C2858 3503 2781.5 3441.88 2756 3361C2730.5 3280.12 2756 3179.5 2756 3179.5L2756 1125.5C2756 913.561 2696.77 722.966 2578.31 553.714C2459.86 384.462 2306.03 270.644 2116.83 212.259L1429 0L1429 0Z" id="path_1" />
    <clipPath id="clip_1">
      <use xlink:href="#path_1" />
    </clipPath>
  </defs>
  <g id="Vector-shape">
    <use stroke="none" fill="#202020" xlink:href="#path_1" fill-rule="evenodd" />
    <g clip-path="url(#clip_1)">
      <use xlink:href="#path_1" fill="none" stroke="#B49F27" stroke-width="110" />
    </g>
  </g>
</svg>