<?xml version="1.0" encoding="utf-8"?>
<svg width="72.40405px" height="83.5196px" viewBox="0 0 72.40405 83.5196" version="1.1" xmlns:xlink="http://www.w3.org/1999/xlink" xmlns="http://www.w3.org/2000/svg">
  <path d="M8.24756 0.83519C8.24756 1.99161 6.38477 3.69414 4.32861 4.40083L2.72266 4.97905L2.91553 7.06704C3.01172 8.22346 3.26855 9.73322 3.49365 10.4399C3.50293 10.4707 3.51221 10.5007 3.52148 10.5299C3.87891 11.6937 3.88135 11.7012 3.97559 10.7612C4.42529 6.13547 4.23242 6.55308 6.38477 5.39662C8.18359 4.43294 9.854 2.79468 9.854 1.99161C9.854 1.70249 16.439 1.60615 36.0342 1.60615L62.1821 1.60615L62.696 2.53772C63.2422 3.62987 64.6235 4.75417 66.583 5.75001L67.9321 6.39246L68.1892 9.05865L68.4141 11.7249L68.8638 10.3114C69.0886 9.50837 69.3777 7.99861 69.4741 6.93854L69.6667 4.97905L68.0286 4.40083C66.0049 3.69414 64.1416 1.99161 64.1416 0.83519L64.1416 0L8.24756 0L8.24756 0.83519L8.24756 0.83519ZM68.9924 12.6243C68.575 14.4232 67.8682 16.8325 67.4507 17.9889C66.519 20.5266 66.4548 22.4218 67.2578 24.0601C67.804 25.1523 67.8362 25.6341 67.5791 27.8185C67.29 30.4526 67.5791 58.5601 67.9324 63.1216L68.1572 65.6914L68.8962 64.3422C69.4744 63.2501 69.6028 62.447 69.635 60.1662L69.6353 60.1447C69.667 57.4995 69.6682 57.4061 70.0847 58.3031C70.6951 59.5881 70.6628 61.6118 70.0847 63.2822C68.9924 66.366 64.8164 70.9596 61.572 72.5978C60.8655 72.9512 58.906 74.3003 57.1714 75.6174C54.3765 77.7054 53.8306 77.9945 52.3208 78.1229L50.6182 78.2836L51.9673 76.9023C53.2202 75.6174 53.5093 75.4889 54.8906 75.4889C56.1433 75.4889 56.6252 75.3283 57.4604 74.5252L58.5205 73.5936L57.6211 73.5615C56.7537 73.5615 56.7217 73.4972 56.9143 72.5014C57.1797 71.1743 57.2773 70.6416 57.5107 70.5732C57.6646 70.5282 57.8774 70.6845 58.2358 70.9477C58.2551 70.9621 58.2751 70.9767 58.2957 70.9917C58.7773 71.345 59.6768 71.6984 60.2871 71.7947L61.4116 71.9875L60.1909 71.3129C58.906 70.6062 57.5566 68.8073 57.2034 67.2975C56.9465 66.109 55.9185 64.0531 55.4688 63.764C55.3081 63.6676 55.4045 64.1174 55.6936 64.7919C56.4646 66.5587 56.4966 71.7305 55.7258 72.5014C54.9548 73.2724 54.7942 72.9512 55.1797 71.4414C56.4324 67.0084 53.7019 61.933 48.3696 58.7207C43.4868 55.7654 35.6812 54.7696 29.6099 56.3437C24.4058 57.7249 19.6196 61.1942 17.9492 64.8562C16.9854 66.9121 16.6641 70.0922 17.2104 71.6663C17.6279 72.8869 17.4351 73.2403 16.6963 72.5336C15.8291 71.6663 15.7646 67.7151 16.5356 65.3702L17.1782 63.4428L16.4395 64.3744C16.022 64.8883 15.5078 65.9805 15.3149 66.7836C14.769 68.8394 13.5806 70.542 12.1992 71.3129L10.9785 71.9875L12.0386 71.8269C12.6489 71.7305 13.5161 71.345 14.0303 70.9917L14.9297 70.3492L15.2832 71.7947C15.3052 71.8844 15.3262 71.9696 15.3462 72.0504C15.5713 72.9618 15.6606 73.3243 15.5225 73.468C15.4312 73.5629 15.2407 73.5624 14.9248 73.5617C14.8955 73.5616 14.8647 73.5615 14.8335 73.5615C13.7412 73.5615 13.8374 73.9149 15.0903 74.75C15.7969 75.2319 16.6323 75.4889 17.564 75.4889C18.7842 75.4889 19.1055 75.6495 20.1978 76.838C20.8726 77.5769 21.4185 78.1872 21.4185 78.2193C21.4185 78.2193 20.6475 78.1551 19.7158 78.0587C18.3345 77.9302 17.6924 77.609 16.4072 76.5811C14.8013 75.2319 13.6128 74.4288 9.62939 71.8269C5.06787 68.8716 1.82373 64.2138 1.82373 60.7445C1.85547 59.7487 2.04834 58.5922 2.30518 58.1425C2.75488 57.4037 2.78711 57.5643 2.75488 60.2626C2.72314 63.0573 3.14063 64.7919 4.00781 65.3381C4.42529 65.595 4.68262 59.4917 4.90723 44.6509C5.03564 36.5559 4.97168 30.1313 4.77881 28.2682C4.48975 25.5378 4.52197 25.088 5.06787 24.028C5.83887 22.4861 5.83887 20.5266 5.03564 18.4065C4.68262 17.507 3.97559 15.1299 3.46191 13.1383C2.40186 8.99447 2.36963 8.99447 1.7915 15.676C1.50244 19.0489 1.50244 20.366 1.82373 21.8757C2.04834 22.9358 2.36963 23.8673 2.49805 23.9637C2.62646 24.028 3.01221 23.7389 3.30127 23.2892C3.75098 22.6146 3.7832 22.2612 3.49414 21.2654C3.30127 20.6229 3.23682 19.6593 3.3335 19.1453L3.52588 18.2458L3.94385 19.2738C5.1001 21.9721 3.71875 25.2165 0.731445 26.8869C0.345703 27.1118 0.313965 27.4009 0.538574 28.4609C0.988281 30.3562 1.72705 38.2584 2.30518 47.1244L2.85156 54.9302L2.14453 55.7975C0.217285 58.271 -0.00732422 61.6118 1.50244 64.8562C2.3374 66.5587 2.46582 67.169 2.27344 68.3255C2.14453 69.3213 1.91992 69.7068 1.53418 69.7068C1.21338 69.7068 0.731445 69.8995 0.410156 70.1243C-0.264648 70.6383 -0.0717773 71.7626 0.731445 72.0839C1.1167 72.2123 1.21338 72.1481 1.05273 71.7947C0.923828 71.4735 1.08447 71.3129 1.50244 71.3129C2.08057 71.3129 2.11279 71.4735 1.91992 73.4009L1.72705 75.4889L12.8096 75.4889L14.4478 76.6774L16.0859 77.8981L14.3516 78.2836C12.4883 78.7012 10.1753 79.6328 10.1753 79.9861C10.1753 80.1146 10.6572 80.3716 11.2354 80.5643C11.7817 80.7571 13.2915 81.271 14.5762 81.7207C17.082 82.5881 22.9927 83.5517 25.6909 83.4875L27.3613 83.4553L25.7549 83.0699C23.7954 82.5881 22.5747 81.9456 21.0972 80.6285L19.9731 79.6328L21.8359 79.7612C23.2817 79.8576 24.0205 80.1146 25.1445 80.9177C26.4297 81.8171 27.0723 81.9777 30.3486 82.3953C35.0708 83.0057 36.9661 83.0057 41.9451 82.3953C44.9646 82.042 46.0889 81.785 46.6028 81.3352C47.6628 80.3716 48.6587 79.9218 50.5217 79.697C51.4856 79.5685 52.2566 79.5042 52.2566 79.5685C52.2566 79.7934 49.9116 81.7528 49.1726 82.1704C48.7551 82.3953 47.6628 82.7808 46.7314 83.0378L45.0288 83.5196L48.2412 83.359C50.0078 83.2626 52.5457 82.9735 53.8625 82.7487C56.9143 82.1704 61.9575 80.3716 61.7969 79.8576C61.7007 79.5042 59.6768 78.7333 57.3962 78.1551L56.2717 77.866L57.8459 76.6774L59.4199 75.4889L70.6309 75.4889L70.406 73.2724C70.1812 71.1202 70.2131 71.0559 70.8557 71.2165C71.4016 71.345 71.4661 71.4735 71.1768 71.8269C70.5986 72.5336 71.3696 72.3408 72.012 71.6341C72.7188 70.8311 72.4617 70.1565 71.3054 69.8674C70.8235 69.771 70.3096 69.4819 70.1812 69.2891C69.6992 68.5182 69.9563 66.6551 70.7915 64.9526C72.3333 61.8045 72.1726 58.6886 70.3416 55.9903L69.5063 54.7696L70.0525 46.6425C70.6628 37.6481 71.4016 29.9386 71.8193 28.3646C72.0764 27.4009 72.012 27.2724 70.5344 26.0196C67.9966 23.8673 67.322 21.7151 68.4463 19.2738L68.9604 18.1495L68.7998 20.5908C68.6714 22.7109 68.7356 23.1285 69.2495 23.5783C69.9563 24.2207 70.0205 24.1565 70.5344 21.8436C70.8877 20.3981 70.8557 19.1774 70.438 14.8087C70.1489 11.9176 69.8918 9.50843 69.8599 9.4442C69.7957 9.41204 69.4102 10.8576 68.9924 12.6243L68.9924 12.6243ZM3.46143 33.6327C3.87939 41.021 3.71875 42.7556 3.14014 37.2626C2.91553 35.0461 2.53027 32.0265 2.27295 30.5489C1.95166 28.5251 1.95166 27.69 2.20898 27.4008C2.40137 27.1439 2.69043 27.0796 2.81934 27.2081C2.97998 27.3687 3.23682 30.2598 3.46143 33.6327L3.46143 33.6327ZM70.4377 28.3645C70.2771 29.007 69.7952 32.5084 68.96 38.8687C68.7351 40.7961 68.7031 40.25 68.8315 35.9777C68.928 33.0545 69.0884 29.8422 69.1848 28.8463C69.3455 27.1439 69.4097 27.0475 69.9878 27.3366C70.4377 27.5936 70.5662 27.8827 70.4377 28.3645L70.4377 28.3645ZM42.4265 58.3032C47.0203 59.5238 50.6821 62.0936 52.4167 65.2738C53.22 66.6872 53.3806 67.3297 53.3806 69.225C53.3806 71.1202 53.22 71.7627 52.4167 73.2082C50.7144 76.2599 46.8916 78.926 42.2659 80.1788C39.375 80.9819 32.9502 80.9819 30.0913 80.1788C25.0801 78.7976 21.5469 76.2599 19.8442 72.8548C18.688 70.6062 18.5591 68.7431 19.3623 66.3981C20.6792 62.5113 25.9478 58.9135 31.9546 57.8213C34.1389 57.4037 40.2102 57.6928 42.4265 58.3032L42.4265 58.3032ZM68.3179 69.3856C68.3179 69.8353 68.093 70.0281 67.6111 70.0281C66.9688 70.0281 66.9365 69.9959 67.5149 69.3856C67.8359 69.0322 68.1572 68.7431 68.2214 68.7431C68.2537 68.7431 68.3179 69.0322 68.3179 69.3856L68.3179 69.3856ZM4.84277 69.6104C5.13525 69.9717 5.271 70.1395 5.23535 70.1927C5.20459 70.2389 5.04492 70.199 4.74658 70.1244C4.32861 70.028 4.07178 69.7068 4.07178 69.2892C4.07178 68.9359 4.104 68.711 4.16797 68.7752C4.2002 68.8395 4.48926 69.225 4.84277 69.6104L4.84277 69.6104ZM68.4463 71.8269C68.5427 72.116 68.6392 72.5979 68.6392 72.9512C68.6392 73.4973 68.3821 73.5616 65.748 73.5616C64.1741 73.5616 62.8569 73.4973 62.8569 73.4009C62.8569 73.0797 66.9688 71.3451 67.8682 71.313C68.093 71.313 68.3499 71.5378 68.4463 71.8269L68.4463 71.8269ZM7.79785 72.5015C8.76172 72.9512 9.53271 73.3689 9.53271 73.4331C9.53271 73.4973 8.24756 73.5616 6.6416 73.5616L3.75049 73.5616L3.75049 72.4052C3.75049 71.8303 3.75049 71.5412 3.89258 71.4234C4.03613 71.3043 4.3252 71.3605 4.90674 71.4736C5.54932 71.5699 6.86621 72.0518 7.79785 72.5015L7.79785 72.5015ZM18.7524 80.3074L19.8447 81.271L18.5918 81.271C17.4995 81.271 15.6045 80.7892 14.0303 80.0825C13.709 79.954 14.0303 79.7934 14.8335 79.6649C17.1782 79.2473 17.6279 79.3116 18.7524 80.3074L18.7524 80.3074ZM58.1348 79.6649C58.5525 79.6649 58.6809 79.7934 58.5203 79.954C57.9099 80.468 55.019 81.271 53.7341 81.271L52.417 81.2389L53.5413 80.2752C54.5371 79.44 54.8262 79.3437 56.0791 79.5043C56.8499 79.6006 57.7815 79.6649 58.1348 79.6649L58.1348 79.6649Z" id="ST" fill="#000000" fill-rule="evenodd" stroke="none" />
</svg>